{"glyphs":{"0":{"ha":1040,"x_min":0,"x_max":0,"o":"m 938 607 l 935 628 l 931 658 l 926 681 l 921 704 l 914 725 l 904 757 l 896 776 l 888 797 l 878 817 l 858 847 l 846 867 l 824 894 l 808 913 l 793 928 l 775 940 l 743 958 l 724 968 l 703 976 l 681 985 l 657 992 l 603 1004 l 581 1007 l 547 1013 l 525 1014 l 454 1017 l 432 1017 l 396 1015 l 374 1013 l 353 1007 l 332 1000 l 294 986 l 246 965 l 228 956 l 200 940 l 182 928 l 163 913 l 144 897 l 122 872 l 108 853 l 92 822 l 82 801 l 74 781 l 67 760 l 58 731 l 53 710 l 47 679 l 42 657 l 36 621 l 32 599 l 29 554 l 29 497 l 28 444 l 29 424 l 31 388 l 33 365 l 38 342 l 40 321 l 47 290 l 51 271 l 61 239 l 68 219 l 83 193 l 93 175 l 113 149 l 125 133 l 146 110 l 161 96 l 188 76 l 206 64 l 225 51 l 246 39 l 276 25 l 297 17 l 326 8 l 347 4 l 422 -8 l 444 -11 l 481 -14 l 503 -15 l 536 -12 l 560 -11 l 583 -8 l 604 -4 l 635 3 l 654 10 l 683 21 l 703 29 l 731 42 l 749 51 l 776 65 l 793 78 l 815 101 l 832 118 l 847 138 l 861 157 l 875 178 l 888 197 l 901 225 l 911 246 l 925 290 l 931 322 l 935 343 l 936 374 l 938 394 l 939 425 l 939 507 l 940 554 l 939 576 z m 343 296 l 333 314 l 331 324 l 324 343 l 318 367 l 315 389 l 313 424 l 313 446 l 314 490 l 314 513 l 315 554 l 315 575 l 317 607 l 319 631 l 325 654 l 333 679 l 346 700 l 361 721 l 376 736 l 401 753 l 422 764 l 443 771 l 453 772 l 476 776 l 499 776 l 508 775 l 529 774 l 550 767 l 560 764 l 579 754 l 597 740 l 614 724 l 625 706 l 640 675 l 649 654 l 656 631 l 661 608 l 664 575 l 665 554 l 664 513 l 664 490 l 660 424 l 658 390 l 654 368 l 640 321 l 631 300 l 618 278 l 603 260 l 596 253 l 576 240 l 556 232 l 533 226 l 499 224 l 474 224 l 450 225 l 425 229 l 403 236 l 394 242 l 376 253 l 361 269 l 347 288 z "},"1":{"ha":693,"x_min":0,"x_max":0,"o":"m 607 103 l 607 125 l 610 167 l 608 188 l 607 197 l 601 210 l 593 213 l 493 214 l 476 215 l 468 221 l 464 229 l 463 243 l 457 329 l 458 351 l 464 436 l 465 458 l 460 544 l 460 567 l 464 651 l 464 868 l 465 890 l 468 944 l 469 961 l 467 978 l 463 994 l 456 1004 l 442 1008 l 425 1007 l 404 1001 l 381 992 l 349 976 l 328 968 l 254 944 l 233 938 l 160 910 l 140 903 l 100 890 l 79 882 l 67 878 l 53 871 l 46 865 l 40 857 l 38 839 l 38 815 l 40 772 l 40 749 l 38 714 l 38 692 l 39 681 l 43 667 l 49 657 l 61 651 l 79 651 l 100 654 l 121 660 l 171 676 l 183 675 l 192 669 l 196 661 l 196 646 l 193 599 l 190 563 l 192 540 l 193 506 l 196 485 l 197 454 l 197 433 l 192 350 l 190 328 l 190 229 l 186 219 l 178 215 l 161 213 l 129 211 l 107 211 l 51 215 l 36 213 l 31 197 l 29 188 l 29 167 l 35 125 l 36 103 l 33 61 l 33 29 l 35 15 l 38 7 l 43 3 l 58 -1 l 104 -4 l 244 1 l 267 1 l 454 -1 l 476 -1 l 536 -4 l 576 -4 l 586 0 l 596 7 l 606 15 l 610 33 l 610 57 z "},"2":{"ha":971,"x_min":0,"x_max":0,"o":"m 296 256 l 300 274 l 303 285 l 311 304 l 322 321 l 338 336 l 346 343 l 367 353 l 378 357 l 401 361 l 413 361 l 438 363 l 449 363 l 472 364 l 506 367 l 528 371 l 551 375 l 574 378 l 606 381 l 628 385 l 651 389 l 674 396 l 697 403 l 718 411 l 747 426 l 765 438 l 788 458 l 803 474 l 821 497 l 833 515 l 849 542 l 858 563 l 867 586 l 872 607 l 879 639 l 882 658 l 883 689 l 883 710 l 879 743 l 875 764 l 868 783 l 861 804 l 851 825 l 842 844 l 824 869 l 810 888 l 794 906 l 776 924 l 758 939 l 739 950 l 710 964 l 689 972 l 668 979 l 624 993 l 603 1000 l 574 1007 l 553 1011 l 532 1013 l 510 1013 l 478 1011 l 432 1011 l 410 1010 l 379 1008 l 360 1006 l 339 1001 l 317 997 l 286 990 l 264 983 l 240 974 l 199 951 l 179 940 l 153 922 l 136 908 l 119 893 l 104 875 l 92 857 l 81 838 l 67 811 l 60 790 l 57 781 l 53 758 l 50 746 l 47 725 l 47 701 l 51 694 l 61 689 l 79 686 l 115 682 l 139 681 l 197 681 l 256 678 l 279 679 l 292 679 l 313 685 l 325 693 l 332 713 l 342 733 l 349 742 l 363 757 l 371 763 l 389 772 l 418 782 l 438 786 l 457 788 l 478 788 l 499 786 l 518 783 l 549 775 l 567 767 l 581 750 l 586 740 l 593 718 l 596 707 l 596 676 l 588 647 l 575 629 l 565 619 l 544 607 l 533 601 l 508 596 l 474 594 l 449 593 l 436 592 l 365 588 l 343 585 l 319 581 l 296 575 l 261 564 l 240 557 l 211 543 l 193 533 l 165 515 l 149 504 l 124 485 l 108 471 l 85 446 l 74 428 l 64 406 l 60 394 l 53 372 l 46 349 l 42 326 l 33 285 l 29 243 l 28 221 l 32 136 l 32 114 l 29 31 l 31 15 l 33 7 l 43 1 l 60 0 l 138 -3 l 239 -4 l 440 -4 l 563 3 l 640 3 l 742 -3 l 763 -4 l 793 -6 l 813 -4 l 857 3 l 865 7 l 871 15 l 874 29 l 875 49 l 876 71 l 874 106 l 874 163 l 872 185 l 871 206 l 868 225 l 860 238 l 842 242 l 818 242 l 772 238 l 750 236 l 588 233 l 565 233 l 494 235 l 382 235 l 329 233 l 310 235 l 296 238 l 294 244 z "},"3":{"ha":996,"x_min":0,"x_max":0,"o":"m 894 322 l 893 344 l 889 368 l 882 390 l 867 421 l 854 438 l 840 453 l 826 467 l 810 481 l 778 503 l 772 514 l 776 525 l 786 536 l 810 558 l 822 574 l 839 600 l 858 636 l 865 654 l 868 663 l 872 683 l 874 693 l 874 717 l 872 740 l 868 761 l 860 790 l 853 810 l 844 831 l 835 853 l 822 871 l 817 879 l 803 894 l 785 913 l 767 928 l 746 943 l 726 956 l 707 965 l 688 974 l 656 985 l 635 992 l 613 999 l 592 1003 l 560 1010 l 494 1018 l 463 1019 l 440 1021 l 417 1019 l 392 1017 l 344 1008 l 321 1006 l 297 1001 l 274 996 l 250 988 l 228 978 l 207 967 l 186 954 l 165 940 l 144 928 l 126 913 l 108 896 l 93 878 l 81 857 l 71 838 l 61 810 l 47 771 l 43 750 l 39 719 l 39 704 l 43 696 l 50 692 l 67 688 l 97 686 l 118 685 l 160 688 l 181 686 l 239 683 l 274 683 l 293 688 l 306 696 l 313 713 l 322 731 l 328 739 l 344 753 l 354 760 l 374 768 l 385 772 l 406 776 l 440 779 l 461 781 l 493 779 l 513 776 l 533 772 l 551 764 l 574 742 l 581 731 l 590 710 l 592 696 l 590 682 l 582 661 l 575 653 l 560 638 l 550 631 l 528 621 l 517 617 l 493 611 l 463 607 l 442 606 l 432 607 l 411 608 l 368 613 l 346 614 l 299 610 l 290 606 l 285 596 l 281 578 l 279 553 l 281 522 l 281 501 l 279 482 l 281 463 l 283 442 l 288 425 l 297 414 l 314 408 l 344 408 l 375 410 l 419 413 l 454 413 l 478 411 l 501 408 l 524 404 l 542 396 l 550 392 l 575 375 l 589 358 l 594 350 l 601 329 l 604 318 l 604 297 l 601 286 l 594 268 l 588 260 l 574 244 l 565 238 l 546 225 l 533 221 l 511 214 l 476 210 l 454 210 l 431 213 l 407 218 l 383 225 l 374 231 l 353 240 l 344 246 l 328 261 l 319 269 l 308 290 l 306 303 l 297 321 l 286 331 l 267 335 l 233 335 l 169 329 l 147 329 l 100 332 l 53 329 l 31 325 l 18 315 l 15 300 l 22 268 l 26 249 l 38 221 l 44 201 l 56 172 l 67 153 l 79 132 l 93 115 l 115 93 l 154 61 l 172 50 l 201 33 l 222 24 l 243 15 l 264 8 l 296 0 l 318 -4 l 339 -8 l 363 -11 l 410 -14 l 489 -17 l 511 -17 l 542 -15 l 565 -12 l 589 -8 l 611 -3 l 642 6 l 661 11 l 690 21 l 710 28 l 738 39 l 756 49 l 789 74 l 804 86 l 818 100 l 833 117 l 840 125 l 856 144 l 872 174 l 876 182 l 883 203 l 890 233 l 894 256 l 896 279 l 896 301 z "},"4":{"ha":1017,"x_min":0,"x_max":0,"o":"m 919 272 l 918 294 l 921 326 l 919 349 l 918 361 l 914 379 l 904 389 l 888 393 l 879 393 l 840 396 l 822 408 l 811 424 l 810 442 l 814 529 l 814 551 l 815 639 l 815 661 l 814 749 l 814 771 l 817 858 l 817 881 l 813 968 l 811 986 l 807 994 l 797 999 l 782 1001 l 761 1003 l 740 1003 l 665 999 l 571 1001 l 557 1000 l 550 994 l 539 983 l 486 929 l 471 915 l 458 900 l 444 882 l 422 856 l 407 839 l 354 785 l 339 769 l 292 710 l 278 693 l 226 638 l 211 622 l 158 568 l 143 553 l 92 496 l 78 479 l 32 419 l 22 408 l 17 401 l 15 386 l 21 304 l 24 282 l 38 203 l 40 186 l 49 174 l 65 168 l 86 167 l 107 167 l 160 171 l 181 172 l 389 168 l 411 168 l 503 174 l 521 172 l 533 165 l 543 149 l 544 128 l 542 74 l 542 51 l 543 31 l 549 13 l 560 4 l 579 1 l 611 -1 l 633 -3 l 668 -3 l 749 -8 l 781 -8 l 800 -3 l 813 11 l 817 31 l 818 51 l 817 74 l 813 118 l 814 138 l 822 154 l 836 165 l 846 169 l 888 172 l 906 176 l 917 186 l 922 204 l 922 239 z m 364 396 l 346 400 l 335 413 l 335 425 l 344 438 l 393 485 l 408 501 l 451 556 l 467 572 l 515 621 l 528 632 l 538 633 l 546 626 l 549 610 l 549 514 l 543 440 l 542 421 l 533 406 l 521 397 l 501 394 l 444 393 l 422 393 z "},"5":{"ha":942,"x_min":0,"x_max":0,"o":"m 856 353 l 853 375 l 846 407 l 842 429 l 831 460 l 822 482 l 813 503 l 800 519 l 781 543 l 742 575 l 724 588 l 703 600 l 682 611 l 653 624 l 632 631 l 588 639 l 553 643 l 532 646 l 488 649 l 453 651 l 429 651 l 351 647 l 332 650 l 315 660 l 307 676 l 304 696 l 306 738 l 308 754 l 319 765 l 340 771 l 364 772 l 388 772 l 453 768 l 544 768 l 658 767 l 681 767 l 739 768 l 761 768 l 772 769 l 790 772 l 800 783 l 803 804 l 807 828 l 808 850 l 808 894 l 811 936 l 810 957 l 808 967 l 806 983 l 799 992 l 789 996 l 774 999 l 732 1001 l 690 999 l 568 999 l 488 996 l 363 1004 l 282 1003 l 260 1001 l 179 997 l 157 997 l 104 1001 l 75 1001 l 58 999 l 46 988 l 42 967 l 40 954 l 42 932 l 46 885 l 47 861 l 43 778 l 43 756 l 47 672 l 47 650 l 46 567 l 46 544 l 47 461 l 49 443 l 58 432 l 76 428 l 242 431 l 264 431 l 357 425 l 388 428 l 431 431 l 451 429 l 483 425 l 506 419 l 528 410 l 546 396 l 561 381 l 574 363 l 576 354 l 582 332 l 581 307 l 576 285 l 567 263 l 549 243 l 526 231 l 504 221 l 483 215 l 453 214 l 433 214 l 403 215 l 383 221 l 363 228 l 344 240 l 329 256 l 315 276 l 307 300 l 300 318 l 290 326 l 272 331 l 239 331 l 176 326 l 154 326 l 90 331 l 58 328 l 42 325 l 32 315 l 29 294 l 31 271 l 33 249 l 40 218 l 46 199 l 57 171 l 68 151 l 81 131 l 94 114 l 114 90 l 129 76 l 151 58 l 169 46 l 199 29 l 218 19 l 239 11 l 260 6 l 293 -1 l 315 -4 l 360 -7 l 383 -10 l 406 -11 l 436 -14 l 456 -14 l 486 -15 l 506 -14 l 536 -12 l 558 -8 l 582 -1 l 603 6 l 631 15 l 651 25 l 674 35 l 696 47 l 717 60 l 758 92 l 775 107 l 806 143 l 818 163 l 829 182 l 843 210 l 849 229 l 854 260 l 856 282 l 857 306 l 857 329 z "},"6":{"ha":1013,"x_min":0,"x_max":0,"o":"m 911 374 l 900 429 l 893 450 l 878 481 l 867 499 l 849 526 l 833 543 l 811 565 l 793 579 l 767 599 l 747 608 l 717 618 l 696 625 l 613 643 l 590 647 l 554 649 l 532 650 l 501 647 l 481 646 l 449 639 l 428 633 l 393 622 l 372 614 l 354 604 l 343 600 l 333 603 l 318 613 l 311 626 l 311 643 l 313 664 l 315 686 l 317 699 l 325 719 l 335 738 l 347 753 l 354 758 l 374 771 l 383 775 l 406 783 l 426 789 l 458 793 l 478 792 l 510 789 l 531 783 l 542 781 l 564 772 l 593 756 l 601 749 l 615 733 l 622 719 l 631 713 l 647 710 l 683 706 l 706 704 l 740 703 l 810 703 l 832 704 l 856 707 l 875 711 l 889 721 l 892 738 l 890 747 l 885 768 l 882 778 l 874 800 l 869 810 l 861 832 l 851 856 l 840 876 l 828 894 l 815 911 l 800 924 l 782 935 l 751 950 l 732 961 l 711 971 l 689 979 l 665 986 l 643 992 l 613 999 l 590 1001 l 499 1014 l 457 1017 l 425 1014 l 406 1013 l 374 1008 l 353 1004 l 321 997 l 276 983 l 254 975 l 224 963 l 203 953 l 182 942 l 161 929 l 143 914 l 103 874 l 89 856 l 76 835 l 65 814 l 56 783 l 42 742 l 36 719 l 29 685 l 28 663 l 28 604 l 29 571 l 31 549 l 33 501 l 38 435 l 35 403 l 35 379 l 32 344 l 32 321 l 35 290 l 38 269 l 43 238 l 51 218 l 65 186 l 78 167 l 92 147 l 107 128 l 122 110 l 138 93 l 163 71 l 181 58 l 213 43 l 233 33 l 256 24 l 308 7 l 332 1 l 379 -7 l 414 -11 l 460 -14 l 482 -14 l 513 -12 l 535 -11 l 565 -10 l 586 -6 l 618 0 l 638 6 l 668 15 l 689 22 l 721 38 l 742 47 l 761 60 l 779 71 l 804 89 l 821 101 l 844 125 l 858 140 l 872 168 l 882 186 l 892 218 l 899 240 l 906 264 l 910 286 l 913 321 l 913 342 z m 560 231 l 538 221 l 504 213 l 485 211 l 457 211 l 435 217 l 408 225 l 388 235 l 363 251 l 340 269 l 325 288 l 315 308 l 314 319 l 313 342 l 317 360 l 326 376 l 332 385 l 349 403 l 360 410 l 378 424 l 388 428 l 404 436 l 414 440 l 433 444 l 465 450 l 496 450 l 515 446 l 524 444 l 546 438 l 569 426 l 589 411 l 600 404 l 615 386 l 622 378 l 631 356 l 632 344 l 633 321 l 631 308 l 624 288 l 617 276 l 604 260 l 589 247 l 571 235 z "},"7":{"ha":892,"x_min":0,"x_max":0,"o":"m 814 940 l 810 974 l 806 992 l 797 1003 l 776 1008 l 751 1008 l 671 1003 l 586 1004 l 564 1004 l 479 1003 l 457 1003 l 372 1007 l 350 1007 l 265 1003 l 158 1000 l 136 1001 l 79 1008 l 50 1008 l 33 1003 l 25 992 l 21 972 l 19 961 l 19 940 l 22 899 l 21 876 l 15 840 l 14 819 l 15 800 l 19 783 l 32 772 l 51 767 l 64 765 l 86 765 l 128 768 l 149 768 l 225 767 l 247 767 l 322 771 l 344 771 l 419 768 l 438 765 l 446 754 l 442 736 l 407 667 l 396 647 l 318 489 l 308 469 l 275 399 l 265 379 l 229 310 l 219 290 l 190 218 l 181 199 l 147 128 l 136 108 l 100 40 l 93 25 l 94 13 l 104 1 l 121 -4 l 129 -6 l 149 -6 l 211 -1 l 329 -4 l 351 -3 l 363 -3 l 379 1 l 388 8 l 397 24 l 433 88 l 443 107 l 475 174 l 483 193 l 513 263 l 522 282 l 556 346 l 567 365 l 601 431 l 611 450 l 642 518 l 650 538 l 682 604 l 692 624 l 728 689 l 738 708 l 764 778 l 772 797 l 807 863 l 814 885 l 815 907 z "},"8":{"ha":1032,"x_min":0,"x_max":0,"o":"m 926 363 l 921 385 l 910 414 l 899 433 l 874 471 l 858 488 l 842 503 l 829 515 l 825 526 l 829 538 l 842 551 l 858 567 l 874 585 l 888 606 l 897 625 l 907 656 l 911 676 l 913 697 l 913 718 l 910 750 l 907 772 l 900 796 l 892 818 l 881 839 l 868 857 l 849 882 l 833 899 l 815 914 l 796 926 l 769 943 l 750 953 l 721 965 l 700 974 l 632 994 l 607 1000 l 560 1008 l 517 1011 l 482 1014 l 419 1014 l 385 1011 l 364 1010 l 343 1006 l 322 1000 l 290 990 l 269 985 l 247 976 l 236 971 l 213 961 l 201 956 l 182 943 l 164 928 l 149 913 l 129 889 l 115 872 l 101 854 l 89 833 l 79 811 l 71 789 l 64 765 l 61 744 l 58 714 l 60 693 l 64 669 l 69 646 l 78 624 l 88 601 l 97 581 l 111 560 l 126 540 l 138 526 l 142 515 l 140 503 l 122 485 l 107 472 l 92 457 l 79 442 l 68 426 l 58 408 l 43 379 l 36 358 l 31 326 l 28 304 l 28 269 l 29 249 l 33 218 l 40 199 l 54 168 l 67 150 l 85 126 l 99 111 l 118 88 l 135 74 l 161 54 l 181 43 l 208 29 l 229 21 l 260 11 l 282 6 l 318 -1 l 388 -10 l 419 -11 l 440 -12 l 472 -14 l 492 -14 l 524 -12 l 544 -11 l 578 -10 l 629 -3 l 650 1 l 682 8 l 706 14 l 729 21 l 751 28 l 785 40 l 804 50 l 832 69 l 847 82 l 871 106 l 883 122 l 903 150 l 913 169 l 924 199 l 929 218 l 933 249 l 935 269 l 935 304 l 933 328 z m 381 771 l 397 781 l 426 790 l 447 796 l 468 797 l 489 797 l 519 796 l 540 790 l 561 783 l 579 774 l 600 753 l 610 736 l 617 718 l 619 708 l 618 689 l 613 668 l 604 650 l 597 643 l 585 629 l 576 624 l 560 615 l 529 604 l 508 601 l 488 600 l 465 601 l 432 607 l 410 615 l 400 621 l 381 633 l 371 639 l 356 654 l 349 663 l 339 681 l 338 690 l 338 710 l 344 729 l 356 747 l 364 757 z m 543 215 l 522 211 l 492 210 l 469 210 l 435 211 l 411 217 l 388 224 l 368 233 l 350 247 l 333 265 l 328 275 l 319 296 l 317 304 l 318 324 l 324 344 l 333 364 l 342 372 l 358 388 l 368 394 l 389 403 l 421 410 l 442 413 l 474 415 l 494 414 l 526 410 l 547 404 l 575 394 l 596 383 l 606 378 l 624 363 l 632 353 l 642 333 l 643 324 l 643 300 l 640 289 l 629 267 l 622 257 l 604 242 l 596 235 l 575 226 z "},"9":{"ha":1011,"x_min":0,"x_max":0,"o":"m 911 657 l 910 681 l 907 715 l 903 739 l 899 761 l 892 782 l 872 818 l 861 836 l 849 854 l 835 869 l 814 893 l 799 907 l 774 925 l 756 938 l 726 956 l 706 967 l 683 976 l 661 985 l 614 999 l 582 1004 l 560 1008 l 529 1011 l 507 1013 l 476 1015 l 453 1015 l 418 1013 l 394 1011 l 351 1006 l 300 994 l 269 988 l 250 981 l 218 967 l 197 957 l 176 944 l 157 931 l 133 911 l 118 896 l 99 874 l 86 857 l 71 831 l 61 813 l 50 783 l 43 764 l 38 743 l 33 722 l 29 681 l 29 660 l 31 629 l 35 607 l 40 572 l 54 531 l 64 510 l 89 471 l 101 454 l 125 432 l 142 418 l 172 400 l 192 389 l 229 371 l 251 364 l 275 357 l 297 351 l 329 350 l 351 349 l 439 351 l 460 353 l 492 356 l 513 360 l 543 369 l 565 378 l 586 389 l 597 396 l 601 397 l 613 390 l 622 372 l 628 350 l 631 340 l 632 319 l 632 311 l 625 292 l 615 271 l 600 251 l 583 236 l 564 226 l 543 217 l 521 208 l 508 207 l 486 204 l 474 203 l 433 206 l 413 208 l 389 214 l 367 221 l 349 232 l 339 240 l 326 256 l 321 265 l 314 281 l 303 290 l 285 294 l 264 296 l 243 296 l 190 293 l 125 297 l 104 296 l 72 294 l 58 292 l 51 286 l 47 274 l 46 256 l 46 247 l 54 203 l 60 183 l 68 161 l 83 131 l 96 111 l 103 101 l 118 85 l 140 67 l 158 54 l 179 43 l 200 33 l 221 25 l 243 18 l 267 11 l 289 6 l 324 -3 l 346 -7 l 406 -17 l 429 -19 l 453 -21 l 476 -21 l 511 -17 l 558 -8 l 581 -4 l 622 3 l 643 7 l 664 13 l 685 19 l 715 33 l 738 44 l 758 57 l 776 69 l 794 85 l 811 100 l 833 126 l 847 144 l 864 171 l 874 190 l 885 218 l 892 238 l 897 269 l 901 289 l 903 321 l 904 342 l 904 432 l 906 454 l 911 544 z m 621 643 l 615 621 l 610 611 l 597 593 l 582 578 l 563 567 l 540 558 l 518 553 l 475 549 l 454 549 l 422 553 l 403 558 l 371 574 l 353 585 l 338 600 l 325 618 l 317 636 l 313 657 l 311 679 l 319 713 l 325 721 l 338 738 l 353 753 l 371 764 l 381 769 l 403 775 l 415 776 l 456 779 l 476 778 l 513 772 l 533 768 l 543 764 l 561 757 l 576 747 l 585 742 l 597 728 l 610 711 l 618 690 l 619 678 l 621 654 z "},"A":{"ha":1242,"x_min":0,"x_max":0,"o":"m 1119 108 l 1082 196 l 1072 215 l 1039 281 l 996 367 l 988 386 l 960 456 l 951 475 l 921 543 l 913 563 l 882 629 l 874 649 l 849 719 l 840 739 l 810 807 l 801 826 l 767 892 l 758 913 l 739 967 l 732 985 l 717 996 l 693 1000 l 629 1001 l 521 1001 l 457 999 l 436 994 l 422 986 l 415 971 l 390 914 l 382 893 l 356 829 l 346 807 l 315 744 l 306 722 l 267 639 l 217 525 l 208 506 l 171 428 l 163 407 l 131 332 l 122 311 l 86 233 l 78 214 l 43 136 l 35 115 l 15 72 l 7 50 l 4 39 l 3 21 l 14 6 l 31 -3 l 49 -1 l 135 4 l 157 4 l 238 0 l 260 -1 l 281 7 l 296 25 l 304 47 l 336 142 l 344 158 l 356 165 l 374 168 l 438 168 l 458 169 l 479 169 l 563 168 l 667 165 l 689 165 l 772 160 l 789 158 l 801 156 l 811 142 l 854 25 l 861 10 l 869 -1 l 888 -7 l 974 -1 l 1036 -1 l 1057 -3 l 1089 -6 l 1108 -6 l 1126 -3 l 1142 4 l 1151 19 l 1147 39 z m 679 417 l 668 406 l 650 400 l 585 404 l 497 404 l 478 407 l 463 414 l 458 431 l 463 451 l 499 544 l 507 565 l 544 660 l 558 674 l 574 678 l 592 674 l 606 664 l 613 646 l 640 564 l 647 543 l 678 449 l 683 431 z "},"Á":{"ha":1242,"x_min":0,"x_max":0,"o":"m 804 1339 l 790 1343 l 751 1346 l 721 1343 l 700 1343 l 635 1342 l 614 1342 l 582 1343 l 560 1343 l 549 1342 l 532 1342 l 525 1338 l 517 1324 l 483 1250 l 472 1231 l 431 1147 l 431 1143 l 432 1139 l 436 1138 l 449 1136 l 551 1136 l 619 1132 l 631 1133 l 647 1136 l 661 1143 l 674 1157 l 731 1226 l 744 1243 l 799 1315 l 807 1329 z m 1119 108 l 1082 196 l 1072 215 l 1039 281 l 996 367 l 988 386 l 960 456 l 951 475 l 921 543 l 913 563 l 882 629 l 874 649 l 849 719 l 840 739 l 810 807 l 801 826 l 767 892 l 758 913 l 739 967 l 732 985 l 717 996 l 693 1000 l 629 1001 l 521 1001 l 457 999 l 436 994 l 422 986 l 415 971 l 390 914 l 382 893 l 356 829 l 346 807 l 315 744 l 306 722 l 267 639 l 217 525 l 208 506 l 171 428 l 163 407 l 131 332 l 122 311 l 86 233 l 78 214 l 43 136 l 35 115 l 15 72 l 7 50 l 4 39 l 3 21 l 14 6 l 31 -3 l 49 -1 l 135 4 l 157 4 l 238 0 l 260 -1 l 281 7 l 296 25 l 304 47 l 336 142 l 344 158 l 356 165 l 374 168 l 438 168 l 458 169 l 479 169 l 563 168 l 667 165 l 689 165 l 772 160 l 789 158 l 801 156 l 811 142 l 854 25 l 861 10 l 869 -1 l 888 -7 l 974 -1 l 1036 -1 l 1057 -3 l 1089 -6 l 1108 -6 l 1126 -3 l 1142 4 l 1151 19 l 1147 39 z m 679 417 l 668 406 l 650 400 l 585 404 l 497 404 l 478 407 l 463 414 l 458 431 l 463 451 l 499 544 l 507 565 l 544 660 l 558 674 l 574 678 l 592 674 l 606 664 l 613 646 l 640 564 l 647 543 l 678 449 l 683 431 z "},"Ă":{"ha":1242,"x_min":0,"x_max":0,"o":"m 821 1365 l 814 1369 l 806 1369 l 721 1372 l 700 1372 l 642 1371 l 629 1369 l 622 1365 l 619 1358 l 618 1351 l 615 1343 l 610 1332 l 601 1322 l 590 1315 l 574 1310 l 556 1310 l 544 1311 l 535 1314 l 525 1318 l 511 1332 l 506 1343 l 503 1356 l 500 1365 l 493 1371 l 485 1371 l 469 1372 l 447 1372 l 411 1369 l 389 1369 l 358 1372 l 338 1372 l 329 1371 l 315 1371 l 307 1368 l 301 1365 l 300 1353 l 301 1342 l 303 1321 l 311 1288 l 315 1275 l 325 1254 l 329 1244 l 350 1215 l 365 1199 l 372 1193 l 389 1179 l 399 1171 l 418 1158 l 429 1153 l 451 1143 l 475 1135 l 485 1133 l 507 1129 l 519 1129 l 542 1128 l 551 1126 l 574 1126 l 586 1128 l 610 1129 l 621 1129 l 647 1135 l 671 1142 l 683 1147 l 704 1158 l 715 1165 l 735 1181 l 753 1196 l 763 1204 l 778 1222 l 786 1232 l 799 1254 l 807 1275 l 814 1294 l 818 1314 l 821 1325 l 824 1349 z m 1119 108 l 1082 196 l 1072 215 l 1039 281 l 996 367 l 988 386 l 960 456 l 951 475 l 921 543 l 913 563 l 882 629 l 874 649 l 849 719 l 840 739 l 810 807 l 801 826 l 767 892 l 758 913 l 739 967 l 732 985 l 717 996 l 693 1000 l 629 1001 l 521 1001 l 457 999 l 436 994 l 422 986 l 415 971 l 390 914 l 382 893 l 356 829 l 346 807 l 315 744 l 306 722 l 267 639 l 217 525 l 208 506 l 171 428 l 163 407 l 131 332 l 122 311 l 86 233 l 78 214 l 43 136 l 35 115 l 15 72 l 7 50 l 4 39 l 3 21 l 14 6 l 31 -3 l 49 -1 l 135 4 l 157 4 l 238 0 l 260 -1 l 281 7 l 296 25 l 304 47 l 336 142 l 344 158 l 356 165 l 374 168 l 438 168 l 458 169 l 479 169 l 563 168 l 667 165 l 689 165 l 772 160 l 789 158 l 801 156 l 811 142 l 854 25 l 861 10 l 869 -1 l 888 -7 l 974 -1 l 1036 -1 l 1057 -3 l 1089 -6 l 1108 -6 l 1126 -3 l 1142 4 l 1151 19 l 1147 39 z m 679 417 l 668 406 l 650 400 l 585 404 l 497 404 l 478 407 l 463 414 l 458 431 l 463 451 l 499 544 l 507 565 l 544 660 l 558 674 l 574 678 l 592 674 l 606 664 l 613 646 l 640 564 l 647 543 l 678 449 l 683 431 z "},"Â":{"ha":1242,"x_min":0,"x_max":0,"o":"m 881 1160 l 872 1171 l 821 1224 l 806 1239 l 749 1289 l 681 1357 l 671 1368 l 663 1374 l 654 1376 l 639 1376 l 586 1381 l 565 1381 l 521 1378 l 503 1376 l 492 1374 l 483 1368 l 471 1357 l 461 1349 l 446 1335 l 417 1304 l 401 1289 l 347 1238 l 332 1224 l 301 1193 l 286 1176 l 281 1168 l 272 1158 l 271 1150 l 275 1142 l 288 1139 l 307 1138 l 328 1138 l 375 1142 l 397 1143 l 499 1143 l 504 1144 l 515 1154 l 564 1194 l 575 1203 l 578 1203 l 589 1194 l 643 1150 l 654 1142 l 668 1139 l 775 1139 l 821 1136 l 842 1136 l 863 1138 l 876 1142 l 882 1151 z m 1119 108 l 1082 196 l 1072 215 l 1039 281 l 996 367 l 988 386 l 960 456 l 951 475 l 921 543 l 913 563 l 882 629 l 874 649 l 849 719 l 840 739 l 810 807 l 801 826 l 767 892 l 758 913 l 739 967 l 732 985 l 717 996 l 693 1000 l 629 1001 l 521 1001 l 457 999 l 436 994 l 422 986 l 415 971 l 390 914 l 382 893 l 356 829 l 346 807 l 315 744 l 306 722 l 267 639 l 217 525 l 208 506 l 171 428 l 163 407 l 131 332 l 122 311 l 86 233 l 78 214 l 43 136 l 35 115 l 15 72 l 7 50 l 4 39 l 3 21 l 14 6 l 31 -3 l 49 -1 l 135 4 l 157 4 l 238 0 l 260 -1 l 281 7 l 296 25 l 304 47 l 336 142 l 344 158 l 356 165 l 374 168 l 438 168 l 458 169 l 479 169 l 563 168 l 667 165 l 689 165 l 772 160 l 789 158 l 801 156 l 811 142 l 854 25 l 861 10 l 869 -1 l 888 -7 l 974 -1 l 1036 -1 l 1057 -3 l 1089 -6 l 1108 -6 l 1126 -3 l 1142 4 l 1151 19 l 1147 39 z m 679 417 l 668 406 l 650 400 l 585 404 l 497 404 l 478 407 l 463 414 l 458 431 l 463 451 l 499 544 l 507 565 l 544 660 l 558 674 l 574 678 l 592 674 l 606 664 l 613 646 l 640 564 l 647 543 l 678 449 l 683 431 z "},"Ä":{"ha":1242,"x_min":0,"x_max":0,"o":"m 494 1236 l 493 1256 l 486 1279 l 476 1301 l 465 1317 l 450 1329 l 442 1335 l 422 1346 l 400 1351 l 392 1354 l 371 1357 l 350 1356 l 342 1356 l 321 1351 l 311 1347 l 290 1339 l 272 1326 l 256 1310 l 240 1290 l 232 1272 l 228 1257 l 225 1238 l 225 1217 l 228 1197 l 233 1179 l 244 1161 l 258 1144 l 272 1131 l 288 1121 l 304 1113 l 322 1107 l 340 1103 l 372 1103 l 385 1104 l 408 1110 l 428 1118 l 446 1129 l 463 1142 l 474 1157 l 483 1174 l 490 1193 l 494 1215 z m 918 1236 l 917 1256 l 910 1279 l 900 1301 l 889 1317 l 874 1329 l 865 1335 l 846 1346 l 824 1351 l 815 1354 l 794 1357 l 774 1356 l 765 1356 l 744 1351 l 735 1347 l 714 1339 l 696 1326 l 679 1310 l 664 1290 l 656 1272 l 651 1257 l 649 1238 l 649 1217 l 651 1197 l 657 1179 l 668 1161 l 682 1144 l 696 1131 l 710 1121 l 728 1113 l 746 1107 l 764 1103 l 796 1103 l 808 1104 l 832 1110 l 851 1118 l 869 1129 l 886 1142 l 897 1157 l 907 1174 l 914 1193 l 918 1215 z m 1119 108 l 1082 196 l 1072 215 l 1039 281 l 996 367 l 988 386 l 960 456 l 951 475 l 921 543 l 913 563 l 882 629 l 874 649 l 849 719 l 840 739 l 810 807 l 801 826 l 767 892 l 758 913 l 739 967 l 732 985 l 717 996 l 693 1000 l 629 1001 l 521 1001 l 457 999 l 436 994 l 422 986 l 415 971 l 390 914 l 382 893 l 356 829 l 346 807 l 315 744 l 306 722 l 267 639 l 217 525 l 208 506 l 171 428 l 163 407 l 131 332 l 122 311 l 86 233 l 78 214 l 43 136 l 35 115 l 15 72 l 7 50 l 4 39 l 3 21 l 14 6 l 31 -3 l 49 -1 l 135 4 l 157 4 l 238 0 l 260 -1 l 281 7 l 296 25 l 304 47 l 336 142 l 344 158 l 356 165 l 374 168 l 438 168 l 458 169 l 479 169 l 563 168 l 667 165 l 689 165 l 772 160 l 789 158 l 801 156 l 811 142 l 854 25 l 861 10 l 869 -1 l 888 -7 l 974 -1 l 1036 -1 l 1057 -3 l 1089 -6 l 1108 -6 l 1126 -3 l 1142 4 l 1151 19 l 1147 39 z m 679 417 l 668 406 l 650 400 l 585 404 l 497 404 l 478 407 l 463 414 l 458 431 l 463 451 l 499 544 l 507 565 l 544 660 l 558 674 l 574 678 l 592 674 l 606 664 l 613 646 l 640 564 l 647 543 l 678 449 l 683 431 z "},"À":{"ha":1242,"x_min":0,"x_max":0,"o":"m 675 1153 l 671 1172 l 661 1194 l 639 1233 l 629 1254 l 615 1286 l 606 1307 l 600 1318 l 590 1335 l 576 1343 l 558 1346 l 547 1346 l 526 1347 l 433 1342 l 368 1346 l 344 1346 l 332 1344 l 314 1340 l 308 1329 l 314 1311 l 319 1303 l 332 1285 l 369 1242 l 440 1157 l 451 1144 l 464 1139 l 482 1136 l 493 1135 l 515 1135 l 557 1138 l 619 1133 l 642 1133 l 651 1135 l 669 1140 z m 1119 108 l 1082 196 l 1072 215 l 1039 281 l 996 367 l 988 386 l 960 456 l 951 475 l 921 543 l 913 563 l 882 629 l 874 649 l 849 719 l 840 739 l 810 807 l 801 826 l 767 892 l 758 913 l 739 967 l 732 985 l 717 996 l 693 1000 l 629 1001 l 521 1001 l 457 999 l 436 994 l 422 986 l 415 971 l 390 914 l 382 893 l 356 829 l 346 807 l 315 744 l 306 722 l 267 639 l 217 525 l 208 506 l 171 428 l 163 407 l 131 332 l 122 311 l 86 233 l 78 214 l 43 136 l 35 115 l 15 72 l 7 50 l 4 39 l 3 21 l 14 6 l 31 -3 l 49 -1 l 135 4 l 157 4 l 238 0 l 260 -1 l 281 7 l 296 25 l 304 47 l 336 142 l 344 158 l 356 165 l 374 168 l 438 168 l 458 169 l 479 169 l 563 168 l 667 165 l 689 165 l 772 160 l 789 158 l 801 156 l 811 142 l 854 25 l 861 10 l 869 -1 l 888 -7 l 974 -1 l 1036 -1 l 1057 -3 l 1089 -6 l 1108 -6 l 1126 -3 l 1142 4 l 1151 19 l 1147 39 z m 679 417 l 668 406 l 650 400 l 585 404 l 497 404 l 478 407 l 463 414 l 458 431 l 463 451 l 499 544 l 507 565 l 544 660 l 558 674 l 574 678 l 592 674 l 606 664 l 613 646 l 640 564 l 647 543 l 678 449 l 683 431 z "},"Ā":{"ha":1242,"x_min":0,"x_max":0,"o":"m 826 1228 l 826 1249 l 831 1299 l 828 1313 l 826 1325 l 821 1335 l 811 1342 l 794 1344 l 783 1346 l 761 1346 l 694 1342 l 617 1344 l 518 1346 l 496 1346 l 418 1340 l 396 1340 l 318 1342 l 303 1342 l 294 1336 l 290 1326 l 288 1308 l 285 1296 l 285 1272 l 286 1249 l 286 1226 l 285 1203 l 285 1179 l 286 1168 l 289 1150 l 294 1139 l 303 1133 l 318 1131 l 328 1129 l 350 1129 l 418 1133 l 496 1135 l 518 1135 l 694 1132 l 717 1132 l 758 1129 l 781 1129 l 793 1131 l 811 1133 l 819 1139 l 826 1149 l 829 1165 l 831 1181 l 829 1196 z m 1119 108 l 1082 196 l 1072 215 l 1039 281 l 996 367 l 988 386 l 960 456 l 951 475 l 921 543 l 913 563 l 882 629 l 874 649 l 849 719 l 840 739 l 810 807 l 801 826 l 767 892 l 758 913 l 739 967 l 732 985 l 717 996 l 693 1000 l 629 1001 l 521 1001 l 457 999 l 436 994 l 422 986 l 415 971 l 390 914 l 382 893 l 356 829 l 346 807 l 315 744 l 306 722 l 267 639 l 217 525 l 208 506 l 171 428 l 163 407 l 131 332 l 122 311 l 86 233 l 78 214 l 43 136 l 35 115 l 15 72 l 7 50 l 4 39 l 3 21 l 14 6 l 31 -3 l 49 -1 l 135 4 l 157 4 l 238 0 l 260 -1 l 281 7 l 296 25 l 304 47 l 336 142 l 344 158 l 356 165 l 374 168 l 438 168 l 458 169 l 479 169 l 563 168 l 667 165 l 689 165 l 772 160 l 789 158 l 801 156 l 811 142 l 854 25 l 861 10 l 869 -1 l 888 -7 l 974 -1 l 1036 -1 l 1057 -3 l 1089 -6 l 1108 -6 l 1126 -3 l 1142 4 l 1151 19 l 1147 39 z m 679 417 l 668 406 l 650 400 l 585 404 l 497 404 l 478 407 l 463 414 l 458 431 l 463 451 l 499 544 l 507 565 l 544 660 l 558 674 l 574 678 l 592 674 l 606 664 l 613 646 l 640 564 l 647 543 l 678 449 l 683 431 z "},"Ą":{"ha":1242,"x_min":0,"x_max":0,"o":"m 1181 -256 l 1178 -244 l 1174 -224 l 1164 -201 l 1149 -171 l 1140 -156 l 1136 -149 l 1131 -144 l 1124 -143 l 1107 -147 l 1075 -153 l 1056 -153 l 1033 -150 l 1008 -142 l 989 -126 l 979 -108 l 976 -87 l 979 -78 l 986 -62 l 999 -50 l 1019 -37 l 1042 -26 l 1054 -24 l 1076 -17 l 1110 -7 l 1133 -1 l 1146 1 l 1156 17 l 1147 39 l 1119 108 l 1082 196 l 1072 215 l 1039 281 l 996 367 l 988 386 l 960 456 l 951 475 l 921 543 l 913 563 l 882 629 l 874 649 l 849 719 l 840 739 l 810 807 l 801 826 l 767 892 l 758 913 l 739 967 l 732 985 l 717 996 l 693 1000 l 629 1001 l 521 1001 l 457 999 l 436 994 l 422 986 l 415 971 l 390 914 l 382 893 l 356 829 l 346 807 l 315 744 l 306 722 l 267 639 l 217 525 l 208 506 l 171 428 l 163 407 l 131 332 l 122 311 l 86 233 l 78 214 l 43 136 l 35 115 l 15 72 l 7 50 l 4 39 l 3 21 l 14 6 l 31 -3 l 49 -1 l 135 4 l 157 4 l 238 0 l 260 -1 l 281 7 l 296 25 l 304 47 l 336 142 l 344 158 l 356 165 l 374 168 l 438 168 l 458 169 l 479 169 l 563 168 l 667 165 l 689 165 l 772 160 l 789 158 l 801 156 l 811 142 l 854 25 l 858 8 l 864 -7 l 856 -12 l 840 -25 l 825 -40 l 794 -76 l 790 -86 l 781 -106 l 772 -126 l 771 -137 l 768 -157 l 768 -167 l 769 -187 l 775 -208 l 778 -221 l 788 -242 l 793 -250 l 806 -268 l 822 -285 l 856 -306 l 881 -315 l 904 -322 l 926 -326 l 950 -329 l 974 -331 l 994 -329 l 1026 -328 l 1047 -325 l 1068 -321 l 1088 -315 l 1096 -314 l 1115 -308 l 1124 -304 l 1143 -297 l 1158 -290 l 1171 -283 l 1181 -276 l 1182 -269 z m 679 417 l 668 406 l 650 400 l 585 404 l 497 404 l 478 407 l 463 414 l 458 431 l 463 451 l 499 544 l 507 565 l 544 660 l 558 674 l 574 678 l 592 674 l 606 664 l 613 646 l 640 564 l 647 543 l 678 449 l 683 431 z "},"Å":{"ha":1242,"x_min":0,"x_max":0,"o":"m 1119 108 l 1082 196 l 1072 215 l 1039 281 l 996 367 l 988 386 l 960 456 l 951 475 l 921 543 l 913 563 l 882 629 l 874 649 l 849 719 l 840 739 l 810 807 l 801 826 l 767 892 l 758 911 l 756 922 l 756 936 l 767 949 l 778 968 l 788 989 l 793 1011 l 796 1021 l 797 1043 l 799 1053 l 797 1076 l 797 1089 l 793 1114 l 789 1125 l 781 1149 l 776 1158 l 764 1178 l 758 1186 l 743 1201 l 728 1214 l 713 1225 l 697 1235 l 676 1244 l 647 1254 l 626 1260 l 617 1261 l 593 1265 l 571 1265 l 551 1264 l 532 1260 l 501 1253 l 481 1246 l 460 1235 l 440 1222 l 432 1217 l 418 1204 l 413 1197 l 399 1179 l 383 1157 l 372 1135 l 369 1124 l 363 1103 l 358 1082 l 358 1044 l 363 1025 l 365 1014 l 374 992 l 383 969 l 396 950 l 399 932 l 390 914 l 382 893 l 356 829 l 346 807 l 315 744 l 306 722 l 267 639 l 217 525 l 208 506 l 171 428 l 163 407 l 131 332 l 122 311 l 86 233 l 78 214 l 43 136 l 35 115 l 15 72 l 7 50 l 4 39 l 3 21 l 14 6 l 31 -3 l 49 -1 l 135 4 l 157 4 l 238 0 l 260 -1 l 281 7 l 296 25 l 304 47 l 336 142 l 344 158 l 356 165 l 374 168 l 438 168 l 458 169 l 479 169 l 563 168 l 667 165 l 689 165 l 772 160 l 789 158 l 801 156 l 811 142 l 854 25 l 861 10 l 869 -1 l 888 -7 l 974 -1 l 1036 -1 l 1057 -3 l 1089 -6 l 1108 -6 l 1126 -3 l 1142 4 l 1151 19 l 1147 39 z m 518 1075 l 525 1096 l 539 1111 l 556 1121 l 571 1124 l 589 1124 l 604 1121 l 617 1114 l 628 1104 l 636 1090 l 640 1074 l 640 1054 l 636 1039 l 628 1026 l 618 1017 l 610 1011 l 592 1007 l 574 1006 l 560 1007 l 544 1014 l 532 1025 l 522 1039 l 517 1056 z m 679 417 l 668 406 l 650 400 l 585 404 l 497 404 l 478 407 l 463 414 l 458 431 l 463 451 l 499 544 l 507 565 l 544 660 l 558 674 l 574 678 l 592 674 l 606 664 l 613 646 l 640 564 l 647 543 l 678 449 l 683 431 z "},"Ã":{"ha":1242,"x_min":0,"x_max":0,"o":"m 876 1271 l 871 1278 l 767 1350 l 753 1358 l 744 1358 l 732 1349 l 726 1340 l 708 1326 l 688 1317 l 676 1315 l 657 1314 l 649 1314 l 629 1318 l 596 1331 l 574 1340 l 564 1346 l 531 1358 l 508 1364 l 500 1365 l 481 1367 l 460 1367 l 439 1365 l 429 1364 l 410 1360 l 401 1358 l 382 1351 l 371 1346 l 353 1336 l 336 1326 l 318 1313 l 301 1296 l 296 1288 l 283 1269 l 276 1261 l 267 1243 l 258 1226 l 257 1215 l 263 1208 l 374 1138 l 389 1129 l 399 1128 l 410 1138 l 417 1147 l 433 1164 l 454 1176 l 472 1182 l 492 1182 l 503 1181 l 536 1172 l 569 1157 l 581 1151 l 593 1147 l 615 1138 l 649 1129 l 671 1126 l 692 1125 l 713 1125 l 724 1126 l 743 1131 l 764 1138 l 785 1147 l 803 1158 l 810 1164 l 825 1176 l 839 1192 l 851 1211 l 863 1232 l 868 1242 l 875 1260 z m 1119 108 l 1082 196 l 1072 215 l 1039 281 l 996 367 l 988 386 l 960 456 l 951 475 l 921 543 l 913 563 l 882 629 l 874 649 l 849 719 l 840 739 l 810 807 l 801 826 l 767 892 l 758 913 l 739 967 l 732 985 l 717 996 l 693 1000 l 629 1001 l 521 1001 l 457 999 l 436 994 l 422 986 l 415 971 l 390 914 l 382 893 l 356 829 l 346 807 l 315 744 l 306 722 l 267 639 l 217 525 l 208 506 l 171 428 l 163 407 l 131 332 l 122 311 l 86 233 l 78 214 l 43 136 l 35 115 l 15 72 l 7 50 l 4 39 l 3 21 l 14 6 l 31 -3 l 49 -1 l 135 4 l 157 4 l 238 0 l 260 -1 l 281 7 l 296 25 l 304 47 l 336 142 l 344 158 l 356 165 l 374 168 l 438 168 l 458 169 l 479 169 l 563 168 l 667 165 l 689 165 l 772 160 l 789 158 l 801 156 l 811 142 l 854 25 l 861 10 l 869 -1 l 888 -7 l 974 -1 l 1036 -1 l 1057 -3 l 1089 -6 l 1108 -6 l 1126 -3 l 1142 4 l 1151 19 l 1147 39 z m 679 417 l 668 406 l 650 400 l 585 404 l 497 404 l 478 407 l 463 414 l 458 431 l 463 451 l 499 544 l 507 565 l 544 660 l 558 674 l 574 678 l 592 674 l 606 664 l 613 646 l 640 564 l 647 543 l 678 449 l 683 431 z "},"Æ":{"ha":1404,"x_min":0,"x_max":0,"o":"m 1304 113 l 1304 135 l 1301 192 l 1301 208 l 1297 217 l 1283 221 l 1272 221 l 1250 222 l 1215 219 l 1110 219 l 1043 222 l 953 222 l 938 224 l 929 228 l 926 233 l 925 247 l 922 293 l 922 315 l 926 367 l 929 382 l 935 389 l 946 394 l 963 397 l 1008 400 l 1032 399 l 1056 399 l 1128 401 l 1150 401 l 1186 399 l 1208 400 l 1221 401 l 1236 404 l 1244 406 l 1251 414 l 1256 429 l 1258 450 l 1260 472 l 1258 496 l 1260 519 l 1263 554 l 1263 576 l 1261 588 l 1257 604 l 1249 613 l 1238 615 l 1219 618 l 1207 619 l 1183 621 l 1150 619 l 1128 619 l 1056 622 l 1033 622 l 963 618 l 944 619 l 935 624 l 932 632 l 931 649 l 932 743 l 933 760 l 936 771 l 944 776 l 1064 776 l 1143 779 l 1165 779 l 1246 774 l 1263 775 l 1271 779 l 1278 789 l 1282 806 l 1283 817 l 1283 840 l 1282 875 l 1279 899 l 1274 968 l 1272 982 l 1269 992 l 1263 1000 l 1247 1003 l 1236 1004 l 1217 1004 l 1175 1000 l 1153 999 l 1081 1004 l 1058 1004 l 988 1003 l 894 1003 l 801 1001 l 707 999 l 642 1003 l 621 1003 l 613 1001 l 599 1000 l 592 994 l 582 979 l 526 893 l 483 824 l 472 804 l 435 733 l 422 714 l 376 649 l 364 629 l 321 560 l 310 540 l 274 468 l 261 449 l 215 383 l 203 364 l 161 294 l 150 275 l 110 206 l 99 186 l 61 114 l 50 94 l 6 26 l 0 13 l 4 4 l 17 -1 l 36 -1 l 72 -3 l 221 -4 l 242 -3 l 264 0 l 279 4 l 288 17 l 317 68 l 329 88 l 360 136 l 369 146 l 460 150 l 482 150 l 554 147 l 658 147 l 668 143 l 667 126 l 664 60 l 664 19 l 667 7 l 675 4 l 692 1 l 743 -3 l 765 -3 l 831 3 l 853 3 l 933 -1 l 956 -3 l 1063 -6 l 1085 -6 l 1194 -3 l 1217 -3 l 1276 1 l 1292 3 l 1300 7 l 1304 18 l 1303 35 l 1301 44 l 1301 65 z m 676 638 l 674 614 l 668 488 l 668 464 l 667 429 l 667 411 l 664 400 l 650 396 l 536 396 l 522 400 l 521 413 l 526 424 l 532 438 l 567 508 l 575 528 l 608 599 l 618 618 l 650 679 l 664 692 l 678 689 l 682 672 z "},"B":{"ha":1060,"x_min":0,"x_max":0,"o":"m 965 318 l 963 342 l 957 365 l 950 388 l 944 399 l 935 421 l 922 442 l 901 471 l 885 489 l 868 504 l 856 518 l 851 529 l 856 539 l 867 550 l 889 571 l 903 586 l 918 613 l 926 632 l 935 664 l 939 688 l 940 711 l 939 733 l 933 769 l 929 792 l 922 813 l 914 832 l 899 858 l 889 876 l 869 900 l 856 915 l 832 935 l 814 947 l 788 961 l 767 971 l 714 988 l 690 992 l 667 994 l 586 1000 l 564 1000 l 488 1001 l 465 1001 l 390 999 l 269 1006 l 118 1001 l 96 1000 l 76 997 l 63 989 l 57 971 l 57 939 l 61 897 l 63 875 l 68 801 l 67 779 l 63 706 l 61 683 l 63 610 l 63 588 l 65 514 l 65 492 l 60 418 l 60 357 l 58 322 l 58 301 l 60 282 l 61 261 l 63 226 l 64 204 l 60 131 l 60 107 l 58 96 l 58 74 l 57 53 l 58 33 l 61 18 l 68 11 l 79 7 l 99 4 l 121 1 l 174 0 l 194 0 l 271 3 l 293 3 l 371 -1 l 492 -1 l 568 1 l 590 1 l 624 4 l 646 6 l 678 10 l 740 22 l 761 29 l 783 36 l 804 46 l 824 56 l 842 67 l 876 92 l 892 107 l 914 133 l 926 151 l 940 178 l 949 197 l 958 226 l 963 247 l 965 283 l 967 306 z m 336 707 l 340 740 l 344 758 l 350 765 l 358 769 l 371 771 l 385 774 l 414 774 l 436 775 l 471 776 l 492 776 l 546 769 l 558 769 l 582 767 l 592 765 l 613 760 l 621 757 l 640 743 l 653 725 l 657 707 l 657 683 l 653 664 l 644 650 l 635 639 l 621 629 l 604 621 l 586 617 l 556 617 l 508 619 l 476 622 l 453 622 l 429 621 l 374 621 l 357 622 l 346 628 l 340 636 l 338 651 l 336 674 l 335 685 z m 639 231 l 617 226 l 569 224 l 374 219 l 356 222 l 346 228 l 340 236 l 338 251 l 338 279 l 340 303 l 340 333 l 339 356 l 339 379 l 340 396 l 344 403 l 357 407 l 382 411 l 403 413 l 485 413 l 508 414 l 571 417 l 590 415 l 600 413 l 621 406 l 643 393 l 661 375 l 669 365 l 681 346 l 685 326 l 686 307 l 685 299 l 681 276 l 671 256 l 665 247 l 654 238 z "},"C":{"ha":1021,"x_min":0,"x_max":0,"o":"m 957 135 l 950 147 l 943 154 l 931 171 l 893 214 l 879 231 l 857 258 l 843 274 l 838 282 l 822 296 l 807 306 l 794 308 l 786 306 l 772 296 l 754 282 l 728 265 l 710 256 l 689 246 l 667 236 l 632 224 l 611 217 l 600 214 l 581 210 l 549 210 l 515 211 l 493 215 l 463 224 l 442 232 l 414 246 l 396 258 l 369 281 l 354 297 l 333 328 l 322 349 l 313 372 l 306 393 l 299 425 l 297 446 l 296 481 l 296 503 l 299 544 l 301 565 l 306 589 l 313 611 l 321 632 l 331 651 l 340 669 l 353 689 l 369 707 l 379 715 l 399 729 l 426 743 l 444 750 l 465 758 l 496 768 l 518 774 l 549 776 l 571 776 l 606 774 l 626 769 l 657 761 l 676 754 l 707 740 l 725 731 l 751 711 l 767 703 l 776 700 l 786 701 l 796 706 l 808 717 l 815 724 l 831 740 l 854 768 l 869 783 l 885 796 l 900 810 l 915 825 l 928 840 l 936 851 l 938 863 l 935 874 l 925 883 l 917 890 l 901 901 l 858 932 l 822 957 l 803 968 l 772 986 l 753 994 l 704 1008 l 672 1014 l 653 1018 l 601 1025 l 571 1026 l 550 1028 l 519 1025 l 476 1022 l 453 1019 l 429 1015 l 382 1004 l 360 997 l 336 989 l 294 969 l 275 958 l 257 947 l 213 917 l 196 903 l 178 888 l 161 872 l 144 854 l 129 835 l 115 817 l 103 797 l 90 776 l 79 756 l 69 735 l 60 715 l 50 688 l 43 668 l 36 647 l 31 626 l 25 596 l 21 575 l 19 553 l 17 506 l 17 482 l 15 460 l 14 439 l 15 407 l 18 386 l 32 344 l 42 317 l 63 258 l 76 229 l 86 210 l 97 190 l 110 171 l 125 150 l 140 132 l 157 115 l 193 85 l 213 72 l 231 60 l 247 47 l 274 32 l 292 24 l 322 13 l 385 -4 l 406 -11 l 429 -17 l 453 -21 l 476 -24 l 500 -25 l 572 -25 l 607 -22 l 632 -21 l 681 -15 l 715 -8 l 739 -4 l 763 3 l 783 10 l 815 25 l 833 35 l 861 50 l 878 61 l 904 81 l 921 93 l 946 115 l 957 126 z "},"Ć":{"ha":1021,"x_min":0,"x_max":0,"o":"m 758 1339 l 744 1343 l 706 1346 l 675 1343 l 654 1343 l 589 1342 l 568 1342 l 536 1343 l 514 1343 l 503 1342 l 486 1342 l 479 1338 l 471 1324 l 438 1250 l 426 1231 l 385 1147 l 385 1143 l 386 1139 l 390 1138 l 403 1136 l 506 1136 l 574 1132 l 585 1133 l 601 1136 l 615 1143 l 628 1157 l 685 1226 l 699 1243 l 753 1315 l 761 1329 z m 957 135 l 950 147 l 943 154 l 931 171 l 893 214 l 879 231 l 857 258 l 843 274 l 838 282 l 822 296 l 807 306 l 794 308 l 786 306 l 772 296 l 754 282 l 728 265 l 710 256 l 689 246 l 667 236 l 632 224 l 611 217 l 600 214 l 581 210 l 549 210 l 515 211 l 493 215 l 463 224 l 442 232 l 414 246 l 396 258 l 369 281 l 354 297 l 333 328 l 322 349 l 313 372 l 306 393 l 299 425 l 297 446 l 296 481 l 296 503 l 299 544 l 301 565 l 306 589 l 313 611 l 321 632 l 331 651 l 340 669 l 353 689 l 369 707 l 379 715 l 399 729 l 426 743 l 444 750 l 465 758 l 496 768 l 518 774 l 549 776 l 571 776 l 606 774 l 626 769 l 657 761 l 676 754 l 707 740 l 725 731 l 751 711 l 767 703 l 776 700 l 786 701 l 796 706 l 808 717 l 815 724 l 831 740 l 854 768 l 869 783 l 885 796 l 900 810 l 915 825 l 928 840 l 936 851 l 938 863 l 935 874 l 925 883 l 917 890 l 901 901 l 858 932 l 822 957 l 803 968 l 772 986 l 753 994 l 704 1008 l 672 1014 l 653 1018 l 601 1025 l 571 1026 l 550 1028 l 519 1025 l 476 1022 l 453 1019 l 429 1015 l 382 1004 l 360 997 l 336 989 l 294 969 l 275 958 l 257 947 l 213 917 l 196 903 l 178 888 l 161 872 l 144 854 l 129 835 l 115 817 l 103 797 l 90 776 l 79 756 l 69 735 l 60 715 l 50 688 l 43 668 l 36 647 l 31 626 l 25 596 l 21 575 l 19 553 l 17 506 l 17 482 l 15 460 l 14 439 l 15 407 l 18 386 l 32 344 l 42 317 l 63 258 l 76 229 l 86 210 l 97 190 l 110 171 l 125 150 l 140 132 l 157 115 l 193 85 l 213 72 l 231 60 l 247 47 l 274 32 l 292 24 l 322 13 l 385 -4 l 406 -11 l 429 -17 l 453 -21 l 476 -24 l 500 -25 l 572 -25 l 607 -22 l 632 -21 l 681 -15 l 715 -8 l 739 -4 l 763 3 l 783 10 l 815 25 l 833 35 l 861 50 l 878 61 l 904 81 l 921 93 l 946 115 l 957 126 z "},"Č":{"ha":1021,"x_min":0,"x_max":0,"o":"m 817 1364 l 810 1372 l 794 1375 l 782 1375 l 760 1376 l 708 1372 l 686 1372 l 594 1374 l 586 1372 l 575 1364 l 511 1308 l 506 1308 l 494 1315 l 442 1361 l 432 1371 l 418 1374 l 311 1374 l 260 1378 l 238 1376 l 225 1374 l 211 1371 l 206 1364 l 207 1354 l 217 1339 l 232 1321 l 271 1288 l 288 1272 l 358 1201 l 390 1165 l 413 1143 l 424 1138 l 521 1138 l 581 1135 l 594 1138 l 606 1147 l 661 1201 l 678 1218 l 732 1274 l 749 1289 l 789 1319 l 803 1335 l 810 1342 l 817 1354 z m 957 135 l 950 147 l 943 154 l 931 171 l 893 214 l 879 231 l 857 258 l 843 274 l 838 282 l 822 296 l 807 306 l 794 308 l 786 306 l 772 296 l 754 282 l 728 265 l 710 256 l 689 246 l 667 236 l 632 224 l 611 217 l 600 214 l 581 210 l 549 210 l 515 211 l 493 215 l 463 224 l 442 232 l 414 246 l 396 258 l 369 281 l 354 297 l 333 328 l 322 349 l 313 372 l 306 393 l 299 425 l 297 446 l 296 481 l 296 503 l 299 544 l 301 565 l 306 589 l 313 611 l 321 632 l 331 651 l 340 669 l 353 689 l 369 707 l 379 715 l 399 729 l 426 743 l 444 750 l 465 758 l 496 768 l 518 774 l 549 776 l 571 776 l 606 774 l 626 769 l 657 761 l 676 754 l 707 740 l 725 731 l 751 711 l 767 703 l 776 700 l 786 701 l 796 706 l 808 717 l 815 724 l 831 740 l 854 768 l 869 783 l 885 796 l 900 810 l 915 825 l 928 840 l 936 851 l 938 863 l 935 874 l 925 883 l 917 890 l 901 901 l 858 932 l 822 957 l 803 968 l 772 986 l 753 994 l 704 1008 l 672 1014 l 653 1018 l 601 1025 l 571 1026 l 550 1028 l 519 1025 l 476 1022 l 453 1019 l 429 1015 l 382 1004 l 360 997 l 336 989 l 294 969 l 275 958 l 257 947 l 213 917 l 196 903 l 178 888 l 161 872 l 144 854 l 129 835 l 115 817 l 103 797 l 90 776 l 79 756 l 69 735 l 60 715 l 50 688 l 43 668 l 36 647 l 31 626 l 25 596 l 21 575 l 19 553 l 17 506 l 17 482 l 15 460 l 14 439 l 15 407 l 18 386 l 32 344 l 42 317 l 63 258 l 76 229 l 86 210 l 97 190 l 110 171 l 125 150 l 140 132 l 157 115 l 193 85 l 213 72 l 231 60 l 247 47 l 274 32 l 292 24 l 322 13 l 385 -4 l 406 -11 l 429 -17 l 453 -21 l 476 -24 l 500 -25 l 572 -25 l 607 -22 l 632 -21 l 681 -15 l 715 -8 l 739 -4 l 763 3 l 783 10 l 815 25 l 833 35 l 861 50 l 878 61 l 904 81 l 921 93 l 946 115 l 957 126 z "},"Ç":{"ha":1021,"x_min":0,"x_max":0,"o":"m 950 147 l 943 154 l 931 171 l 893 214 l 879 231 l 857 258 l 843 274 l 838 282 l 822 296 l 807 306 l 794 308 l 786 306 l 772 296 l 754 282 l 728 265 l 710 256 l 689 246 l 667 236 l 632 224 l 611 217 l 600 214 l 581 210 l 549 210 l 515 211 l 493 215 l 463 224 l 442 232 l 414 246 l 396 258 l 369 281 l 354 297 l 333 328 l 322 349 l 313 372 l 306 393 l 299 425 l 297 446 l 296 481 l 296 503 l 299 544 l 301 565 l 306 589 l 313 611 l 321 632 l 331 651 l 340 669 l 353 689 l 369 707 l 379 715 l 399 729 l 426 743 l 444 750 l 465 758 l 496 768 l 518 774 l 549 776 l 571 776 l 606 774 l 626 769 l 657 761 l 676 754 l 707 740 l 725 731 l 751 711 l 767 703 l 776 700 l 786 701 l 796 706 l 808 717 l 815 724 l 831 740 l 854 768 l 869 783 l 885 796 l 900 810 l 915 825 l 928 840 l 936 851 l 938 863 l 935 874 l 925 883 l 917 890 l 901 901 l 858 932 l 822 957 l 803 968 l 772 986 l 753 994 l 704 1008 l 672 1014 l 653 1018 l 601 1025 l 571 1026 l 550 1028 l 519 1025 l 476 1022 l 453 1019 l 429 1015 l 382 1004 l 360 997 l 336 989 l 294 969 l 275 958 l 257 947 l 213 917 l 196 903 l 178 888 l 161 872 l 144 854 l 129 835 l 115 817 l 103 797 l 90 776 l 79 756 l 69 735 l 60 715 l 50 688 l 43 668 l 36 647 l 31 626 l 25 596 l 21 575 l 19 553 l 17 506 l 17 482 l 15 460 l 14 439 l 15 407 l 18 386 l 32 344 l 42 317 l 63 258 l 76 229 l 86 210 l 97 190 l 110 171 l 125 150 l 140 132 l 157 115 l 193 85 l 213 72 l 231 60 l 247 47 l 274 32 l 292 24 l 322 13 l 385 -4 l 406 -11 l 429 -17 l 432 -17 l 426 -31 l 411 -58 l 403 -75 l 393 -93 l 389 -106 l 390 -117 l 397 -126 l 411 -137 l 428 -146 l 439 -149 l 454 -146 l 471 -142 l 490 -142 l 508 -146 l 529 -153 l 547 -162 l 558 -172 l 564 -189 l 563 -207 l 556 -217 l 544 -225 l 531 -232 l 513 -233 l 501 -235 l 481 -233 l 471 -231 l 450 -225 l 440 -219 l 407 -204 l 396 -206 l 386 -210 l 375 -219 l 319 -276 l 310 -289 l 310 -297 l 315 -308 l 340 -333 l 356 -346 l 372 -358 l 392 -369 l 411 -378 l 443 -387 l 464 -392 l 494 -396 l 517 -397 l 550 -397 l 571 -396 l 601 -390 l 621 -383 l 653 -369 l 672 -357 l 690 -342 l 707 -325 l 731 -300 l 743 -281 l 753 -260 l 760 -237 l 764 -226 l 768 -206 l 769 -194 l 769 -167 l 765 -149 l 754 -128 l 738 -110 l 721 -94 l 701 -79 l 682 -68 l 660 -58 l 638 -51 l 624 -49 l 613 -47 l 608 -35 l 611 -25 l 613 -22 l 632 -21 l 681 -15 l 715 -8 l 739 -4 l 763 3 l 783 10 l 815 25 l 833 35 l 861 50 l 878 61 l 904 81 l 921 93 l 946 115 l 957 126 l 957 135 z "},"Ċ":{"ha":1021,"x_min":0,"x_max":0,"o":"m 656 1269 l 653 1290 l 649 1310 l 644 1318 l 636 1338 l 624 1354 l 608 1367 l 600 1374 l 583 1382 l 574 1386 l 556 1392 l 546 1393 l 525 1397 l 503 1396 l 493 1396 l 472 1390 l 463 1388 l 442 1378 l 422 1364 l 404 1347 l 389 1326 l 379 1308 l 374 1290 l 371 1271 l 371 1250 l 374 1229 l 381 1208 l 392 1189 l 407 1172 l 422 1158 l 438 1147 l 454 1139 l 472 1133 l 492 1129 l 522 1129 l 543 1131 l 564 1136 l 581 1142 l 588 1146 l 592 1147 l 604 1156 l 621 1169 l 635 1186 l 644 1203 l 651 1224 l 656 1249 z m 957 135 l 950 147 l 943 154 l 931 171 l 893 214 l 879 231 l 857 258 l 843 274 l 838 282 l 822 296 l 807 306 l 794 308 l 786 306 l 772 296 l 754 282 l 728 265 l 710 256 l 689 246 l 667 236 l 632 224 l 611 217 l 600 214 l 581 210 l 549 210 l 515 211 l 493 215 l 463 224 l 442 232 l 414 246 l 396 258 l 369 281 l 354 297 l 333 328 l 322 349 l 313 372 l 306 393 l 299 425 l 297 446 l 296 481 l 296 503 l 299 544 l 301 565 l 306 589 l 313 611 l 321 632 l 331 651 l 340 669 l 353 689 l 369 707 l 379 715 l 399 729 l 426 743 l 444 750 l 465 758 l 496 768 l 518 774 l 549 776 l 571 776 l 606 774 l 626 769 l 657 761 l 676 754 l 707 740 l 725 731 l 751 711 l 767 703 l 776 700 l 786 701 l 796 706 l 808 717 l 815 724 l 831 740 l 854 768 l 869 783 l 885 796 l 900 810 l 915 825 l 928 840 l 936 851 l 938 863 l 935 874 l 925 883 l 917 890 l 901 901 l 858 932 l 822 957 l 803 968 l 772 986 l 753 994 l 704 1008 l 672 1014 l 653 1018 l 601 1025 l 571 1026 l 550 1028 l 519 1025 l 476 1022 l 453 1019 l 429 1015 l 382 1004 l 360 997 l 336 989 l 294 969 l 275 958 l 257 947 l 213 917 l 196 903 l 178 888 l 161 872 l 144 854 l 129 835 l 115 817 l 103 797 l 90 776 l 79 756 l 69 735 l 60 715 l 50 688 l 43 668 l 36 647 l 31 626 l 25 596 l 21 575 l 19 553 l 17 506 l 17 482 l 15 460 l 14 439 l 15 407 l 18 386 l 32 344 l 42 317 l 63 258 l 76 229 l 86 210 l 97 190 l 110 171 l 125 150 l 140 132 l 157 115 l 193 85 l 213 72 l 231 60 l 247 47 l 274 32 l 292 24 l 322 13 l 385 -4 l 406 -11 l 429 -17 l 453 -21 l 476 -24 l 500 -25 l 572 -25 l 607 -22 l 632 -21 l 681 -15 l 715 -8 l 739 -4 l 763 3 l 783 10 l 815 25 l 833 35 l 861 50 l 878 61 l 904 81 l 921 93 l 946 115 l 957 126 z "},"D":{"ha":1094,"x_min":0,"x_max":0,"o":"m 1014 499 l 1013 521 l 1011 554 l 1008 576 l 1004 600 l 1000 622 l 994 653 l 989 675 l 982 697 l 974 719 l 967 742 l 958 763 l 943 793 l 933 811 l 921 826 l 907 840 l 876 869 l 860 883 l 842 899 l 796 931 l 776 942 l 756 953 l 735 963 l 685 981 l 664 986 l 642 990 l 606 996 l 583 999 l 539 1001 l 504 1004 l 482 1004 l 461 1003 l 403 1000 l 378 1000 l 367 1001 l 300 1006 l 278 1006 l 156 1007 l 133 1006 l 113 1003 l 89 1000 l 74 996 l 68 988 l 65 972 l 61 951 l 60 929 l 60 875 l 64 801 l 64 779 l 65 706 l 65 683 l 60 610 l 61 586 l 61 574 l 63 550 l 65 514 l 65 492 l 64 468 l 61 447 l 60 417 l 58 396 l 61 322 l 61 300 l 63 226 l 63 204 l 61 182 l 61 161 l 60 129 l 60 110 l 57 68 l 56 57 l 57 35 l 60 19 l 67 13 l 78 7 l 138 1 l 158 0 l 256 0 l 276 -1 l 300 0 l 335 1 l 379 4 l 401 4 l 438 1 l 482 0 l 504 0 l 535 3 l 556 4 l 640 17 l 663 21 l 685 26 l 706 33 l 736 44 l 754 53 l 782 68 l 800 79 l 826 100 l 844 115 l 875 146 l 899 168 l 913 183 l 932 206 l 943 224 l 958 254 l 967 275 l 975 299 l 983 321 l 992 342 l 999 364 l 1008 396 l 1013 418 l 1014 451 l 1015 475 z m 682 329 l 668 313 l 643 290 l 625 278 l 604 268 l 582 260 l 558 253 l 536 249 l 504 247 l 375 239 l 358 240 l 350 247 l 344 263 l 340 296 l 339 317 l 340 349 l 340 368 l 343 399 l 344 421 l 346 444 l 346 511 l 347 542 l 347 564 l 346 586 l 343 608 l 340 639 l 339 661 l 336 703 l 338 724 l 339 736 l 343 753 l 350 760 l 365 764 l 396 768 l 417 769 l 447 768 l 482 768 l 506 767 l 540 765 l 563 761 l 582 757 l 601 749 l 632 731 l 649 718 l 664 703 l 678 688 l 685 681 l 706 651 l 717 631 l 719 622 l 725 601 l 729 569 l 731 547 l 731 503 l 729 471 l 728 451 l 722 421 l 717 400 l 708 376 l 699 356 z "},"Ð":{"ha":1156,"x_min":0,"x_max":0,"o":"m 1074 524 l 1072 557 l 1069 579 l 1061 624 l 1056 656 l 1050 678 l 1043 700 l 1035 722 l 1028 744 l 1019 765 l 1004 794 l 994 813 l 982 828 l 968 842 l 938 871 l 921 886 l 903 901 l 885 914 l 858 933 l 817 956 l 796 965 l 746 983 l 667 999 l 644 1001 l 600 1004 l 565 1006 l 543 1006 l 522 1004 l 464 1001 l 440 1001 l 428 1003 l 339 1008 l 258 1010 l 238 1010 l 175 1006 l 156 1003 l 142 1000 l 135 997 l 129 990 l 126 974 l 124 953 l 122 931 l 121 900 l 121 878 l 125 804 l 125 782 l 126 708 l 126 686 l 122 618 l 111 607 l 76 606 l 35 608 l 26 603 l 22 593 l 19 578 l 18 554 l 21 519 l 19 496 l 15 465 l 15 435 l 19 421 l 26 414 l 38 408 l 53 406 l 72 406 l 94 407 l 113 408 l 119 397 l 124 324 l 124 206 l 122 185 l 122 163 l 121 132 l 121 111 l 118 69 l 117 58 l 118 36 l 121 21 l 128 14 l 139 8 l 157 6 l 218 1 l 238 3 l 258 3 l 294 1 l 361 1 l 397 4 l 440 7 l 464 7 l 499 4 l 543 3 l 565 3 l 596 6 l 617 7 l 647 10 l 668 13 l 701 19 l 724 24 l 746 29 l 767 36 l 797 47 l 818 57 l 840 68 l 861 81 l 906 118 l 936 149 l 960 169 l 974 185 l 993 208 l 1004 226 l 1019 256 l 1028 276 l 1036 300 l 1053 344 l 1060 367 l 1069 399 l 1074 421 l 1075 453 l 1076 476 z m 743 329 l 729 313 l 704 292 l 685 279 l 664 268 l 642 260 l 619 253 l 597 249 l 436 239 l 419 240 l 411 247 l 407 258 l 404 274 l 401 296 l 400 318 l 401 349 l 404 393 l 415 404 l 438 404 l 508 401 l 549 404 l 565 407 l 576 413 l 581 421 l 582 436 l 585 447 l 585 471 l 583 494 l 583 515 l 586 546 l 586 567 l 585 578 l 582 593 l 575 600 l 564 604 l 547 606 l 485 610 l 463 610 l 406 611 l 403 621 l 401 640 l 397 703 l 399 724 l 400 736 l 404 753 l 411 761 l 422 765 l 436 767 l 478 769 l 542 769 l 604 765 l 624 763 l 643 758 l 663 750 l 693 732 l 710 719 l 725 704 l 739 689 l 746 682 l 767 653 l 778 632 l 781 622 l 786 601 l 790 569 l 792 547 l 792 504 l 790 472 l 789 453 l 783 422 l 779 403 l 768 375 l 760 356 z "},"Ď":{"ha":1094,"x_min":0,"x_max":0,"o":"m 761 1364 l 754 1372 l 739 1375 l 726 1375 l 704 1376 l 653 1372 l 631 1372 l 539 1374 l 531 1372 l 519 1364 l 456 1308 l 450 1308 l 439 1315 l 386 1361 l 376 1371 l 363 1374 l 256 1374 l 204 1378 l 182 1376 l 169 1374 l 156 1371 l 150 1364 l 151 1354 l 161 1339 l 176 1321 l 215 1288 l 232 1272 l 303 1201 l 335 1165 l 357 1143 l 368 1138 l 465 1138 l 525 1135 l 539 1138 l 550 1147 l 606 1201 l 622 1218 l 676 1274 l 693 1289 l 733 1319 l 747 1335 l 754 1342 l 761 1354 z m 1014 499 l 1013 521 l 1011 554 l 1008 576 l 1004 600 l 1000 622 l 994 653 l 989 675 l 982 697 l 974 719 l 967 742 l 958 763 l 943 793 l 933 811 l 921 826 l 907 840 l 876 869 l 860 883 l 842 899 l 796 931 l 776 942 l 756 953 l 735 963 l 685 981 l 664 986 l 642 990 l 606 996 l 583 999 l 539 1001 l 504 1004 l 482 1004 l 461 1003 l 403 1000 l 378 1000 l 367 1001 l 300 1006 l 278 1006 l 156 1007 l 133 1006 l 113 1003 l 89 1000 l 74 996 l 68 988 l 65 972 l 61 951 l 60 929 l 60 875 l 64 801 l 64 779 l 65 706 l 65 683 l 60 610 l 61 586 l 61 574 l 63 550 l 65 514 l 65 492 l 64 468 l 61 447 l 60 417 l 58 396 l 61 322 l 61 300 l 63 226 l 63 204 l 61 182 l 61 161 l 60 129 l 60 110 l 57 68 l 56 57 l 57 35 l 60 19 l 67 13 l 78 7 l 138 1 l 158 0 l 256 0 l 276 -1 l 300 0 l 335 1 l 379 4 l 401 4 l 438 1 l 482 0 l 504 0 l 535 3 l 556 4 l 640 17 l 663 21 l 685 26 l 706 33 l 736 44 l 754 53 l 782 68 l 800 79 l 826 100 l 844 115 l 875 146 l 899 168 l 913 183 l 932 206 l 943 224 l 958 254 l 967 275 l 975 299 l 983 321 l 992 342 l 999 364 l 1008 396 l 1013 418 l 1014 451 l 1015 475 z m 682 329 l 668 313 l 643 290 l 625 278 l 604 268 l 582 260 l 558 253 l 536 249 l 504 247 l 375 239 l 358 240 l 350 247 l 344 263 l 340 296 l 339 317 l 340 349 l 340 368 l 343 399 l 344 421 l 346 444 l 346 511 l 347 542 l 347 564 l 346 586 l 343 608 l 340 639 l 339 661 l 336 703 l 338 724 l 339 736 l 343 753 l 350 760 l 365 764 l 396 768 l 417 769 l 447 768 l 482 768 l 506 767 l 540 765 l 563 761 l 582 757 l 601 749 l 632 731 l 649 718 l 664 703 l 678 688 l 685 681 l 706 651 l 717 631 l 719 622 l 725 601 l 729 569 l 731 547 l 731 503 l 729 471 l 728 451 l 722 421 l 717 400 l 708 376 l 699 356 z "},"Đ":{"ha":1156,"x_min":0,"x_max":0,"o":"m 1074 524 l 1072 557 l 1069 579 l 1061 624 l 1056 656 l 1050 678 l 1043 700 l 1035 722 l 1028 744 l 1019 765 l 1004 794 l 994 813 l 982 828 l 968 842 l 938 871 l 921 886 l 903 901 l 885 914 l 858 933 l 817 956 l 796 965 l 746 983 l 667 999 l 644 1001 l 600 1004 l 565 1006 l 543 1006 l 522 1004 l 464 1001 l 440 1001 l 428 1003 l 339 1008 l 258 1010 l 238 1010 l 175 1006 l 156 1003 l 142 1000 l 135 997 l 129 990 l 126 974 l 124 953 l 122 931 l 121 900 l 121 878 l 125 804 l 125 782 l 126 708 l 126 686 l 122 618 l 111 607 l 76 606 l 35 608 l 26 603 l 22 593 l 19 578 l 18 554 l 21 519 l 19 496 l 15 465 l 15 435 l 19 421 l 26 414 l 38 408 l 53 406 l 72 406 l 94 407 l 113 408 l 119 397 l 124 324 l 124 206 l 122 185 l 122 163 l 121 132 l 121 111 l 118 69 l 117 58 l 118 36 l 121 21 l 128 14 l 139 8 l 157 6 l 218 1 l 238 3 l 258 3 l 294 1 l 361 1 l 397 4 l 440 7 l 464 7 l 499 4 l 543 3 l 565 3 l 596 6 l 617 7 l 647 10 l 668 13 l 701 19 l 724 24 l 746 29 l 767 36 l 797 47 l 818 57 l 840 68 l 861 81 l 906 118 l 936 149 l 960 169 l 974 185 l 993 208 l 1004 226 l 1019 256 l 1028 276 l 1036 300 l 1053 344 l 1060 367 l 1069 399 l 1074 421 l 1075 453 l 1076 476 z m 743 329 l 729 313 l 704 292 l 685 279 l 664 268 l 642 260 l 619 253 l 597 249 l 436 239 l 419 240 l 411 247 l 407 258 l 404 274 l 401 296 l 400 318 l 401 349 l 404 393 l 415 404 l 438 404 l 508 401 l 549 404 l 565 407 l 576 413 l 581 421 l 582 436 l 585 447 l 585 471 l 583 494 l 583 515 l 586 546 l 586 567 l 585 578 l 582 593 l 575 600 l 564 604 l 547 606 l 485 610 l 463 610 l 406 611 l 403 621 l 401 640 l 397 703 l 399 724 l 400 736 l 404 753 l 411 761 l 422 765 l 436 767 l 478 769 l 542 769 l 604 765 l 624 763 l 643 758 l 663 750 l 693 732 l 710 719 l 725 704 l 739 689 l 746 682 l 767 653 l 778 632 l 781 622 l 786 601 l 790 569 l 792 547 l 792 504 l 790 472 l 789 453 l 783 422 l 779 403 l 768 375 l 760 356 z "},"E":{"ha":971,"x_min":0,"x_max":0,"o":"m 861 207 l 860 222 l 854 231 l 846 235 l 796 240 l 775 242 l 754 242 l 656 236 l 633 236 l 535 242 l 460 236 l 438 236 l 361 239 l 346 240 l 340 246 l 336 256 l 335 269 l 335 300 l 336 322 l 340 357 l 342 378 l 346 388 l 353 392 l 369 393 l 393 394 l 449 390 l 471 390 l 560 388 l 671 394 l 693 393 l 756 386 l 783 386 l 797 389 l 807 396 l 813 406 l 815 422 l 818 464 l 815 496 l 815 542 l 814 565 l 811 589 l 810 604 l 806 613 l 797 619 l 782 622 l 739 625 l 583 617 l 451 617 l 407 614 l 363 617 l 347 621 l 342 628 l 339 638 l 338 653 l 336 676 l 336 699 l 339 732 l 342 747 l 343 756 l 350 763 l 364 765 l 375 767 l 396 767 l 458 763 l 531 760 l 553 760 l 624 763 l 646 763 l 776 760 l 799 761 l 810 761 l 826 764 l 833 769 l 839 779 l 842 796 l 843 817 l 842 838 l 840 872 l 840 896 l 843 931 l 843 968 l 840 986 l 838 996 l 829 1003 l 810 1007 l 775 1007 l 728 1003 l 704 1001 l 515 1004 l 493 1004 l 410 999 l 388 999 l 304 1004 l 282 1004 l 197 1003 l 107 1008 l 89 1006 l 78 1004 l 71 999 l 67 988 l 65 968 l 61 896 l 61 875 l 58 833 l 58 800 l 60 778 l 64 704 l 65 682 l 60 608 l 60 490 l 57 415 l 58 393 l 63 319 l 64 297 l 63 224 l 63 201 l 57 128 l 57 107 l 56 86 l 57 64 l 60 32 l 63 17 l 67 7 l 76 0 l 93 -3 l 140 -6 l 260 1 l 282 1 l 354 -4 l 450 -4 l 472 -3 l 544 3 l 567 4 l 640 -1 l 663 -1 l 844 4 l 851 10 l 857 19 l 858 33 l 864 108 l 865 131 z "},"É":{"ha":971,"x_min":0,"x_max":0,"o":"m 669 1339 l 656 1343 l 617 1346 l 586 1343 l 565 1343 l 500 1342 l 479 1342 l 447 1343 l 425 1343 l 414 1342 l 397 1342 l 390 1338 l 382 1324 l 349 1250 l 338 1231 l 296 1147 l 296 1143 l 297 1139 l 301 1138 l 314 1136 l 417 1136 l 485 1132 l 496 1133 l 513 1136 l 526 1143 l 539 1157 l 596 1226 l 610 1243 l 664 1315 l 672 1329 z m 861 207 l 860 222 l 854 231 l 846 235 l 796 240 l 775 242 l 754 242 l 656 236 l 633 236 l 535 242 l 460 236 l 438 236 l 361 239 l 346 240 l 340 246 l 336 256 l 335 269 l 335 300 l 336 322 l 340 357 l 342 378 l 346 388 l 353 392 l 369 393 l 393 394 l 449 390 l 471 390 l 560 388 l 671 394 l 693 393 l 756 386 l 783 386 l 797 389 l 807 396 l 813 406 l 815 422 l 818 464 l 815 496 l 815 542 l 814 565 l 811 589 l 810 604 l 806 613 l 797 619 l 782 622 l 739 625 l 583 617 l 451 617 l 407 614 l 363 617 l 347 621 l 342 628 l 339 638 l 338 653 l 336 676 l 336 699 l 339 732 l 342 747 l 343 756 l 350 763 l 364 765 l 375 767 l 396 767 l 458 763 l 531 760 l 553 760 l 624 763 l 646 763 l 776 760 l 799 761 l 810 761 l 826 764 l 833 769 l 839 779 l 842 796 l 843 817 l 842 838 l 840 872 l 840 896 l 843 931 l 843 968 l 840 986 l 838 996 l 829 1003 l 810 1007 l 775 1007 l 728 1003 l 704 1001 l 515 1004 l 493 1004 l 410 999 l 388 999 l 304 1004 l 282 1004 l 197 1003 l 107 1008 l 89 1006 l 78 1004 l 71 999 l 67 988 l 65 968 l 61 896 l 61 875 l 58 833 l 58 800 l 60 778 l 64 704 l 65 682 l 60 608 l 60 490 l 57 415 l 58 393 l 63 319 l 64 297 l 63 224 l 63 201 l 57 128 l 57 107 l 56 86 l 57 64 l 60 32 l 63 17 l 67 7 l 76 0 l 93 -3 l 140 -6 l 260 1 l 282 1 l 354 -4 l 450 -4 l 472 -3 l 544 3 l 567 4 l 640 -1 l 663 -1 l 844 4 l 851 10 l 857 19 l 858 33 l 864 108 l 865 131 z "},"Ě":{"ha":971,"x_min":0,"x_max":0,"o":"m 728 1364 l 721 1372 l 706 1375 l 693 1375 l 671 1376 l 619 1372 l 597 1372 l 506 1374 l 497 1372 l 486 1364 l 422 1308 l 417 1308 l 406 1315 l 353 1361 l 343 1371 l 329 1374 l 222 1374 l 171 1378 l 149 1376 l 136 1374 l 122 1371 l 117 1364 l 118 1354 l 128 1339 l 143 1321 l 182 1288 l 199 1272 l 269 1201 l 301 1165 l 324 1143 l 335 1138 l 432 1138 l 492 1135 l 506 1138 l 517 1147 l 572 1201 l 589 1218 l 643 1274 l 660 1289 l 700 1319 l 714 1335 l 721 1342 l 728 1354 z m 861 207 l 860 222 l 854 231 l 846 235 l 796 240 l 775 242 l 754 242 l 656 236 l 633 236 l 535 242 l 460 236 l 438 236 l 361 239 l 346 240 l 340 246 l 336 256 l 335 269 l 335 300 l 336 322 l 340 357 l 342 378 l 346 388 l 353 392 l 369 393 l 393 394 l 449 390 l 471 390 l 560 388 l 671 394 l 693 393 l 756 386 l 783 386 l 797 389 l 807 396 l 813 406 l 815 422 l 818 464 l 815 496 l 815 542 l 814 565 l 811 589 l 810 604 l 806 613 l 797 619 l 782 622 l 739 625 l 583 617 l 451 617 l 407 614 l 363 617 l 347 621 l 342 628 l 339 638 l 338 653 l 336 676 l 336 699 l 339 732 l 342 747 l 343 756 l 350 763 l 364 765 l 375 767 l 396 767 l 458 763 l 531 760 l 553 760 l 624 763 l 646 763 l 776 760 l 799 761 l 810 761 l 826 764 l 833 769 l 839 779 l 842 796 l 843 817 l 842 838 l 840 872 l 840 896 l 843 931 l 843 968 l 840 986 l 838 996 l 829 1003 l 810 1007 l 775 1007 l 728 1003 l 704 1001 l 515 1004 l 493 1004 l 410 999 l 388 999 l 304 1004 l 282 1004 l 197 1003 l 107 1008 l 89 1006 l 78 1004 l 71 999 l 67 988 l 65 968 l 61 896 l 61 875 l 58 833 l 58 800 l 60 778 l 64 704 l 65 682 l 60 608 l 60 490 l 57 415 l 58 393 l 63 319 l 64 297 l 63 224 l 63 201 l 57 128 l 57 107 l 56 86 l 57 64 l 60 32 l 63 17 l 67 7 l 76 0 l 93 -3 l 140 -6 l 260 1 l 282 1 l 354 -4 l 450 -4 l 472 -3 l 544 3 l 567 4 l 640 -1 l 663 -1 l 844 4 l 851 10 l 857 19 l 858 33 l 864 108 l 865 131 z "},"Ê":{"ha":971,"x_min":0,"x_max":0,"o":"m 746 1160 l 738 1171 l 686 1224 l 671 1239 l 614 1289 l 546 1357 l 536 1368 l 528 1374 l 519 1376 l 504 1376 l 451 1381 l 431 1381 l 386 1378 l 368 1376 l 357 1374 l 349 1368 l 336 1357 l 326 1349 l 311 1335 l 282 1304 l 267 1289 l 213 1238 l 197 1224 l 167 1193 l 151 1176 l 146 1168 l 138 1158 l 136 1150 l 140 1142 l 153 1139 l 172 1138 l 193 1138 l 240 1142 l 263 1143 l 364 1143 l 369 1144 l 381 1154 l 429 1194 l 440 1203 l 443 1203 l 454 1194 l 508 1150 l 519 1142 l 533 1139 l 640 1139 l 686 1136 l 707 1136 l 728 1138 l 742 1142 l 747 1151 z m 861 207 l 860 222 l 854 231 l 846 235 l 796 240 l 775 242 l 754 242 l 656 236 l 633 236 l 535 242 l 460 236 l 438 236 l 361 239 l 346 240 l 340 246 l 336 256 l 335 269 l 335 300 l 336 322 l 340 357 l 342 378 l 346 388 l 353 392 l 369 393 l 393 394 l 449 390 l 471 390 l 560 388 l 671 394 l 693 393 l 756 386 l 783 386 l 797 389 l 807 396 l 813 406 l 815 422 l 818 464 l 815 496 l 815 542 l 814 565 l 811 589 l 810 604 l 806 613 l 797 619 l 782 622 l 739 625 l 583 617 l 451 617 l 407 614 l 363 617 l 347 621 l 342 628 l 339 638 l 338 653 l 336 676 l 336 699 l 339 732 l 342 747 l 343 756 l 350 763 l 364 765 l 375 767 l 396 767 l 458 763 l 531 760 l 553 760 l 624 763 l 646 763 l 776 760 l 799 761 l 810 761 l 826 764 l 833 769 l 839 779 l 842 796 l 843 817 l 842 838 l 840 872 l 840 896 l 843 931 l 843 968 l 840 986 l 838 996 l 829 1003 l 810 1007 l 775 1007 l 728 1003 l 704 1001 l 515 1004 l 493 1004 l 410 999 l 388 999 l 304 1004 l 282 1004 l 197 1003 l 107 1008 l 89 1006 l 78 1004 l 71 999 l 67 988 l 65 968 l 61 896 l 61 875 l 58 833 l 58 800 l 60 778 l 64 704 l 65 682 l 60 608 l 60 490 l 57 415 l 58 393 l 63 319 l 64 297 l 63 224 l 63 201 l 57 128 l 57 107 l 56 86 l 57 64 l 60 32 l 63 17 l 67 7 l 76 0 l 93 -3 l 140 -6 l 260 1 l 282 1 l 354 -4 l 450 -4 l 472 -3 l 544 3 l 567 4 l 640 -1 l 663 -1 l 844 4 l 851 10 l 857 19 l 858 33 l 864 108 l 865 131 z "},"Ë":{"ha":971,"x_min":0,"x_max":0,"o":"m 360 1236 l 358 1256 l 351 1279 l 342 1301 l 331 1317 l 315 1329 l 307 1335 l 288 1346 l 265 1351 l 257 1354 l 236 1357 l 215 1356 l 207 1356 l 186 1351 l 176 1347 l 156 1339 l 138 1326 l 121 1310 l 106 1290 l 97 1272 l 93 1257 l 90 1238 l 90 1217 l 93 1197 l 99 1179 l 110 1161 l 124 1144 l 138 1131 l 153 1121 l 169 1113 l 188 1107 l 206 1103 l 238 1103 l 250 1104 l 274 1110 l 293 1118 l 311 1129 l 328 1142 l 339 1157 l 349 1174 l 356 1193 l 360 1215 z m 783 1236 l 782 1256 l 775 1279 l 765 1301 l 754 1317 l 739 1329 l 731 1335 l 711 1346 l 689 1351 l 681 1354 l 660 1357 l 639 1356 l 631 1356 l 610 1351 l 600 1347 l 579 1339 l 561 1326 l 544 1310 l 529 1290 l 521 1272 l 517 1257 l 514 1238 l 514 1217 l 517 1197 l 522 1179 l 533 1161 l 547 1144 l 561 1131 l 575 1121 l 593 1113 l 611 1107 l 629 1103 l 661 1103 l 674 1104 l 697 1110 l 717 1118 l 735 1129 l 751 1142 l 763 1157 l 772 1174 l 779 1193 l 783 1215 z m 861 207 l 860 222 l 854 231 l 846 235 l 796 240 l 775 242 l 754 242 l 656 236 l 633 236 l 535 242 l 460 236 l 438 236 l 361 239 l 346 240 l 340 246 l 336 256 l 335 269 l 335 300 l 336 322 l 340 357 l 342 378 l 346 388 l 353 392 l 369 393 l 393 394 l 449 390 l 471 390 l 560 388 l 671 394 l 693 393 l 756 386 l 783 386 l 797 389 l 807 396 l 813 406 l 815 422 l 818 464 l 815 496 l 815 542 l 814 565 l 811 589 l 810 604 l 806 613 l 797 619 l 782 622 l 739 625 l 583 617 l 451 617 l 407 614 l 363 617 l 347 621 l 342 628 l 339 638 l 338 653 l 336 676 l 336 699 l 339 732 l 342 747 l 343 756 l 350 763 l 364 765 l 375 767 l 396 767 l 458 763 l 531 760 l 553 760 l 624 763 l 646 763 l 776 760 l 799 761 l 810 761 l 826 764 l 833 769 l 839 779 l 842 796 l 843 817 l 842 838 l 840 872 l 840 896 l 843 931 l 843 968 l 840 986 l 838 996 l 829 1003 l 810 1007 l 775 1007 l 728 1003 l 704 1001 l 515 1004 l 493 1004 l 410 999 l 388 999 l 304 1004 l 282 1004 l 197 1003 l 107 1008 l 89 1006 l 78 1004 l 71 999 l 67 988 l 65 968 l 61 896 l 61 875 l 58 833 l 58 800 l 60 778 l 64 704 l 65 682 l 60 608 l 60 490 l 57 415 l 58 393 l 63 319 l 64 297 l 63 224 l 63 201 l 57 128 l 57 107 l 56 86 l 57 64 l 60 32 l 63 17 l 67 7 l 76 0 l 93 -3 l 140 -6 l 260 1 l 282 1 l 354 -4 l 450 -4 l 472 -3 l 544 3 l 567 4 l 640 -1 l 663 -1 l 844 4 l 851 10 l 857 19 l 858 33 l 864 108 l 865 131 z "},"Ė":{"ha":971,"x_min":0,"x_max":0,"o":"m 567 1269 l 564 1290 l 560 1310 l 556 1318 l 547 1338 l 535 1354 l 519 1367 l 511 1374 l 494 1382 l 485 1386 l 467 1392 l 457 1393 l 436 1397 l 414 1396 l 404 1396 l 383 1390 l 374 1388 l 353 1378 l 333 1364 l 315 1347 l 300 1326 l 290 1308 l 285 1290 l 282 1271 l 282 1250 l 285 1229 l 292 1208 l 303 1189 l 318 1172 l 333 1158 l 349 1147 l 365 1139 l 383 1133 l 403 1129 l 433 1129 l 454 1131 l 475 1136 l 492 1142 l 499 1146 l 503 1147 l 515 1156 l 532 1169 l 546 1186 l 556 1203 l 563 1224 l 567 1249 z m 861 207 l 860 222 l 854 231 l 846 235 l 796 240 l 775 242 l 754 242 l 656 236 l 633 236 l 535 242 l 460 236 l 438 236 l 361 239 l 346 240 l 340 246 l 336 256 l 335 269 l 335 300 l 336 322 l 340 357 l 342 378 l 346 388 l 353 392 l 369 393 l 393 394 l 449 390 l 471 390 l 560 388 l 671 394 l 693 393 l 756 386 l 783 386 l 797 389 l 807 396 l 813 406 l 815 422 l 818 464 l 815 496 l 815 542 l 814 565 l 811 589 l 810 604 l 806 613 l 797 619 l 782 622 l 739 625 l 583 617 l 451 617 l 407 614 l 363 617 l 347 621 l 342 628 l 339 638 l 338 653 l 336 676 l 336 699 l 339 732 l 342 747 l 343 756 l 350 763 l 364 765 l 375 767 l 396 767 l 458 763 l 531 760 l 553 760 l 624 763 l 646 763 l 776 760 l 799 761 l 810 761 l 826 764 l 833 769 l 839 779 l 842 796 l 843 817 l 842 838 l 840 872 l 840 896 l 843 931 l 843 968 l 840 986 l 838 996 l 829 1003 l 810 1007 l 775 1007 l 728 1003 l 704 1001 l 515 1004 l 493 1004 l 410 999 l 388 999 l 304 1004 l 282 1004 l 197 1003 l 107 1008 l 89 1006 l 78 1004 l 71 999 l 67 988 l 65 968 l 61 896 l 61 875 l 58 833 l 58 800 l 60 778 l 64 704 l 65 682 l 60 608 l 60 490 l 57 415 l 58 393 l 63 319 l 64 297 l 63 224 l 63 201 l 57 128 l 57 107 l 56 86 l 57 64 l 60 32 l 63 17 l 67 7 l 76 0 l 93 -3 l 140 -6 l 260 1 l 282 1 l 354 -4 l 450 -4 l 472 -3 l 544 3 l 567 4 l 640 -1 l 663 -1 l 844 4 l 851 10 l 857 19 l 858 33 l 864 108 l 865 131 z "},"È":{"ha":971,"x_min":0,"x_max":0,"o":"m 540 1153 l 536 1172 l 526 1194 l 504 1233 l 494 1254 l 481 1286 l 471 1307 l 465 1318 l 456 1335 l 442 1343 l 424 1346 l 413 1346 l 392 1347 l 299 1342 l 233 1346 l 210 1346 l 197 1344 l 179 1340 l 174 1329 l 179 1311 l 185 1303 l 197 1285 l 235 1242 l 306 1157 l 317 1144 l 329 1139 l 347 1136 l 358 1135 l 381 1135 l 422 1138 l 485 1133 l 507 1133 l 517 1135 l 535 1140 z m 861 207 l 860 222 l 854 231 l 846 235 l 796 240 l 775 242 l 754 242 l 656 236 l 633 236 l 535 242 l 460 236 l 438 236 l 361 239 l 346 240 l 340 246 l 336 256 l 335 269 l 335 300 l 336 322 l 340 357 l 342 378 l 346 388 l 353 392 l 369 393 l 393 394 l 449 390 l 471 390 l 560 388 l 671 394 l 693 393 l 756 386 l 783 386 l 797 389 l 807 396 l 813 406 l 815 422 l 818 464 l 815 496 l 815 542 l 814 565 l 811 589 l 810 604 l 806 613 l 797 619 l 782 622 l 739 625 l 583 617 l 451 617 l 407 614 l 363 617 l 347 621 l 342 628 l 339 638 l 338 653 l 336 676 l 336 699 l 339 732 l 342 747 l 343 756 l 350 763 l 364 765 l 375 767 l 396 767 l 458 763 l 531 760 l 553 760 l 624 763 l 646 763 l 776 760 l 799 761 l 810 761 l 826 764 l 833 769 l 839 779 l 842 796 l 843 817 l 842 838 l 840 872 l 840 896 l 843 931 l 843 968 l 840 986 l 838 996 l 829 1003 l 810 1007 l 775 1007 l 728 1003 l 704 1001 l 515 1004 l 493 1004 l 410 999 l 388 999 l 304 1004 l 282 1004 l 197 1003 l 107 1008 l 89 1006 l 78 1004 l 71 999 l 67 988 l 65 968 l 61 896 l 61 875 l 58 833 l 58 800 l 60 778 l 64 704 l 65 682 l 60 608 l 60 490 l 57 415 l 58 393 l 63 319 l 64 297 l 63 224 l 63 201 l 57 128 l 57 107 l 56 86 l 57 64 l 60 32 l 63 17 l 67 7 l 76 0 l 93 -3 l 140 -6 l 260 1 l 282 1 l 354 -4 l 450 -4 l 472 -3 l 544 3 l 567 4 l 640 -1 l 663 -1 l 844 4 l 851 10 l 857 19 l 858 33 l 864 108 l 865 131 z "},"Ē":{"ha":971,"x_min":0,"x_max":0,"o":"m 692 1228 l 692 1249 l 696 1299 l 693 1313 l 692 1325 l 686 1335 l 676 1342 l 660 1344 l 649 1346 l 626 1346 l 560 1342 l 482 1344 l 383 1346 l 361 1346 l 283 1340 l 261 1340 l 183 1342 l 168 1342 l 160 1336 l 156 1326 l 153 1308 l 150 1296 l 150 1272 l 151 1249 l 151 1226 l 150 1203 l 150 1179 l 151 1168 l 154 1150 l 160 1139 l 168 1133 l 183 1131 l 193 1129 l 215 1129 l 283 1133 l 361 1135 l 383 1135 l 560 1132 l 582 1132 l 624 1129 l 646 1129 l 658 1131 l 676 1133 l 685 1139 l 692 1149 l 694 1165 l 696 1181 l 694 1196 z m 861 207 l 860 222 l 854 231 l 846 235 l 796 240 l 775 242 l 754 242 l 656 236 l 633 236 l 535 242 l 460 236 l 438 236 l 361 239 l 346 240 l 340 246 l 336 256 l 335 269 l 335 300 l 336 322 l 340 357 l 342 378 l 346 388 l 353 392 l 369 393 l 393 394 l 449 390 l 471 390 l 560 388 l 671 394 l 693 393 l 756 386 l 783 386 l 797 389 l 807 396 l 813 406 l 815 422 l 818 464 l 815 496 l 815 542 l 814 565 l 811 589 l 810 604 l 806 613 l 797 619 l 782 622 l 739 625 l 583 617 l 451 617 l 407 614 l 363 617 l 347 621 l 342 628 l 339 638 l 338 653 l 336 676 l 336 699 l 339 732 l 342 747 l 343 756 l 350 763 l 364 765 l 375 767 l 396 767 l 458 763 l 531 760 l 553 760 l 624 763 l 646 763 l 776 760 l 799 761 l 810 761 l 826 764 l 833 769 l 839 779 l 842 796 l 843 817 l 842 838 l 840 872 l 840 896 l 843 931 l 843 968 l 840 986 l 838 996 l 829 1003 l 810 1007 l 775 1007 l 728 1003 l 704 1001 l 515 1004 l 493 1004 l 410 999 l 388 999 l 304 1004 l 282 1004 l 197 1003 l 107 1008 l 89 1006 l 78 1004 l 71 999 l 67 988 l 65 968 l 61 896 l 61 875 l 58 833 l 58 800 l 60 778 l 64 704 l 65 682 l 60 608 l 60 490 l 57 415 l 58 393 l 63 319 l 64 297 l 63 224 l 63 201 l 57 128 l 57 107 l 56 86 l 57 64 l 60 32 l 63 17 l 67 7 l 76 0 l 93 -3 l 140 -6 l 260 1 l 282 1 l 354 -4 l 450 -4 l 472 -3 l 544 3 l 567 4 l 640 -1 l 663 -1 l 844 4 l 851 10 l 857 19 l 858 33 l 864 108 l 865 131 z "},"Ę":{"ha":971,"x_min":0,"x_max":0,"o":"m 869 -257 l 867 -246 l 863 -225 l 853 -203 l 838 -172 l 829 -157 l 825 -150 l 819 -146 l 813 -144 l 796 -149 l 764 -154 l 744 -154 l 722 -151 l 697 -143 l 678 -128 l 668 -110 l 665 -89 l 668 -79 l 675 -64 l 688 -51 l 708 -39 l 731 -28 l 743 -25 l 765 -18 l 799 -8 l 822 -3 l 835 0 l 836 3 l 840 3 l 851 10 l 857 19 l 858 33 l 864 108 l 865 131 l 861 207 l 860 222 l 854 231 l 846 235 l 796 240 l 775 242 l 754 242 l 656 236 l 633 236 l 535 242 l 460 236 l 438 236 l 361 239 l 346 240 l 340 246 l 336 256 l 335 269 l 335 300 l 336 322 l 340 357 l 342 378 l 346 388 l 353 392 l 369 393 l 393 394 l 449 390 l 471 390 l 560 388 l 671 394 l 693 393 l 756 386 l 783 386 l 797 389 l 807 396 l 813 406 l 815 422 l 818 464 l 815 496 l 815 542 l 814 565 l 811 589 l 810 604 l 806 613 l 797 619 l 782 622 l 739 625 l 583 617 l 451 617 l 407 614 l 363 617 l 347 621 l 342 628 l 339 638 l 338 653 l 336 676 l 336 699 l 339 732 l 342 747 l 343 756 l 350 763 l 364 765 l 375 767 l 396 767 l 458 763 l 531 760 l 553 760 l 624 763 l 646 763 l 776 760 l 799 761 l 810 761 l 826 764 l 833 769 l 839 779 l 842 796 l 843 817 l 842 838 l 840 872 l 840 896 l 843 931 l 843 968 l 840 986 l 838 996 l 829 1003 l 810 1007 l 775 1007 l 728 1003 l 704 1001 l 515 1004 l 493 1004 l 410 999 l 388 999 l 304 1004 l 282 1004 l 197 1003 l 107 1008 l 89 1006 l 78 1004 l 71 999 l 67 988 l 65 968 l 61 896 l 61 875 l 58 833 l 58 800 l 60 778 l 64 704 l 65 682 l 60 608 l 60 490 l 57 415 l 58 393 l 63 319 l 64 297 l 63 224 l 63 201 l 57 128 l 57 107 l 56 86 l 57 64 l 60 32 l 63 17 l 67 7 l 76 0 l 93 -3 l 140 -6 l 260 1 l 282 1 l 354 -4 l 450 -4 l 472 -3 l 544 3 l 567 4 l 569 4 l 561 -1 l 544 -14 l 529 -26 l 514 -42 l 483 -78 l 479 -87 l 469 -107 l 461 -128 l 460 -139 l 457 -158 l 457 -168 l 458 -189 l 464 -210 l 467 -222 l 476 -243 l 482 -251 l 494 -269 l 511 -286 l 544 -307 l 569 -317 l 593 -324 l 615 -328 l 639 -331 l 663 -332 l 683 -331 l 715 -329 l 736 -326 l 757 -322 l 776 -317 l 785 -315 l 804 -310 l 813 -306 l 832 -299 l 847 -292 l 860 -285 l 869 -278 l 871 -271 z "},"F":{"ha":935,"x_min":0,"x_max":0,"o":"m 825 872 l 825 894 l 828 936 l 828 957 l 826 969 l 825 985 l 819 993 l 811 997 l 796 999 l 772 1001 l 750 1003 l 715 1004 l 693 1004 l 611 1000 l 589 1000 l 507 1004 l 485 1003 l 403 999 l 381 999 l 300 1003 l 278 1003 l 196 999 l 174 999 l 121 1003 l 90 1003 l 76 1000 l 68 996 l 65 986 l 64 969 l 61 896 l 61 778 l 58 704 l 58 586 l 56 513 l 56 490 l 60 415 l 60 393 l 64 319 l 63 297 l 57 224 l 56 201 l 57 128 l 58 106 l 63 32 l 64 17 l 67 7 l 75 1 l 90 -1 l 132 -4 l 189 0 l 211 0 l 263 -1 l 285 0 l 308 3 l 324 6 l 332 10 l 336 18 l 338 35 l 339 58 l 340 81 l 339 111 l 339 133 l 344 211 l 344 233 l 346 313 l 346 331 l 351 339 l 365 343 l 385 346 l 406 347 l 556 344 l 578 344 l 661 347 l 683 346 l 735 339 l 768 339 l 785 343 l 792 349 l 796 360 l 799 376 l 800 399 l 801 419 l 800 451 l 800 472 l 803 514 l 801 535 l 800 546 l 797 563 l 792 574 l 783 581 l 768 583 l 735 583 l 682 579 l 661 578 l 556 578 l 472 581 l 450 579 l 403 575 l 367 575 l 350 579 l 343 585 l 342 593 l 340 608 l 343 732 l 344 751 l 350 761 l 364 765 l 394 765 l 457 761 l 615 767 l 706 767 l 728 765 l 769 760 l 799 760 l 814 764 l 822 771 l 826 781 l 828 796 l 829 817 l 828 839 z "},"G":{"ha":1111,"x_min":0,"x_max":0,"o":"m 1001 581 l 997 600 l 994 608 l 985 614 l 964 618 l 953 619 l 931 618 l 874 611 l 851 611 l 740 618 l 650 614 l 586 614 l 563 613 l 528 608 l 511 606 l 504 599 l 500 583 l 500 554 l 503 533 l 506 492 l 504 457 l 506 435 l 507 424 l 510 407 l 515 400 l 524 397 l 571 389 l 593 388 l 625 388 l 647 389 l 679 393 l 701 394 l 735 394 l 750 392 l 756 383 l 756 360 l 758 318 l 758 297 l 757 285 l 757 269 l 753 261 l 739 251 l 718 242 l 696 233 l 621 215 l 600 211 l 578 208 l 556 208 l 532 210 l 508 213 l 467 222 l 446 231 l 418 246 l 400 260 l 375 283 l 361 300 l 344 325 l 335 344 l 321 378 l 314 400 l 307 432 l 303 454 l 300 488 l 300 511 l 301 535 l 306 557 l 314 599 l 319 619 l 326 642 l 335 663 l 346 682 l 358 700 l 372 718 l 388 733 l 406 747 l 424 760 l 465 779 l 488 785 l 524 788 l 546 789 l 556 789 l 621 785 l 644 781 l 668 775 l 690 767 l 713 757 l 732 746 l 750 735 l 768 722 l 783 713 l 794 714 l 803 719 l 814 728 l 829 739 l 846 753 l 871 775 l 910 814 l 924 829 l 936 847 l 944 860 l 949 869 l 949 879 l 940 889 l 932 896 l 917 907 l 910 914 l 894 925 l 879 935 l 872 939 l 854 951 l 833 964 l 783 989 l 763 996 l 732 1006 l 711 1011 l 681 1017 l 661 1021 l 629 1025 l 608 1026 l 578 1029 l 556 1028 l 524 1025 l 503 1022 l 482 1018 l 442 1013 l 390 1004 l 368 999 l 344 992 l 321 982 l 300 969 l 254 943 l 238 932 l 221 919 l 203 906 l 167 875 l 150 860 l 135 843 l 119 825 l 107 808 l 89 783 l 79 764 l 69 740 l 60 718 l 53 697 l 46 675 l 39 651 l 32 629 l 26 606 l 22 582 l 19 571 l 15 508 l 15 488 l 17 467 l 19 444 l 25 414 l 28 392 l 32 368 l 36 346 l 43 322 l 50 300 l 60 279 l 69 257 l 104 194 l 117 175 l 132 154 l 146 138 l 168 115 l 183 101 l 200 89 l 217 75 l 235 63 l 251 50 l 279 35 l 297 25 l 325 15 l 346 8 l 367 3 l 415 -11 l 436 -17 l 458 -21 l 481 -24 l 513 -26 l 556 -29 l 576 -28 l 632 -21 l 653 -17 l 672 -14 l 704 -10 l 725 -6 l 747 -1 l 768 4 l 800 14 l 819 21 l 840 29 l 868 43 l 886 54 l 896 60 l 914 72 l 922 81 l 939 96 l 963 119 l 975 138 l 986 156 l 994 169 l 996 185 l 996 267 l 999 325 l 999 456 l 1004 546 l 1003 569 z "},"Ğ":{"ha":1111,"x_min":0,"x_max":0,"o":"m 778 1365 l 771 1369 l 763 1369 l 678 1372 l 657 1372 l 599 1371 l 586 1369 l 579 1365 l 576 1358 l 575 1351 l 572 1343 l 567 1332 l 558 1322 l 547 1315 l 531 1310 l 513 1310 l 501 1311 l 492 1314 l 482 1318 l 468 1332 l 463 1343 l 460 1356 l 457 1365 l 450 1371 l 442 1371 l 426 1372 l 404 1372 l 368 1369 l 346 1369 l 315 1372 l 294 1372 l 286 1371 l 272 1371 l 264 1368 l 258 1365 l 257 1353 l 258 1342 l 260 1321 l 268 1288 l 272 1275 l 282 1254 l 286 1244 l 307 1215 l 322 1199 l 329 1193 l 346 1179 l 356 1171 l 375 1158 l 386 1153 l 408 1143 l 432 1135 l 442 1133 l 464 1129 l 476 1129 l 499 1128 l 508 1126 l 531 1126 l 543 1128 l 567 1129 l 578 1129 l 604 1135 l 628 1142 l 640 1147 l 661 1158 l 672 1165 l 692 1181 l 710 1196 l 719 1204 l 735 1222 l 743 1232 l 756 1254 l 764 1275 l 771 1294 l 775 1314 l 778 1325 l 781 1349 z m 1001 581 l 997 600 l 994 608 l 985 614 l 964 618 l 953 619 l 931 618 l 874 611 l 851 611 l 740 618 l 650 614 l 586 614 l 563 613 l 528 608 l 511 606 l 504 599 l 500 583 l 500 554 l 503 533 l 506 492 l 504 457 l 506 435 l 507 424 l 510 407 l 515 400 l 524 397 l 571 389 l 593 388 l 625 388 l 647 389 l 679 393 l 701 394 l 735 394 l 750 392 l 756 383 l 756 360 l 758 318 l 758 297 l 757 285 l 757 269 l 753 261 l 739 251 l 718 242 l 696 233 l 621 215 l 600 211 l 578 208 l 556 208 l 532 210 l 508 213 l 467 222 l 446 231 l 418 246 l 400 260 l 375 283 l 361 300 l 344 325 l 335 344 l 321 378 l 314 400 l 307 432 l 303 454 l 300 488 l 300 511 l 301 535 l 306 557 l 314 599 l 319 619 l 326 642 l 335 663 l 346 682 l 358 700 l 372 718 l 388 733 l 406 747 l 424 760 l 465 779 l 488 785 l 524 788 l 546 789 l 556 789 l 621 785 l 644 781 l 668 775 l 690 767 l 713 757 l 732 746 l 750 735 l 768 722 l 783 713 l 794 714 l 803 719 l 814 728 l 829 739 l 846 753 l 871 775 l 910 814 l 924 829 l 936 847 l 944 860 l 949 869 l 949 879 l 940 889 l 932 896 l 917 907 l 910 914 l 894 925 l 879 935 l 872 939 l 854 951 l 833 964 l 783 989 l 763 996 l 732 1006 l 711 1011 l 681 1017 l 661 1021 l 629 1025 l 608 1026 l 578 1029 l 556 1028 l 524 1025 l 503 1022 l 482 1018 l 442 1013 l 390 1004 l 368 999 l 344 992 l 321 982 l 300 969 l 254 943 l 238 932 l 221 919 l 203 906 l 167 875 l 150 860 l 135 843 l 119 825 l 107 808 l 89 783 l 79 764 l 69 740 l 60 718 l 53 697 l 46 675 l 39 651 l 32 629 l 26 606 l 22 582 l 19 571 l 15 508 l 15 488 l 17 467 l 19 444 l 25 414 l 28 392 l 32 368 l 36 346 l 43 322 l 50 300 l 60 279 l 69 257 l 104 194 l 117 175 l 132 154 l 146 138 l 168 115 l 183 101 l 200 89 l 217 75 l 235 63 l 251 50 l 279 35 l 297 25 l 325 15 l 346 8 l 367 3 l 415 -11 l 436 -17 l 458 -21 l 481 -24 l 513 -26 l 556 -29 l 576 -28 l 632 -21 l 653 -17 l 672 -14 l 704 -10 l 725 -6 l 747 -1 l 768 4 l 800 14 l 819 21 l 840 29 l 868 43 l 886 54 l 896 60 l 914 72 l 922 81 l 939 96 l 963 119 l 975 138 l 986 156 l 994 169 l 996 185 l 996 267 l 999 325 l 999 456 l 1004 546 l 1003 569 z "},"Ģ":{"ha":1111,"x_min":0,"x_max":0,"o":"m 1001 581 l 997 600 l 994 608 l 985 614 l 964 618 l 953 619 l 931 618 l 874 611 l 851 611 l 740 618 l 650 614 l 586 614 l 563 613 l 528 608 l 511 606 l 504 599 l 500 583 l 500 554 l 503 533 l 506 492 l 504 457 l 506 435 l 507 424 l 510 407 l 515 400 l 524 397 l 571 389 l 593 388 l 625 388 l 647 389 l 679 393 l 701 394 l 735 394 l 750 392 l 756 383 l 756 360 l 758 318 l 758 297 l 757 285 l 757 269 l 753 261 l 739 251 l 718 242 l 696 233 l 621 215 l 600 211 l 578 208 l 556 208 l 532 210 l 508 213 l 467 222 l 446 231 l 418 246 l 400 260 l 375 283 l 361 300 l 344 325 l 335 344 l 321 378 l 314 400 l 307 432 l 303 454 l 300 488 l 300 511 l 301 535 l 306 557 l 314 599 l 319 619 l 326 642 l 335 663 l 346 682 l 358 700 l 372 718 l 388 733 l 406 747 l 424 760 l 465 779 l 488 785 l 524 788 l 546 789 l 556 789 l 621 785 l 644 781 l 668 775 l 690 767 l 713 757 l 732 746 l 750 735 l 768 722 l 783 713 l 794 714 l 803 719 l 814 728 l 829 739 l 846 753 l 871 775 l 910 814 l 924 829 l 936 847 l 944 860 l 949 869 l 949 879 l 940 889 l 932 896 l 917 907 l 910 914 l 894 925 l 879 935 l 872 939 l 854 951 l 833 964 l 783 989 l 763 996 l 732 1006 l 711 1011 l 681 1017 l 661 1021 l 629 1025 l 608 1026 l 578 1029 l 556 1028 l 524 1025 l 503 1022 l 482 1018 l 442 1013 l 390 1004 l 368 999 l 344 992 l 321 982 l 300 969 l 254 943 l 238 932 l 221 919 l 203 906 l 167 875 l 150 860 l 135 843 l 119 825 l 107 808 l 89 783 l 79 764 l 69 740 l 60 718 l 53 697 l 46 675 l 39 651 l 32 629 l 26 606 l 22 582 l 19 571 l 15 508 l 15 488 l 17 467 l 19 444 l 25 414 l 28 392 l 32 368 l 36 346 l 43 322 l 50 300 l 60 279 l 69 257 l 104 194 l 117 175 l 132 154 l 146 138 l 168 115 l 183 101 l 200 89 l 217 75 l 235 63 l 251 50 l 279 35 l 297 25 l 325 15 l 346 8 l 367 3 l 415 -11 l 436 -17 l 458 -21 l 481 -24 l 513 -26 l 556 -29 l 576 -28 l 632 -21 l 653 -17 l 672 -14 l 704 -10 l 725 -6 l 747 -1 l 768 4 l 800 14 l 819 21 l 840 29 l 868 43 l 886 54 l 896 60 l 914 72 l 922 81 l 939 96 l 963 119 l 975 138 l 986 156 l 994 169 l 996 185 l 996 267 l 999 325 l 999 456 l 1004 546 l 1003 569 z m 735 -225 l 729 -208 l 725 -200 l 714 -182 l 700 -167 l 683 -156 l 663 -143 l 644 -136 l 631 -132 l 611 -129 l 593 -128 l 576 -129 l 554 -135 l 531 -144 l 513 -154 l 499 -165 l 492 -174 l 479 -190 l 471 -212 l 467 -236 l 467 -258 l 469 -276 l 476 -293 l 481 -303 l 494 -319 l 511 -335 l 531 -346 l 546 -351 l 554 -356 l 558 -361 l 554 -374 l 535 -410 l 525 -429 l 519 -442 l 515 -457 l 519 -462 l 533 -465 l 643 -464 l 647 -462 l 654 -453 l 664 -435 l 672 -417 l 692 -367 l 700 -347 l 718 -306 l 726 -286 l 729 -275 l 735 -258 l 736 -242 z "},"Ġ":{"ha":1111,"x_min":0,"x_max":0,"o":"m 658 1269 l 656 1290 l 651 1310 l 647 1318 l 639 1338 l 626 1354 l 611 1367 l 603 1374 l 586 1382 l 576 1386 l 558 1392 l 549 1393 l 528 1397 l 506 1396 l 496 1396 l 475 1390 l 465 1388 l 444 1378 l 425 1364 l 407 1347 l 392 1326 l 382 1308 l 376 1290 l 374 1271 l 374 1250 l 376 1229 l 383 1208 l 394 1189 l 410 1172 l 425 1158 l 440 1147 l 457 1139 l 475 1133 l 494 1129 l 525 1129 l 546 1131 l 567 1136 l 583 1142 l 590 1146 l 594 1147 l 607 1156 l 624 1169 l 638 1186 l 647 1203 l 654 1224 l 658 1249 z m 1001 581 l 997 600 l 994 608 l 985 614 l 964 618 l 953 619 l 931 618 l 874 611 l 851 611 l 740 618 l 650 614 l 586 614 l 563 613 l 528 608 l 511 606 l 504 599 l 500 583 l 500 554 l 503 533 l 506 492 l 504 457 l 506 435 l 507 424 l 510 407 l 515 400 l 524 397 l 571 389 l 593 388 l 625 388 l 647 389 l 679 393 l 701 394 l 735 394 l 750 392 l 756 383 l 756 360 l 758 318 l 758 297 l 757 285 l 757 269 l 753 261 l 739 251 l 718 242 l 696 233 l 621 215 l 600 211 l 578 208 l 556 208 l 532 210 l 508 213 l 467 222 l 446 231 l 418 246 l 400 260 l 375 283 l 361 300 l 344 325 l 335 344 l 321 378 l 314 400 l 307 432 l 303 454 l 300 488 l 300 511 l 301 535 l 306 557 l 314 599 l 319 619 l 326 642 l 335 663 l 346 682 l 358 700 l 372 718 l 388 733 l 406 747 l 424 760 l 465 779 l 488 785 l 524 788 l 546 789 l 556 789 l 621 785 l 644 781 l 668 775 l 690 767 l 713 757 l 732 746 l 750 735 l 768 722 l 783 713 l 794 714 l 803 719 l 814 728 l 829 739 l 846 753 l 871 775 l 910 814 l 924 829 l 936 847 l 944 860 l 949 869 l 949 879 l 940 889 l 932 896 l 917 907 l 910 914 l 894 925 l 879 935 l 872 939 l 854 951 l 833 964 l 783 989 l 763 996 l 732 1006 l 711 1011 l 681 1017 l 661 1021 l 629 1025 l 608 1026 l 578 1029 l 556 1028 l 524 1025 l 503 1022 l 482 1018 l 442 1013 l 390 1004 l 368 999 l 344 992 l 321 982 l 300 969 l 254 943 l 238 932 l 221 919 l 203 906 l 167 875 l 150 860 l 135 843 l 119 825 l 107 808 l 89 783 l 79 764 l 69 740 l 60 718 l 53 697 l 46 675 l 39 651 l 32 629 l 26 606 l 22 582 l 19 571 l 15 508 l 15 488 l 17 467 l 19 444 l 25 414 l 28 392 l 32 368 l 36 346 l 43 322 l 50 300 l 60 279 l 69 257 l 104 194 l 117 175 l 132 154 l 146 138 l 168 115 l 183 101 l 200 89 l 217 75 l 235 63 l 251 50 l 279 35 l 297 25 l 325 15 l 346 8 l 367 3 l 415 -11 l 436 -17 l 458 -21 l 481 -24 l 513 -26 l 556 -29 l 576 -28 l 632 -21 l 653 -17 l 672 -14 l 704 -10 l 725 -6 l 747 -1 l 768 4 l 800 14 l 819 21 l 840 29 l 868 43 l 886 54 l 896 60 l 914 72 l 922 81 l 939 96 l 963 119 l 975 138 l 986 156 l 994 169 l 996 185 l 996 267 l 999 325 l 999 456 l 1004 546 l 1003 569 z "},"H":{"ha":1125,"x_min":0,"x_max":0,"o":"m 983 224 l 985 297 l 985 319 l 983 393 l 983 415 l 986 489 l 986 511 l 992 585 l 992 607 l 986 681 l 986 703 l 989 776 l 989 799 l 985 872 l 986 894 l 990 950 l 990 971 l 985 990 l 974 1001 l 956 1004 l 943 1004 l 921 1006 l 858 1001 l 836 1001 l 761 1006 l 739 1006 l 722 1003 l 711 990 l 707 968 l 708 878 l 708 856 l 711 765 l 711 743 l 706 653 l 704 638 l 699 626 l 683 618 l 674 617 l 653 617 l 571 622 l 482 625 l 461 624 l 408 615 l 389 615 l 369 617 l 356 618 l 349 624 l 344 635 l 343 651 l 343 765 l 344 856 l 346 878 l 350 940 l 350 961 l 349 971 l 343 989 l 332 1000 l 314 1003 l 293 1004 l 271 1004 l 215 1000 l 193 1000 l 135 1003 l 114 1003 l 93 1001 l 75 997 l 63 988 l 57 971 l 57 942 l 64 894 l 65 872 l 67 799 l 65 776 l 61 703 l 60 681 l 60 585 l 61 511 l 61 489 l 65 415 l 65 393 l 64 319 l 64 297 l 61 224 l 61 107 l 58 65 l 58 43 l 60 31 l 63 15 l 68 8 l 79 3 l 94 0 l 106 0 l 128 -1 l 193 3 l 215 1 l 274 -4 l 294 -6 l 315 -4 l 333 0 l 346 11 l 351 31 l 351 63 l 346 122 l 344 144 l 347 235 l 347 257 l 346 346 l 347 365 l 354 378 l 367 382 l 385 383 l 460 379 l 571 376 l 593 378 l 649 382 l 682 382 l 697 376 l 703 365 l 703 346 l 706 257 l 706 235 l 703 144 l 704 122 l 710 32 l 713 13 l 721 1 l 740 -3 l 763 -3 l 836 3 l 858 3 l 933 -1 l 956 1 l 971 3 l 981 13 l 988 31 l 989 50 l 988 71 l 985 106 l 983 128 z "},"Ħ":{"ha":1211,"x_min":0,"x_max":0,"o":"m 1113 871 l 1106 875 l 1090 875 l 1081 876 l 1060 876 l 1047 875 l 1031 878 l 1024 890 l 1021 978 l 1021 993 l 1017 999 l 1001 1000 l 938 1000 l 853 1006 l 767 1000 l 749 996 l 742 986 l 746 965 l 747 942 l 744 888 l 732 876 l 646 875 l 624 875 l 536 881 l 514 881 l 426 882 l 404 881 l 393 881 l 382 890 l 382 969 l 379 986 l 368 993 l 356 996 l 338 997 l 271 1004 l 249 1006 l 139 999 l 121 997 l 108 997 l 103 993 l 101 978 l 97 903 l 99 885 l 90 876 l 58 879 l 39 879 l 24 872 l 18 857 l 15 815 l 15 796 l 18 754 l 24 740 l 38 735 l 58 732 l 79 732 l 88 733 l 99 725 l 103 663 l 103 642 l 96 579 l 96 557 l 101 471 l 101 449 l 96 364 l 96 342 l 104 142 l 104 119 l 103 31 l 103 11 l 107 1 l 124 -6 l 146 -7 l 188 -6 l 208 -4 l 274 3 l 294 3 l 336 -4 l 358 -6 l 375 -4 l 382 6 l 386 22 l 386 35 l 388 57 l 385 89 l 385 111 l 383 178 l 383 200 l 379 267 l 379 289 l 382 356 l 382 372 l 393 378 l 461 379 l 551 382 l 574 382 l 642 381 l 664 381 l 733 383 l 743 375 l 742 356 l 743 289 l 743 267 l 742 200 l 742 178 l 739 111 l 739 90 l 736 49 l 738 29 l 738 21 l 742 8 l 750 3 l 767 1 l 831 0 l 915 6 l 938 4 l 972 1 l 1003 1 l 1017 4 l 1024 8 l 1026 21 l 1028 32 l 1026 53 l 1021 104 l 1019 126 l 1022 310 l 1022 332 l 1026 413 l 1026 435 l 1022 515 l 1022 538 l 1028 618 l 1028 640 l 1022 721 l 1029 732 l 1047 731 l 1057 731 l 1079 732 l 1090 732 l 1106 735 l 1110 740 l 1111 756 l 1114 856 z m 668 615 l 646 615 l 561 621 l 494 617 l 472 617 l 407 619 l 389 621 l 382 632 l 386 719 l 397 731 l 461 733 l 483 732 l 551 726 l 574 726 l 642 735 l 664 736 l 735 732 l 746 721 l 746 631 l 735 619 z "},"I":{"ha":479,"x_min":0,"x_max":0,"o":"m 342 296 l 342 417 l 344 492 l 344 514 l 343 589 l 343 611 l 344 688 l 344 710 l 343 785 l 343 921 l 342 943 l 339 979 l 338 994 l 335 1003 l 319 1006 l 233 1006 l 169 1003 l 147 1003 l 114 1004 l 93 1003 l 82 1003 l 68 1001 l 60 996 l 56 981 l 58 904 l 58 785 l 57 710 l 57 688 l 58 611 l 58 492 l 60 417 l 60 394 l 64 318 l 63 296 l 58 221 l 57 199 l 61 124 l 61 103 l 63 82 l 63 60 l 65 25 l 65 11 l 69 7 l 78 4 l 147 -1 l 233 -1 l 304 -3 l 324 -1 l 335 3 l 339 10 l 339 25 l 340 101 l 340 124 l 346 199 l 346 221 z "},"Ĳ":{"ha":1533,"x_min":0,"x_max":0,"o":"m 342 296 l 342 417 l 344 492 l 344 514 l 343 589 l 343 611 l 344 688 l 344 710 l 343 785 l 343 921 l 342 943 l 339 979 l 338 994 l 335 1003 l 319 1006 l 233 1006 l 169 1003 l 147 1003 l 114 1004 l 93 1003 l 82 1003 l 68 1001 l 60 996 l 56 981 l 58 904 l 58 785 l 57 710 l 57 688 l 58 611 l 58 492 l 60 417 l 60 394 l 64 318 l 63 296 l 58 221 l 57 199 l 61 124 l 61 103 l 63 82 l 63 60 l 65 25 l 65 11 l 69 7 l 78 4 l 147 -1 l 233 -1 l 304 -3 l 324 -1 l 335 3 l 339 10 l 339 25 l 340 101 l 340 124 l 346 199 l 346 221 z m 1413 603 l 1414 625 l 1413 696 l 1411 718 l 1407 789 l 1407 811 l 1411 881 l 1413 903 l 1411 935 l 1410 956 l 1408 975 l 1407 990 l 1401 999 l 1388 1003 l 1367 1003 l 1303 1000 l 1175 1000 l 1093 1003 l 1071 1001 l 988 994 l 965 994 l 910 997 l 881 997 l 864 992 l 856 976 l 854 956 l 858 890 l 858 868 l 854 810 l 856 789 l 856 781 l 864 764 l 881 757 l 900 757 l 944 761 l 967 761 l 1029 757 l 1051 757 l 1115 761 l 1126 756 l 1125 736 l 1124 653 l 1124 631 l 1122 546 l 1122 524 l 1121 440 l 1121 419 l 1119 388 l 1117 367 l 1110 336 l 1101 315 l 1089 294 l 1074 278 l 1047 256 l 1028 244 l 1008 235 l 989 228 l 947 219 l 926 218 l 893 222 l 871 228 l 850 238 l 831 250 l 804 274 l 790 292 l 781 310 l 772 329 l 763 361 l 758 381 l 757 390 l 756 408 l 749 424 l 732 432 l 710 431 l 668 426 l 646 425 l 583 428 l 521 428 l 500 426 l 485 421 l 479 403 l 479 379 l 481 356 l 482 324 l 486 301 l 492 267 l 506 222 l 513 201 l 526 172 l 536 154 l 553 128 l 565 113 l 586 89 l 601 75 l 626 56 l 644 44 l 671 31 l 721 13 l 769 -3 l 821 -14 l 892 -24 l 924 -25 l 947 -26 l 994 -24 l 1029 -21 l 1050 -17 l 1082 -11 l 1101 -6 l 1133 4 l 1153 13 l 1182 26 l 1200 38 l 1226 54 l 1243 67 l 1267 88 l 1282 103 l 1303 125 l 1317 143 l 1338 169 l 1350 190 l 1361 211 l 1371 232 l 1381 261 l 1388 281 l 1396 313 l 1400 333 l 1404 368 l 1407 415 l 1407 439 l 1404 510 l 1406 532 z "},"Í":{"ha":479,"x_min":0,"x_max":0,"o":"m 429 1339 l 415 1343 l 376 1346 l 346 1343 l 325 1343 l 260 1342 l 239 1342 l 207 1343 l 185 1343 l 174 1342 l 157 1342 l 150 1338 l 142 1324 l 108 1250 l 97 1231 l 56 1147 l 56 1143 l 57 1139 l 61 1138 l 74 1136 l 176 1136 l 244 1132 l 256 1133 l 272 1136 l 286 1143 l 299 1157 l 356 1226 l 369 1243 l 424 1315 l 432 1329 z m 342 296 l 342 417 l 344 492 l 344 514 l 343 589 l 343 611 l 344 688 l 344 710 l 343 785 l 343 921 l 342 943 l 339 979 l 338 994 l 335 1003 l 319 1006 l 233 1006 l 169 1003 l 147 1003 l 114 1004 l 93 1003 l 82 1003 l 68 1001 l 60 996 l 56 981 l 58 904 l 58 785 l 57 710 l 57 688 l 58 611 l 58 492 l 60 417 l 60 394 l 64 318 l 63 296 l 58 221 l 57 199 l 61 124 l 61 103 l 63 82 l 63 60 l 65 25 l 65 11 l 69 7 l 78 4 l 147 -1 l 233 -1 l 304 -3 l 324 -1 l 335 3 l 339 10 l 339 25 l 340 101 l 340 124 l 346 199 l 346 221 z "},"Î":{"ha":479,"x_min":0,"x_max":0,"o":"m 506 1160 l 497 1171 l 446 1224 l 431 1239 l 374 1289 l 306 1357 l 296 1368 l 288 1374 l 279 1376 l 264 1376 l 211 1381 l 190 1381 l 146 1378 l 128 1376 l 117 1374 l 108 1368 l 96 1357 l 86 1349 l 71 1335 l 42 1304 l 26 1289 l -28 1238 l -44 1224 l -75 1193 l -89 1176 l -94 1168 l -103 1158 l -104 1150 l -101 1142 l -87 1139 l -68 1138 l -47 1138 l 0 1142 l 22 1143 l 124 1143 l 129 1144 l 140 1154 l 189 1194 l 200 1203 l 203 1203 l 214 1194 l 268 1150 l 279 1142 l 293 1139 l 400 1139 l 446 1136 l 467 1136 l 488 1138 l 501 1142 l 507 1151 z m 342 296 l 342 417 l 344 492 l 344 514 l 343 589 l 343 611 l 344 688 l 344 710 l 343 785 l 343 921 l 342 943 l 339 979 l 338 994 l 335 1003 l 319 1006 l 233 1006 l 169 1003 l 147 1003 l 114 1004 l 93 1003 l 82 1003 l 68 1001 l 60 996 l 56 981 l 58 904 l 58 785 l 57 710 l 57 688 l 58 611 l 58 492 l 60 417 l 60 394 l 64 318 l 63 296 l 58 221 l 57 199 l 61 124 l 61 103 l 63 82 l 63 60 l 65 25 l 65 11 l 69 7 l 78 4 l 147 -1 l 233 -1 l 304 -3 l 324 -1 l 335 3 l 339 10 l 339 25 l 340 101 l 340 124 l 346 199 l 346 221 z "},"Ï":{"ha":479,"x_min":0,"x_max":0,"o":"m 119 1236 l 118 1256 l 111 1279 l 101 1301 l 90 1317 l 75 1329 l 67 1335 l 47 1346 l 25 1351 l 17 1354 l -4 1357 l -25 1356 l -33 1356 l -54 1351 l -64 1347 l -85 1339 l -103 1326 l -121 1310 l -135 1290 l -143 1272 l -149 1257 l -151 1238 l -151 1217 l -149 1197 l -142 1179 l -132 1161 l -118 1144 l -103 1131 l -89 1121 l -72 1113 l -54 1107 l -35 1103 l -3 1103 l 10 1104 l 33 1110 l 53 1118 l 71 1129 l 88 1142 l 99 1157 l 108 1174 l 115 1193 l 119 1215 z m 543 1236 l 542 1256 l 535 1279 l 525 1301 l 514 1317 l 499 1329 l 490 1335 l 471 1346 l 449 1351 l 440 1354 l 419 1357 l 399 1356 l 390 1356 l 369 1351 l 360 1347 l 339 1339 l 321 1326 l 304 1310 l 289 1290 l 281 1272 l 276 1257 l 274 1238 l 274 1217 l 276 1197 l 282 1179 l 293 1161 l 307 1144 l 321 1131 l 335 1121 l 353 1113 l 371 1107 l 389 1103 l 421 1103 l 433 1104 l 457 1110 l 476 1118 l 494 1129 l 511 1142 l 522 1157 l 532 1174 l 539 1193 l 543 1215 z m 342 296 l 342 417 l 344 492 l 344 514 l 343 589 l 343 611 l 344 688 l 344 710 l 343 785 l 343 921 l 342 943 l 339 979 l 338 994 l 335 1003 l 319 1006 l 233 1006 l 169 1003 l 147 1003 l 114 1004 l 93 1003 l 82 1003 l 68 1001 l 60 996 l 56 981 l 58 904 l 58 785 l 57 710 l 57 688 l 58 611 l 58 492 l 60 417 l 60 394 l 64 318 l 63 296 l 58 221 l 57 199 l 61 124 l 61 103 l 63 82 l 63 60 l 65 25 l 65 11 l 69 7 l 78 4 l 147 -1 l 233 -1 l 304 -3 l 324 -1 l 335 3 l 339 10 l 339 25 l 340 101 l 340 124 l 346 199 l 346 221 z "},"İ":{"ha":479,"x_min":0,"x_max":0,"o":"m 326 1269 l 324 1290 l 319 1310 l 315 1318 l 307 1338 l 294 1354 l 279 1367 l 271 1374 l 254 1382 l 244 1386 l 226 1392 l 217 1393 l 196 1397 l 174 1396 l 164 1396 l 143 1390 l 133 1388 l 113 1378 l 93 1364 l 75 1347 l 60 1326 l 50 1308 l 44 1290 l 42 1271 l 42 1250 l 44 1229 l 51 1208 l 63 1189 l 78 1172 l 93 1158 l 108 1147 l 125 1139 l 143 1133 l 163 1129 l 193 1129 l 214 1131 l 235 1136 l 251 1142 l 258 1146 l 263 1147 l 275 1156 l 292 1169 l 306 1186 l 315 1203 l 322 1224 l 326 1249 z m 342 296 l 342 417 l 344 492 l 344 514 l 343 589 l 343 611 l 344 688 l 344 710 l 343 785 l 343 921 l 342 943 l 339 979 l 338 994 l 335 1003 l 319 1006 l 233 1006 l 169 1003 l 147 1003 l 114 1004 l 93 1003 l 82 1003 l 68 1001 l 60 996 l 56 981 l 58 904 l 58 785 l 57 710 l 57 688 l 58 611 l 58 492 l 60 417 l 60 394 l 64 318 l 63 296 l 58 221 l 57 199 l 61 124 l 61 103 l 63 82 l 63 60 l 65 25 l 65 11 l 69 7 l 78 4 l 147 -1 l 233 -1 l 304 -3 l 324 -1 l 335 3 l 339 10 l 339 25 l 340 101 l 340 124 l 346 199 l 346 221 z "},"Ì":{"ha":479,"x_min":0,"x_max":0,"o":"m 300 1153 l 296 1172 l 286 1194 l 264 1233 l 254 1254 l 240 1286 l 231 1307 l 225 1318 l 215 1335 l 201 1343 l 183 1346 l 172 1346 l 151 1347 l 58 1342 l -7 1346 l -31 1346 l -43 1344 l -62 1340 l -68 1329 l -61 1311 l -56 1303 l -43 1285 l -6 1242 l 65 1157 l 76 1144 l 89 1139 l 107 1136 l 118 1135 l 140 1135 l 182 1138 l 244 1133 l 267 1133 l 276 1135 l 294 1140 z m 342 296 l 342 417 l 344 492 l 344 514 l 343 589 l 343 611 l 344 688 l 344 710 l 343 785 l 343 921 l 342 943 l 339 979 l 338 994 l 335 1003 l 319 1006 l 233 1006 l 169 1003 l 147 1003 l 114 1004 l 93 1003 l 82 1003 l 68 1001 l 60 996 l 56 981 l 58 904 l 58 785 l 57 710 l 57 688 l 58 611 l 58 492 l 60 417 l 60 394 l 64 318 l 63 296 l 58 221 l 57 199 l 61 124 l 61 103 l 63 82 l 63 60 l 65 25 l 65 11 l 69 7 l 78 4 l 147 -1 l 233 -1 l 304 -3 l 324 -1 l 335 3 l 339 10 l 339 25 l 340 101 l 340 124 l 346 199 l 346 221 z "},"Ī":{"ha":479,"x_min":0,"x_max":0,"o":"m 451 1228 l 451 1249 l 456 1299 l 453 1313 l 451 1325 l 446 1335 l 436 1342 l 419 1344 l 408 1346 l 386 1346 l 319 1342 l 242 1344 l 143 1346 l 121 1346 l 43 1340 l 21 1340 l -57 1342 l -74 1342 l -82 1336 l -86 1326 l -87 1308 l -90 1296 l -92 1272 l -90 1249 l -90 1226 l -92 1203 l -90 1179 l -89 1168 l -86 1150 l -82 1139 l -74 1133 l -57 1131 l -47 1129 l -25 1129 l 43 1133 l 121 1135 l 143 1135 l 319 1132 l 342 1132 l 383 1129 l 406 1129 l 418 1131 l 436 1133 l 444 1139 l 451 1149 l 454 1165 l 456 1181 l 454 1196 z m 342 296 l 342 417 l 344 492 l 344 514 l 343 589 l 343 611 l 344 688 l 344 710 l 343 785 l 343 921 l 342 943 l 339 979 l 338 994 l 335 1003 l 319 1006 l 233 1006 l 169 1003 l 147 1003 l 114 1004 l 93 1003 l 82 1003 l 68 1001 l 60 996 l 56 981 l 58 904 l 58 785 l 57 710 l 57 688 l 58 611 l 58 492 l 60 417 l 60 394 l 64 318 l 63 296 l 58 221 l 57 199 l 61 124 l 61 103 l 63 82 l 63 60 l 65 25 l 65 11 l 69 7 l 78 4 l 147 -1 l 233 -1 l 304 -3 l 324 -1 l 335 3 l 339 10 l 339 25 l 340 101 l 340 124 l 346 199 l 346 221 z "},"Į":{"ha":479,"x_min":0,"x_max":0,"o":"m 414 -256 l 411 -244 l 407 -224 l 397 -201 l 382 -171 l 374 -156 l 369 -149 l 364 -144 l 357 -143 l 340 -147 l 308 -153 l 289 -153 l 267 -150 l 242 -142 l 222 -126 l 213 -108 l 211 -85 l 218 -64 l 229 -50 l 247 -36 l 268 -25 l 278 -19 l 299 -12 l 308 -8 l 335 -1 l 339 7 l 339 25 l 340 101 l 340 124 l 346 199 l 346 221 l 342 296 l 342 417 l 344 492 l 344 514 l 343 589 l 343 611 l 344 688 l 344 710 l 343 785 l 343 921 l 342 943 l 339 979 l 338 994 l 335 1003 l 319 1006 l 233 1006 l 169 1003 l 147 1003 l 114 1004 l 93 1003 l 82 1003 l 68 1001 l 60 996 l 56 981 l 58 904 l 58 785 l 57 710 l 57 688 l 58 611 l 58 492 l 60 417 l 60 394 l 64 318 l 63 296 l 58 221 l 57 199 l 61 124 l 61 103 l 63 82 l 63 60 l 65 25 l 65 11 l 69 7 l 78 4 l 108 1 l 106 0 l 89 -12 l 74 -25 l 58 -40 l 28 -76 l 24 -86 l 14 -106 l 6 -126 l 4 -137 l 1 -157 l 1 -167 l 3 -187 l 8 -208 l 11 -221 l 21 -242 l 26 -250 l 39 -268 l 56 -285 l 89 -306 l 114 -315 l 138 -322 l 160 -326 l 183 -329 l 207 -331 l 228 -329 l 260 -328 l 281 -325 l 301 -321 l 321 -315 l 329 -314 l 349 -308 l 357 -304 l 376 -297 l 392 -290 l 404 -283 l 414 -276 l 415 -269 z "},"J":{"ha":1054,"x_min":0,"x_max":0,"o":"m 933 603 l 935 625 l 933 696 l 932 718 l 928 789 l 928 811 l 932 881 l 933 903 l 932 935 l 931 956 l 929 975 l 928 990 l 922 999 l 908 1003 l 888 1003 l 824 1000 l 696 1000 l 614 1003 l 592 1001 l 508 994 l 486 994 l 431 997 l 401 997 l 385 992 l 376 976 l 375 956 l 379 890 l 379 868 l 375 810 l 376 789 l 376 781 l 385 764 l 401 757 l 421 757 l 465 761 l 488 761 l 550 757 l 572 757 l 636 761 l 647 756 l 646 736 l 644 653 l 644 631 l 643 546 l 643 524 l 642 440 l 642 419 l 640 388 l 638 367 l 631 336 l 622 315 l 610 294 l 594 278 l 568 256 l 549 244 l 529 235 l 510 228 l 468 219 l 447 218 l 414 222 l 392 228 l 371 238 l 351 250 l 325 274 l 311 292 l 301 310 l 293 329 l 283 361 l 279 381 l 278 390 l 276 408 l 269 424 l 253 432 l 231 431 l 189 426 l 167 425 l 104 428 l 42 428 l 21 426 l 6 421 l 0 403 l 0 379 l 1 356 l 3 324 l 7 301 l 13 267 l 26 222 l 33 201 l 47 172 l 57 154 l 74 128 l 86 113 l 107 89 l 122 75 l 147 56 l 165 44 l 192 31 l 242 13 l 290 -3 l 342 -14 l 413 -24 l 444 -25 l 468 -26 l 515 -24 l 550 -21 l 571 -17 l 603 -11 l 622 -6 l 654 4 l 674 13 l 703 26 l 721 38 l 747 54 l 764 67 l 788 88 l 803 103 l 824 125 l 838 143 l 858 169 l 871 190 l 882 211 l 892 232 l 901 261 l 908 281 l 917 313 l 921 333 l 925 368 l 928 415 l 928 439 l 925 510 l 926 532 z "},"K":{"ha":1029,"x_min":0,"x_max":0,"o":"m 910 89 l 896 106 l 836 168 l 822 185 l 765 249 l 751 265 l 697 332 l 683 349 l 622 410 l 607 426 l 556 494 l 546 507 l 543 515 l 550 526 l 557 535 l 572 551 l 607 583 l 622 600 l 672 661 l 686 678 l 738 739 l 751 756 l 806 815 l 819 832 l 868 896 l 882 913 l 935 971 l 946 983 l 947 988 l 944 990 l 938 996 l 922 997 l 869 996 l 847 996 l 794 997 l 710 1003 l 688 1003 l 624 999 l 610 996 l 599 985 l 550 929 l 536 913 l 493 853 l 418 763 l 375 703 l 360 693 l 349 696 l 346 711 l 344 785 l 344 807 l 340 881 l 342 903 l 346 949 l 347 967 l 346 981 l 342 992 l 335 996 l 319 997 l 256 1001 l 233 1001 l 169 996 l 147 996 l 104 1000 l 83 1001 l 69 999 l 65 992 l 64 975 l 60 900 l 60 878 l 63 706 l 63 683 l 60 607 l 60 585 l 63 510 l 63 413 l 61 390 l 57 314 l 56 292 l 56 194 l 61 119 l 60 96 l 58 61 l 58 39 l 60 19 l 61 7 l 67 -1 l 78 -6 l 147 0 l 169 1 l 233 -4 l 276 -4 l 319 -1 l 336 1 l 343 7 l 344 21 l 346 42 l 346 63 l 344 96 l 344 118 l 347 193 l 347 289 l 350 307 l 358 313 l 368 308 l 375 296 l 386 281 l 432 226 l 446 210 l 500 156 l 513 140 l 556 79 l 568 63 l 617 8 l 629 -1 l 646 -3 l 735 1 l 757 1 l 844 0 l 867 0 l 942 -6 l 960 -6 l 969 0 l 974 8 l 978 15 l 971 28 z "},"Ķ":{"ha":1029,"x_min":0,"x_max":0,"o":"m 910 89 l 896 106 l 836 168 l 822 185 l 765 249 l 751 265 l 697 332 l 683 349 l 622 410 l 607 426 l 556 494 l 546 507 l 543 515 l 550 526 l 557 535 l 572 551 l 607 583 l 622 600 l 672 661 l 686 678 l 738 739 l 751 756 l 806 815 l 819 832 l 868 896 l 882 913 l 935 971 l 946 983 l 947 988 l 944 990 l 938 996 l 922 997 l 869 996 l 847 996 l 794 997 l 710 1003 l 688 1003 l 624 999 l 610 996 l 599 985 l 550 929 l 536 913 l 493 853 l 418 763 l 375 703 l 360 693 l 349 696 l 346 711 l 344 785 l 344 807 l 340 881 l 342 903 l 346 949 l 347 967 l 346 981 l 342 992 l 335 996 l 319 997 l 256 1001 l 233 1001 l 169 996 l 147 996 l 104 1000 l 83 1001 l 69 999 l 65 992 l 64 975 l 60 900 l 60 878 l 63 706 l 63 683 l 60 607 l 60 585 l 63 510 l 63 413 l 61 390 l 57 314 l 56 292 l 56 194 l 61 119 l 60 96 l 58 61 l 58 39 l 60 19 l 61 7 l 67 -1 l 78 -6 l 147 0 l 169 1 l 233 -4 l 276 -4 l 319 -1 l 336 1 l 343 7 l 344 21 l 346 42 l 346 63 l 344 96 l 344 118 l 347 193 l 347 289 l 350 307 l 358 313 l 368 308 l 375 296 l 386 281 l 432 226 l 446 210 l 500 156 l 513 140 l 556 79 l 568 63 l 617 8 l 629 -1 l 646 -3 l 735 1 l 757 1 l 844 0 l 867 0 l 942 -6 l 960 -6 l 969 0 l 974 8 l 978 15 l 971 28 z m 650 -225 l 644 -208 l 640 -200 l 629 -182 l 615 -167 l 599 -156 l 578 -143 l 560 -136 l 546 -132 l 526 -129 l 508 -128 l 492 -129 l 469 -135 l 446 -144 l 428 -154 l 414 -165 l 407 -174 l 394 -190 l 386 -212 l 382 -236 l 382 -258 l 385 -276 l 392 -293 l 396 -303 l 410 -319 l 426 -335 l 446 -346 l 461 -351 l 469 -356 l 474 -361 l 469 -374 l 450 -410 l 440 -429 l 435 -442 l 431 -457 l 435 -462 l 449 -465 l 558 -464 l 563 -462 l 569 -453 l 579 -435 l 588 -417 l 607 -367 l 615 -347 l 633 -306 l 642 -286 l 644 -275 l 650 -258 l 651 -242 z "},"L":{"ha":922,"x_min":0,"x_max":0,"o":"m 829 108 l 828 131 l 826 208 l 825 224 l 821 233 l 811 242 l 794 246 l 774 246 l 751 244 l 704 239 l 682 238 l 482 235 l 460 235 l 418 232 l 371 235 l 354 238 l 347 243 l 344 250 l 343 257 l 342 271 l 350 454 l 350 476 l 346 557 l 346 579 l 343 660 l 343 682 l 347 763 l 347 785 l 344 865 l 344 986 l 338 996 l 328 1001 l 314 1001 l 215 1000 l 193 1000 l 125 1004 l 104 1003 l 93 1003 l 78 1000 l 68 996 l 63 988 l 58 969 l 57 957 l 57 936 l 60 894 l 60 776 l 61 703 l 61 681 l 67 511 l 67 489 l 64 319 l 64 297 l 61 224 l 61 201 l 67 128 l 65 107 l 58 54 l 58 32 l 61 15 l 68 7 l 78 1 l 93 -1 l 113 -3 l 133 -3 l 197 1 l 300 1 l 381 -4 l 506 4 l 610 4 l 764 -4 l 783 -3 l 794 -3 l 808 0 l 818 4 l 826 14 l 831 31 l 831 43 l 832 65 z "},"Ĺ":{"ha":922,"x_min":0,"x_max":0,"o":"m 444 1339 l 431 1343 l 392 1346 l 361 1343 l 340 1343 l 275 1342 l 254 1342 l 222 1343 l 200 1343 l 189 1342 l 172 1342 l 165 1338 l 157 1324 l 124 1250 l 113 1231 l 71 1147 l 71 1143 l 72 1139 l 76 1138 l 89 1136 l 192 1136 l 260 1132 l 271 1133 l 288 1136 l 301 1143 l 314 1157 l 371 1226 l 385 1243 l 439 1315 l 447 1329 z m 829 108 l 828 131 l 826 208 l 825 224 l 821 233 l 811 242 l 794 246 l 774 246 l 751 244 l 704 239 l 682 238 l 482 235 l 460 235 l 418 232 l 371 235 l 354 238 l 347 243 l 344 250 l 343 257 l 342 271 l 350 454 l 350 476 l 346 557 l 346 579 l 343 660 l 343 682 l 347 763 l 347 785 l 344 865 l 344 986 l 338 996 l 328 1001 l 314 1001 l 215 1000 l 193 1000 l 125 1004 l 104 1003 l 93 1003 l 78 1000 l 68 996 l 63 988 l 58 969 l 57 957 l 57 936 l 60 894 l 60 776 l 61 703 l 61 681 l 67 511 l 67 489 l 64 319 l 64 297 l 61 224 l 61 201 l 67 128 l 65 107 l 58 54 l 58 32 l 61 15 l 68 7 l 78 1 l 93 -1 l 113 -3 l 133 -3 l 197 1 l 300 1 l 381 -4 l 506 4 l 610 4 l 764 -4 l 783 -3 l 794 -3 l 808 0 l 818 4 l 826 14 l 831 31 l 831 43 l 832 65 z "},"Ľ":{"ha":922,"x_min":0,"x_max":0,"o":"m 829 108 l 828 131 l 826 208 l 825 224 l 821 233 l 811 242 l 794 246 l 774 246 l 751 244 l 704 239 l 682 238 l 482 235 l 460 235 l 418 232 l 371 235 l 354 238 l 347 243 l 344 250 l 343 257 l 342 271 l 350 454 l 350 476 l 346 557 l 346 579 l 343 660 l 343 682 l 347 763 l 347 785 l 344 865 l 344 986 l 338 996 l 328 1001 l 314 1001 l 215 1000 l 193 1000 l 125 1004 l 104 1003 l 93 1003 l 78 1000 l 68 996 l 63 988 l 58 969 l 57 957 l 57 936 l 60 894 l 60 776 l 61 703 l 61 681 l 67 511 l 67 489 l 64 319 l 64 297 l 61 224 l 61 201 l 67 128 l 65 107 l 58 54 l 58 32 l 61 15 l 68 7 l 78 1 l 93 -1 l 113 -3 l 133 -3 l 197 1 l 300 1 l 381 -4 l 506 4 l 610 4 l 764 -4 l 783 -3 l 794 -3 l 808 0 l 818 4 l 826 14 l 831 31 l 831 43 l 832 65 z m 754 871 l 750 893 l 743 915 l 732 933 l 717 950 l 696 963 l 674 971 l 649 975 l 624 974 l 600 969 l 576 961 l 554 949 l 538 932 l 526 913 l 518 889 l 514 867 l 513 858 l 514 839 l 517 829 l 524 808 l 538 788 l 554 774 l 567 764 l 572 758 l 575 753 l 575 746 l 574 729 l 565 692 l 558 667 l 553 644 l 549 625 l 547 610 l 550 601 l 556 594 l 564 590 l 579 588 l 589 585 l 608 583 l 628 585 l 672 592 l 679 593 l 683 597 l 688 603 l 694 617 l 699 628 l 708 651 l 715 678 l 721 703 l 725 714 l 731 736 l 736 756 l 744 789 l 749 811 l 751 821 l 754 842 z "},"Ļ":{"ha":922,"x_min":0,"x_max":0,"o":"m 829 108 l 828 131 l 826 208 l 825 224 l 821 233 l 811 242 l 794 246 l 774 246 l 751 244 l 704 239 l 682 238 l 482 235 l 460 235 l 418 232 l 371 235 l 354 238 l 347 243 l 344 250 l 343 257 l 342 271 l 350 454 l 350 476 l 346 557 l 346 579 l 343 660 l 343 682 l 347 763 l 347 785 l 344 865 l 344 986 l 338 996 l 328 1001 l 314 1001 l 215 1000 l 193 1000 l 125 1004 l 104 1003 l 93 1003 l 78 1000 l 68 996 l 63 988 l 58 969 l 57 957 l 57 936 l 60 894 l 60 776 l 61 703 l 61 681 l 67 511 l 67 489 l 64 319 l 64 297 l 61 224 l 61 201 l 67 128 l 65 107 l 58 54 l 58 32 l 61 15 l 68 7 l 78 1 l 93 -1 l 113 -3 l 133 -3 l 197 1 l 300 1 l 381 -4 l 506 4 l 610 4 l 764 -4 l 783 -3 l 794 -3 l 808 0 l 818 4 l 826 14 l 831 31 l 831 43 l 832 65 z m 614 -225 l 608 -208 l 604 -200 l 593 -182 l 579 -167 l 563 -156 l 542 -143 l 524 -136 l 510 -132 l 490 -129 l 472 -128 l 456 -129 l 433 -135 l 410 -144 l 392 -154 l 378 -165 l 371 -174 l 358 -190 l 350 -212 l 346 -236 l 346 -258 l 349 -276 l 356 -293 l 360 -303 l 374 -319 l 390 -335 l 410 -346 l 425 -351 l 433 -356 l 438 -361 l 433 -374 l 414 -410 l 404 -429 l 399 -442 l 394 -457 l 399 -462 l 413 -465 l 522 -464 l 526 -462 l 533 -453 l 543 -435 l 551 -417 l 571 -367 l 579 -347 l 597 -306 l 606 -286 l 608 -275 l 614 -258 l 615 -242 z "},"Ŀ":{"ha":922,"x_min":0,"x_max":0,"o":"m 829 108 l 828 131 l 826 208 l 825 224 l 821 233 l 811 242 l 794 246 l 774 246 l 751 244 l 704 239 l 682 238 l 482 235 l 460 235 l 418 232 l 371 235 l 354 238 l 347 243 l 344 250 l 343 257 l 342 271 l 350 454 l 350 476 l 346 557 l 346 579 l 343 660 l 343 682 l 347 763 l 347 785 l 344 865 l 344 986 l 338 996 l 328 1001 l 314 1001 l 215 1000 l 193 1000 l 125 1004 l 104 1003 l 93 1003 l 78 1000 l 68 996 l 63 988 l 58 969 l 57 957 l 57 936 l 60 894 l 60 776 l 61 703 l 61 681 l 67 511 l 67 489 l 64 319 l 64 297 l 61 224 l 61 201 l 67 128 l 65 107 l 58 54 l 58 32 l 61 15 l 68 7 l 78 1 l 93 -1 l 113 -3 l 133 -3 l 197 1 l 300 1 l 381 -4 l 506 4 l 610 4 l 764 -4 l 783 -3 l 794 -3 l 808 0 l 818 4 l 826 14 l 831 31 l 831 43 l 832 65 z m 763 536 l 758 558 l 750 581 l 740 600 l 725 617 l 707 631 l 689 643 l 669 654 l 649 663 l 624 667 l 590 667 l 569 663 l 561 658 l 540 649 l 518 633 l 500 618 l 494 611 l 482 596 l 478 588 l 468 571 l 465 561 l 460 543 l 460 506 l 464 486 l 467 478 l 475 460 l 479 451 l 492 436 l 497 428 l 515 414 l 538 401 l 560 394 l 569 392 l 590 390 l 600 389 l 625 389 l 650 390 l 672 394 l 693 400 l 713 411 l 731 428 l 743 447 l 753 468 l 760 490 l 764 513 z "},"Ł":{"ha":975,"x_min":0,"x_max":0,"o":"m 878 108 l 878 131 l 885 185 l 885 208 l 882 226 l 875 238 l 865 243 l 851 246 l 819 246 l 763 243 l 740 242 l 653 240 l 631 240 l 543 235 l 433 235 l 417 236 l 407 242 l 403 249 l 401 263 l 401 356 l 403 426 l 413 443 l 522 497 l 538 507 l 543 517 l 546 532 l 547 553 l 547 574 l 546 594 l 547 617 l 551 658 l 551 679 l 544 696 l 533 703 l 521 703 l 503 699 l 482 692 l 461 683 l 440 674 l 424 671 l 413 678 l 406 686 l 403 701 l 400 776 l 401 799 l 406 872 l 407 894 l 408 929 l 407 950 l 404 971 l 401 986 l 394 994 l 386 999 l 369 1000 l 347 1001 l 325 1001 l 271 999 l 249 999 l 174 1003 l 150 1001 l 136 1000 l 128 996 l 122 988 l 118 971 l 115 929 l 118 882 l 118 858 l 115 768 l 115 635 l 121 546 l 121 525 l 115 506 l 103 493 l 85 485 l 64 479 l 42 471 l 28 461 l 24 450 l 22 432 l 18 374 l 17 351 l 15 319 l 15 299 l 18 290 l 22 275 l 32 267 l 44 263 l 58 264 l 74 271 l 81 276 l 100 288 l 115 290 l 122 279 l 122 261 l 119 208 l 118 186 l 117 119 l 115 97 l 113 61 l 113 40 l 114 29 l 118 14 l 125 6 l 136 3 l 175 -3 l 197 -4 l 254 -4 l 335 -1 l 357 -1 l 438 4 l 460 4 l 540 1 l 665 1 l 811 -8 l 832 -8 l 851 -7 l 868 -3 l 879 6 l 883 15 l 886 31 l 886 63 z "},"M":{"ha":1319,"x_min":0,"x_max":0,"o":"m 1176 200 l 1176 222 l 1182 296 l 1182 318 l 1178 392 l 1178 414 l 1183 488 l 1183 510 l 1178 585 l 1178 607 l 1176 681 l 1176 703 l 1178 776 l 1178 799 l 1175 872 l 1176 894 l 1182 957 l 1183 974 l 1181 985 l 1172 992 l 1163 994 l 1146 997 l 1122 999 l 1081 996 l 1058 996 l 993 997 l 919 1001 l 901 1003 l 888 996 l 876 985 l 865 969 l 829 925 l 815 907 l 767 853 l 753 835 l 708 781 l 694 761 l 653 706 l 640 692 l 628 685 l 614 685 l 601 692 l 588 707 l 544 761 l 531 781 l 485 835 l 471 853 l 431 910 l 417 928 l 368 982 l 354 997 l 339 1004 l 321 1004 l 268 1006 l 247 1004 l 224 1001 l 181 997 l 158 997 l 128 1004 l 104 1007 l 86 1006 l 75 1003 l 67 996 l 61 986 l 58 968 l 58 946 l 64 894 l 64 872 l 58 799 l 57 776 l 63 703 l 61 681 l 57 607 l 57 585 l 61 510 l 63 488 l 61 414 l 61 392 l 64 318 l 64 104 l 61 61 l 61 29 l 64 15 l 67 6 l 75 -3 l 92 -6 l 124 -6 l 190 0 l 213 1 l 267 -3 l 289 -1 l 325 3 l 335 6 l 340 14 l 343 32 l 344 56 l 346 78 l 344 119 l 344 140 l 346 226 l 346 249 l 343 336 l 343 358 l 338 446 l 338 468 l 342 556 l 344 571 l 353 574 l 371 556 l 443 475 l 457 458 l 508 390 l 578 307 l 593 296 l 610 292 l 625 289 l 636 289 l 646 293 l 658 304 l 714 374 l 799 475 l 857 542 l 871 561 l 881 574 l 889 574 l 897 568 l 900 551 l 900 443 l 894 357 l 894 335 l 899 247 l 899 117 l 896 69 l 897 49 l 899 29 l 900 15 l 906 8 l 915 6 l 967 -1 l 992 -3 l 1026 -3 l 1050 -4 l 1106 -8 l 1128 -8 l 1149 -7 l 1164 -4 l 1172 3 l 1179 14 l 1181 29 l 1182 40 l 1181 61 l 1175 104 l 1174 126 z "},"N":{"ha":1140,"x_min":0,"x_max":0,"o":"m 1004 867 l 1007 889 l 1010 932 l 1008 956 l 1007 968 l 1004 988 l 996 997 l 986 1001 l 971 1004 l 939 1006 l 918 1007 l 871 1004 l 849 1004 l 786 1008 l 763 1007 l 750 1007 l 733 1004 l 724 999 l 718 988 l 714 969 l 714 935 l 718 883 l 719 861 l 714 776 l 714 754 l 719 669 l 719 647 l 715 588 l 717 565 l 726 507 l 726 492 l 717 485 l 706 486 l 694 496 l 644 565 l 631 582 l 578 649 l 565 665 l 515 735 l 501 751 l 450 819 l 436 836 l 385 903 l 371 919 l 313 982 l 304 994 l 297 1000 l 281 1001 l 176 1001 l 135 1004 l 93 1001 l 78 999 l 69 994 l 65 985 l 63 969 l 60 949 l 58 928 l 58 896 l 60 874 l 65 799 l 67 776 l 61 703 l 61 681 l 67 607 l 67 511 l 65 489 l 61 415 l 60 393 l 57 224 l 57 201 l 61 128 l 60 106 l 57 60 l 57 39 l 58 29 l 61 15 l 67 6 l 78 -1 l 93 -4 l 114 -6 l 136 -6 l 193 -3 l 215 -3 l 279 -4 l 303 -3 l 314 -1 l 331 1 l 340 4 l 350 14 l 354 32 l 353 54 l 344 110 l 343 132 l 347 210 l 347 232 l 346 310 l 346 332 l 344 401 l 344 424 l 347 493 l 351 510 l 361 514 l 374 503 l 425 435 l 439 418 l 493 351 l 506 335 l 554 263 l 567 244 l 621 178 l 635 161 l 689 93 l 701 75 l 722 35 l 735 17 l 751 4 l 768 -3 l 786 -7 l 808 -7 l 843 -6 l 865 -4 l 936 -1 l 956 0 l 968 4 l 982 14 l 993 29 l 999 46 l 1000 65 l 999 146 l 1003 213 l 1004 236 l 1006 247 l 1006 271 l 1003 454 l 1003 476 l 999 557 l 999 763 l 1000 785 z "},"Ń":{"ha":1140,"x_min":0,"x_max":0,"o":"m 771 1339 l 757 1343 l 718 1346 l 688 1343 l 667 1343 l 601 1342 l 581 1342 l 549 1343 l 526 1343 l 515 1342 l 499 1342 l 492 1338 l 483 1324 l 450 1250 l 439 1231 l 397 1147 l 397 1143 l 399 1139 l 403 1138 l 415 1136 l 518 1136 l 586 1132 l 597 1133 l 614 1136 l 628 1143 l 640 1157 l 697 1226 l 711 1243 l 765 1315 l 774 1329 z m 1004 867 l 1007 889 l 1010 932 l 1008 956 l 1007 968 l 1004 988 l 996 997 l 986 1001 l 971 1004 l 939 1006 l 918 1007 l 871 1004 l 849 1004 l 786 1008 l 763 1007 l 750 1007 l 733 1004 l 724 999 l 718 988 l 714 969 l 714 935 l 718 883 l 719 861 l 714 776 l 714 754 l 719 669 l 719 647 l 715 588 l 717 565 l 726 507 l 726 492 l 717 485 l 706 486 l 694 496 l 644 565 l 631 582 l 578 649 l 565 665 l 515 735 l 501 751 l 450 819 l 436 836 l 385 903 l 371 919 l 313 982 l 304 994 l 297 1000 l 281 1001 l 176 1001 l 135 1004 l 93 1001 l 78 999 l 69 994 l 65 985 l 63 969 l 60 949 l 58 928 l 58 896 l 60 874 l 65 799 l 67 776 l 61 703 l 61 681 l 67 607 l 67 511 l 65 489 l 61 415 l 60 393 l 57 224 l 57 201 l 61 128 l 60 106 l 57 60 l 57 39 l 58 29 l 61 15 l 67 6 l 78 -1 l 93 -4 l 114 -6 l 136 -6 l 193 -3 l 215 -3 l 279 -4 l 303 -3 l 314 -1 l 331 1 l 340 4 l 350 14 l 354 32 l 353 54 l 344 110 l 343 132 l 347 210 l 347 232 l 346 310 l 346 332 l 344 401 l 344 424 l 347 493 l 351 510 l 361 514 l 374 503 l 425 435 l 439 418 l 493 351 l 506 335 l 554 263 l 567 244 l 621 178 l 635 161 l 689 93 l 701 75 l 722 35 l 735 17 l 751 4 l 768 -3 l 786 -7 l 808 -7 l 843 -6 l 865 -4 l 936 -1 l 956 0 l 968 4 l 982 14 l 993 29 l 999 46 l 1000 65 l 999 146 l 1003 213 l 1004 236 l 1006 247 l 1006 271 l 1003 454 l 1003 476 l 999 557 l 999 763 l 1000 785 z "},"Ň":{"ha":1140,"x_min":0,"x_max":0,"o":"m 829 1364 l 822 1372 l 807 1375 l 794 1375 l 772 1376 l 721 1372 l 699 1372 l 607 1374 l 599 1372 l 588 1364 l 524 1308 l 518 1308 l 507 1315 l 454 1361 l 444 1371 l 431 1374 l 324 1374 l 272 1378 l 250 1376 l 238 1374 l 224 1371 l 218 1364 l 219 1354 l 229 1339 l 244 1321 l 283 1288 l 300 1272 l 371 1201 l 403 1165 l 425 1143 l 436 1138 l 533 1138 l 593 1135 l 607 1138 l 618 1147 l 674 1201 l 690 1218 l 744 1274 l 761 1289 l 801 1319 l 815 1335 l 822 1342 l 829 1354 z m 1004 867 l 1007 889 l 1010 932 l 1008 956 l 1007 968 l 1004 988 l 996 997 l 986 1001 l 971 1004 l 939 1006 l 918 1007 l 871 1004 l 849 1004 l 786 1008 l 763 1007 l 750 1007 l 733 1004 l 724 999 l 718 988 l 714 969 l 714 935 l 718 883 l 719 861 l 714 776 l 714 754 l 719 669 l 719 647 l 715 588 l 717 565 l 726 507 l 726 492 l 717 485 l 706 486 l 694 496 l 644 565 l 631 582 l 578 649 l 565 665 l 515 735 l 501 751 l 450 819 l 436 836 l 385 903 l 371 919 l 313 982 l 304 994 l 297 1000 l 281 1001 l 176 1001 l 135 1004 l 93 1001 l 78 999 l 69 994 l 65 985 l 63 969 l 60 949 l 58 928 l 58 896 l 60 874 l 65 799 l 67 776 l 61 703 l 61 681 l 67 607 l 67 511 l 65 489 l 61 415 l 60 393 l 57 224 l 57 201 l 61 128 l 60 106 l 57 60 l 57 39 l 58 29 l 61 15 l 67 6 l 78 -1 l 93 -4 l 114 -6 l 136 -6 l 193 -3 l 215 -3 l 279 -4 l 303 -3 l 314 -1 l 331 1 l 340 4 l 350 14 l 354 32 l 353 54 l 344 110 l 343 132 l 347 210 l 347 232 l 346 310 l 346 332 l 344 401 l 344 424 l 347 493 l 351 510 l 361 514 l 374 503 l 425 435 l 439 418 l 493 351 l 506 335 l 554 263 l 567 244 l 621 178 l 635 161 l 689 93 l 701 75 l 722 35 l 735 17 l 751 4 l 768 -3 l 786 -7 l 808 -7 l 843 -6 l 865 -4 l 936 -1 l 956 0 l 968 4 l 982 14 l 993 29 l 999 46 l 1000 65 l 999 146 l 1003 213 l 1004 236 l 1006 247 l 1006 271 l 1003 454 l 1003 476 l 999 557 l 999 763 l 1000 785 z "},"Ņ":{"ha":1140,"x_min":0,"x_max":0,"o":"m 1004 867 l 1007 889 l 1010 932 l 1008 956 l 1007 968 l 1004 988 l 996 997 l 986 1001 l 971 1004 l 939 1006 l 918 1007 l 871 1004 l 849 1004 l 786 1008 l 763 1007 l 750 1007 l 733 1004 l 724 999 l 718 988 l 714 969 l 714 935 l 718 883 l 719 861 l 714 776 l 714 754 l 719 669 l 719 647 l 715 588 l 717 565 l 726 507 l 726 492 l 717 485 l 706 486 l 694 496 l 644 565 l 631 582 l 578 649 l 565 665 l 515 735 l 501 751 l 450 819 l 436 836 l 385 903 l 371 919 l 313 982 l 304 994 l 297 1000 l 281 1001 l 176 1001 l 135 1004 l 93 1001 l 78 999 l 69 994 l 65 985 l 63 969 l 60 949 l 58 928 l 58 896 l 60 874 l 65 799 l 67 776 l 61 703 l 61 681 l 67 607 l 67 511 l 65 489 l 61 415 l 60 393 l 57 224 l 57 201 l 61 128 l 60 106 l 57 60 l 57 39 l 58 29 l 61 15 l 67 6 l 78 -1 l 93 -4 l 114 -6 l 136 -6 l 193 -3 l 215 -3 l 279 -4 l 303 -3 l 314 -1 l 331 1 l 340 4 l 350 14 l 354 32 l 353 54 l 344 110 l 343 132 l 347 210 l 347 232 l 346 310 l 346 332 l 344 401 l 344 424 l 347 493 l 351 510 l 361 514 l 374 503 l 425 435 l 439 418 l 493 351 l 506 335 l 554 263 l 567 244 l 621 178 l 635 161 l 689 93 l 701 75 l 722 35 l 735 17 l 751 4 l 768 -3 l 786 -7 l 808 -7 l 843 -6 l 865 -4 l 936 -1 l 956 0 l 968 4 l 982 14 l 993 29 l 999 46 l 1000 65 l 999 146 l 1003 213 l 1004 236 l 1006 247 l 1006 271 l 1003 454 l 1003 476 l 999 557 l 999 763 l 1000 785 z m 721 -225 l 715 -208 l 711 -200 l 700 -182 l 686 -167 l 669 -156 l 649 -143 l 631 -136 l 617 -132 l 597 -129 l 579 -128 l 563 -129 l 540 -135 l 517 -144 l 499 -154 l 485 -165 l 478 -174 l 465 -190 l 457 -212 l 453 -236 l 453 -258 l 456 -276 l 463 -293 l 467 -303 l 481 -319 l 497 -335 l 517 -346 l 532 -351 l 540 -356 l 544 -361 l 540 -374 l 521 -410 l 511 -429 l 506 -442 l 501 -457 l 506 -462 l 519 -465 l 629 -464 l 633 -462 l 640 -453 l 650 -435 l 658 -417 l 678 -367 l 686 -347 l 704 -306 l 713 -286 l 715 -275 l 721 -258 l 722 -242 z "},"Ŋ":{"ha":1146,"x_min":0,"x_max":0,"o":"m 1003 257 l 1003 381 l 1000 458 l 1000 481 l 1003 560 l 1003 582 l 997 661 l 999 683 l 1008 763 l 1008 785 l 1004 864 l 1003 886 l 1003 964 l 1001 986 l 993 1000 l 974 1006 l 953 1007 l 931 1007 l 874 1001 l 851 1001 l 786 1006 l 751 1006 l 733 1001 l 724 988 l 719 968 l 718 949 l 717 928 l 719 882 l 719 860 l 721 775 l 721 753 l 724 668 l 724 646 l 722 531 l 719 511 l 708 501 l 694 503 l 682 515 l 631 576 l 617 594 l 569 658 l 556 678 l 508 740 l 494 758 l 444 822 l 431 840 l 383 903 l 369 921 l 318 983 l 303 996 l 283 1001 l 260 1001 l 200 1000 l 178 1000 l 154 1001 l 131 1000 l 97 997 l 81 994 l 72 985 l 68 967 l 63 893 l 63 871 l 68 797 l 69 775 l 64 701 l 64 679 l 63 606 l 64 583 l 68 510 l 69 488 l 68 414 l 68 392 l 69 318 l 69 296 l 68 222 l 68 200 l 65 126 l 64 106 l 57 53 l 57 31 l 64 13 l 78 6 l 133 0 l 156 -1 l 218 -1 l 276 -6 l 299 -6 l 319 -4 l 336 1 l 343 13 l 346 31 l 350 63 l 351 85 l 351 131 l 354 208 l 353 231 l 347 307 l 346 329 l 344 386 l 344 465 l 347 483 l 356 493 l 372 492 l 386 479 l 431 417 l 443 400 l 489 342 l 503 325 l 550 267 l 564 250 l 617 197 l 631 181 l 675 119 l 689 103 l 732 42 l 742 26 l 743 8 l 746 -24 l 744 -46 l 743 -67 l 738 -87 l 725 -110 l 708 -124 l 688 -129 l 676 -129 l 653 -128 l 642 -124 l 622 -121 l 607 -125 l 597 -139 l 578 -186 l 571 -207 l 561 -260 l 560 -279 l 568 -293 l 588 -303 l 611 -310 l 633 -317 l 665 -322 l 688 -326 l 724 -329 l 746 -331 l 769 -329 l 792 -326 l 828 -319 l 849 -314 l 868 -307 l 888 -296 l 908 -283 l 925 -268 l 949 -244 l 961 -226 l 972 -206 l 982 -185 l 992 -151 l 997 -131 l 1003 -100 l 1006 -79 l 1007 -46 l 1008 -24 l 1008 178 z "},"Ñ":{"ha":1140,"x_min":0,"x_max":0,"o":"m 843 1271 l 838 1278 l 733 1350 l 719 1358 l 711 1358 l 699 1349 l 693 1340 l 675 1326 l 654 1317 l 643 1315 l 624 1314 l 615 1314 l 596 1318 l 563 1331 l 540 1340 l 531 1346 l 497 1358 l 475 1364 l 467 1365 l 447 1367 l 426 1367 l 406 1365 l 396 1364 l 376 1360 l 368 1358 l 349 1351 l 338 1346 l 319 1336 l 303 1326 l 285 1313 l 268 1296 l 263 1288 l 250 1269 l 243 1261 l 233 1243 l 225 1226 l 224 1215 l 229 1208 l 340 1138 l 356 1129 l 365 1128 l 376 1138 l 383 1147 l 400 1164 l 421 1176 l 439 1182 l 458 1182 l 469 1181 l 503 1172 l 536 1157 l 547 1151 l 560 1147 l 582 1138 l 615 1129 l 638 1126 l 658 1125 l 679 1125 l 690 1126 l 710 1131 l 731 1138 l 751 1147 l 769 1158 l 776 1164 l 792 1176 l 806 1192 l 818 1211 l 829 1232 l 835 1242 l 842 1260 z m 1004 867 l 1007 889 l 1010 932 l 1008 956 l 1007 968 l 1004 988 l 996 997 l 986 1001 l 971 1004 l 939 1006 l 918 1007 l 871 1004 l 849 1004 l 786 1008 l 763 1007 l 750 1007 l 733 1004 l 724 999 l 718 988 l 714 969 l 714 935 l 718 883 l 719 861 l 714 776 l 714 754 l 719 669 l 719 647 l 715 588 l 717 565 l 726 507 l 726 492 l 717 485 l 706 486 l 694 496 l 644 565 l 631 582 l 578 649 l 565 665 l 515 735 l 501 751 l 450 819 l 436 836 l 385 903 l 371 919 l 313 982 l 304 994 l 297 1000 l 281 1001 l 176 1001 l 135 1004 l 93 1001 l 78 999 l 69 994 l 65 985 l 63 969 l 60 949 l 58 928 l 58 896 l 60 874 l 65 799 l 67 776 l 61 703 l 61 681 l 67 607 l 67 511 l 65 489 l 61 415 l 60 393 l 57 224 l 57 201 l 61 128 l 60 106 l 57 60 l 57 39 l 58 29 l 61 15 l 67 6 l 78 -1 l 93 -4 l 114 -6 l 136 -6 l 193 -3 l 215 -3 l 279 -4 l 303 -3 l 314 -1 l 331 1 l 340 4 l 350 14 l 354 32 l 353 54 l 344 110 l 343 132 l 347 210 l 347 232 l 346 310 l 346 332 l 344 401 l 344 424 l 347 493 l 351 510 l 361 514 l 374 503 l 425 435 l 439 418 l 493 351 l 506 335 l 554 263 l 567 244 l 621 178 l 635 161 l 689 93 l 701 75 l 722 35 l 735 17 l 751 4 l 768 -3 l 786 -7 l 808 -7 l 843 -6 l 865 -4 l 936 -1 l 956 0 l 968 4 l 982 14 l 993 29 l 999 46 l 1000 65 l 999 146 l 1003 213 l 1004 236 l 1006 247 l 1006 271 l 1003 454 l 1003 476 l 999 557 l 999 763 l 1000 785 z "},"O":{"ha":1213,"x_min":0,"x_max":0,"o":"m 1128 560 l 1124 583 l 1121 607 l 1113 649 l 1106 681 l 1099 700 l 1089 721 l 1078 739 l 1063 767 l 1051 785 l 1042 803 l 1031 821 l 1011 847 l 999 864 l 983 879 l 968 893 l 944 915 l 926 929 l 908 942 l 863 968 l 843 976 l 814 988 l 793 994 l 772 1000 l 750 1006 l 726 1010 l 703 1015 l 679 1019 l 656 1022 l 622 1024 l 581 1026 l 536 1024 l 467 1015 l 446 1011 l 393 1001 l 372 996 l 351 989 l 332 982 l 303 969 l 283 960 l 264 949 l 246 938 l 204 910 l 186 897 l 168 883 l 144 864 l 128 847 l 121 836 l 107 817 l 88 786 l 76 765 l 71 753 l 61 731 l 51 699 l 43 676 l 36 656 l 29 632 l 24 608 l 19 585 l 17 561 l 15 536 l 14 513 l 14 489 l 15 465 l 17 444 l 21 414 l 25 393 l 29 371 l 33 350 l 42 321 l 63 258 l 74 231 l 85 213 l 99 194 l 113 178 l 150 140 l 165 122 l 182 104 l 200 89 l 218 75 l 239 63 l 260 51 l 304 32 l 328 22 l 350 15 l 425 -10 l 446 -15 l 465 -19 l 511 -25 l 558 -28 l 633 -28 l 657 -26 l 681 -22 l 704 -17 l 726 -11 l 750 -4 l 794 10 l 815 15 l 843 26 l 863 35 l 883 46 l 901 57 l 926 74 l 943 86 l 961 100 l 976 114 l 999 138 l 1013 153 l 1026 171 l 1039 189 l 1076 251 l 1086 271 l 1100 300 l 1106 321 l 1110 343 l 1113 364 l 1115 396 l 1124 438 l 1126 458 l 1129 490 l 1131 513 z m 774 310 l 760 294 l 738 272 l 721 260 l 690 240 l 671 232 l 640 225 l 618 222 l 583 219 l 560 221 l 525 225 l 504 229 l 475 239 l 454 247 l 432 258 l 413 271 l 385 294 l 368 311 l 360 321 l 344 340 l 338 351 l 326 371 l 321 382 l 314 401 l 311 411 l 306 432 l 304 444 l 300 467 l 299 489 l 299 510 l 300 531 l 301 550 l 304 569 l 308 589 l 313 599 l 319 619 l 332 649 l 336 657 l 347 675 l 363 696 l 378 713 l 400 732 l 419 744 l 451 761 l 474 769 l 510 779 l 531 783 l 561 785 l 582 786 l 626 783 l 649 779 l 671 772 l 690 764 l 726 743 l 742 731 l 763 708 l 776 693 l 796 668 l 807 650 l 822 619 l 828 600 l 836 558 l 838 536 l 839 513 l 839 489 l 836 456 l 833 435 l 826 403 l 818 382 l 804 351 l 792 332 z "},"Ó":{"ha":1213,"x_min":0,"x_max":0,"o":"m 797 1339 l 783 1343 l 744 1346 l 714 1343 l 693 1343 l 628 1342 l 607 1342 l 575 1343 l 553 1343 l 542 1342 l 525 1342 l 518 1338 l 510 1324 l 476 1250 l 465 1231 l 424 1147 l 424 1143 l 425 1139 l 429 1138 l 442 1136 l 544 1136 l 613 1132 l 624 1133 l 640 1136 l 654 1143 l 667 1157 l 724 1226 l 738 1243 l 792 1315 l 800 1329 z m 1128 560 l 1124 583 l 1121 607 l 1113 649 l 1106 681 l 1099 700 l 1089 721 l 1078 739 l 1063 767 l 1051 785 l 1042 803 l 1031 821 l 1011 847 l 999 864 l 983 879 l 968 893 l 944 915 l 926 929 l 908 942 l 863 968 l 843 976 l 814 988 l 793 994 l 772 1000 l 750 1006 l 726 1010 l 703 1015 l 679 1019 l 656 1022 l 622 1024 l 581 1026 l 536 1024 l 467 1015 l 446 1011 l 393 1001 l 372 996 l 351 989 l 332 982 l 303 969 l 283 960 l 264 949 l 246 938 l 204 910 l 186 897 l 168 883 l 144 864 l 128 847 l 121 836 l 107 817 l 88 786 l 76 765 l 71 753 l 61 731 l 51 699 l 43 676 l 36 656 l 29 632 l 24 608 l 19 585 l 17 561 l 15 536 l 14 513 l 14 489 l 15 465 l 17 444 l 21 414 l 25 393 l 29 371 l 33 350 l 42 321 l 63 258 l 74 231 l 85 213 l 99 194 l 113 178 l 150 140 l 165 122 l 182 104 l 200 89 l 218 75 l 239 63 l 260 51 l 304 32 l 328 22 l 350 15 l 425 -10 l 446 -15 l 465 -19 l 511 -25 l 558 -28 l 633 -28 l 657 -26 l 681 -22 l 704 -17 l 726 -11 l 750 -4 l 794 10 l 815 15 l 843 26 l 863 35 l 883 46 l 901 57 l 926 74 l 943 86 l 961 100 l 976 114 l 999 138 l 1013 153 l 1026 171 l 1039 189 l 1076 251 l 1086 271 l 1100 300 l 1106 321 l 1110 343 l 1113 364 l 1115 396 l 1124 438 l 1126 458 l 1129 490 l 1131 513 z m 774 310 l 760 294 l 738 272 l 721 260 l 690 240 l 671 232 l 640 225 l 618 222 l 583 219 l 560 221 l 525 225 l 504 229 l 475 239 l 454 247 l 432 258 l 413 271 l 385 294 l 368 311 l 360 321 l 344 340 l 338 351 l 326 371 l 321 382 l 314 401 l 311 411 l 306 432 l 304 444 l 300 467 l 299 489 l 299 510 l 300 531 l 301 550 l 304 569 l 308 589 l 313 599 l 319 619 l 332 649 l 336 657 l 347 675 l 363 696 l 378 713 l 400 732 l 419 744 l 451 761 l 474 769 l 510 779 l 531 783 l 561 785 l 582 786 l 626 783 l 649 779 l 671 772 l 690 764 l 726 743 l 742 731 l 763 708 l 776 693 l 796 668 l 807 650 l 822 619 l 828 600 l 836 558 l 838 536 l 839 513 l 839 489 l 836 456 l 833 435 l 826 403 l 818 382 l 804 351 l 792 332 z "},"Ô":{"ha":1213,"x_min":0,"x_max":0,"o":"m 874 1160 l 865 1171 l 814 1224 l 799 1239 l 742 1289 l 674 1357 l 664 1368 l 656 1374 l 647 1376 l 632 1376 l 579 1381 l 558 1381 l 514 1378 l 496 1376 l 485 1374 l 476 1368 l 464 1357 l 454 1349 l 439 1335 l 410 1304 l 394 1289 l 340 1238 l 325 1224 l 294 1193 l 279 1176 l 274 1168 l 265 1158 l 264 1150 l 268 1142 l 281 1139 l 300 1138 l 321 1138 l 368 1142 l 390 1143 l 492 1143 l 497 1144 l 508 1154 l 557 1194 l 568 1203 l 571 1203 l 582 1194 l 636 1150 l 647 1142 l 661 1139 l 768 1139 l 814 1136 l 835 1136 l 856 1138 l 869 1142 l 875 1151 z m 1128 560 l 1124 583 l 1121 607 l 1113 649 l 1106 681 l 1099 700 l 1089 721 l 1078 739 l 1063 767 l 1051 785 l 1042 803 l 1031 821 l 1011 847 l 999 864 l 983 879 l 968 893 l 944 915 l 926 929 l 908 942 l 863 968 l 843 976 l 814 988 l 793 994 l 772 1000 l 750 1006 l 726 1010 l 703 1015 l 679 1019 l 656 1022 l 622 1024 l 581 1026 l 536 1024 l 467 1015 l 446 1011 l 393 1001 l 372 996 l 351 989 l 332 982 l 303 969 l 283 960 l 264 949 l 246 938 l 204 910 l 186 897 l 168 883 l 144 864 l 128 847 l 121 836 l 107 817 l 88 786 l 76 765 l 71 753 l 61 731 l 51 699 l 43 676 l 36 656 l 29 632 l 24 608 l 19 585 l 17 561 l 15 536 l 14 513 l 14 489 l 15 465 l 17 444 l 21 414 l 25 393 l 29 371 l 33 350 l 42 321 l 63 258 l 74 231 l 85 213 l 99 194 l 113 178 l 150 140 l 165 122 l 182 104 l 200 89 l 218 75 l 239 63 l 260 51 l 304 32 l 328 22 l 350 15 l 425 -10 l 446 -15 l 465 -19 l 511 -25 l 558 -28 l 633 -28 l 657 -26 l 681 -22 l 704 -17 l 726 -11 l 750 -4 l 794 10 l 815 15 l 843 26 l 863 35 l 883 46 l 901 57 l 926 74 l 943 86 l 961 100 l 976 114 l 999 138 l 1013 153 l 1026 171 l 1039 189 l 1076 251 l 1086 271 l 1100 300 l 1106 321 l 1110 343 l 1113 364 l 1115 396 l 1124 438 l 1126 458 l 1129 490 l 1131 513 z m 774 310 l 760 294 l 738 272 l 721 260 l 690 240 l 671 232 l 640 225 l 618 222 l 583 219 l 560 221 l 525 225 l 504 229 l 475 239 l 454 247 l 432 258 l 413 271 l 385 294 l 368 311 l 360 321 l 344 340 l 338 351 l 326 371 l 321 382 l 314 401 l 311 411 l 306 432 l 304 444 l 300 467 l 299 489 l 299 510 l 300 531 l 301 550 l 304 569 l 308 589 l 313 599 l 319 619 l 332 649 l 336 657 l 347 675 l 363 696 l 378 713 l 400 732 l 419 744 l 451 761 l 474 769 l 510 779 l 531 783 l 561 785 l 582 786 l 626 783 l 649 779 l 671 772 l 690 764 l 726 743 l 742 731 l 763 708 l 776 693 l 796 668 l 807 650 l 822 619 l 828 600 l 836 558 l 838 536 l 839 513 l 839 489 l 836 456 l 833 435 l 826 403 l 818 382 l 804 351 l 792 332 z "},"Ö":{"ha":1213,"x_min":0,"x_max":0,"o":"m 488 1236 l 486 1256 l 479 1279 l 469 1301 l 458 1317 l 443 1329 l 435 1335 l 415 1346 l 393 1351 l 385 1354 l 364 1357 l 343 1356 l 335 1356 l 314 1351 l 304 1347 l 283 1339 l 265 1326 l 249 1310 l 233 1290 l 225 1272 l 221 1257 l 218 1238 l 218 1217 l 221 1197 l 226 1179 l 238 1161 l 251 1144 l 265 1131 l 281 1121 l 297 1113 l 315 1107 l 333 1103 l 365 1103 l 378 1104 l 401 1110 l 421 1118 l 439 1129 l 456 1142 l 467 1157 l 476 1174 l 483 1193 l 488 1215 z m 911 1236 l 910 1256 l 903 1279 l 893 1301 l 882 1317 l 867 1329 l 858 1335 l 839 1346 l 817 1351 l 808 1354 l 788 1357 l 767 1356 l 758 1356 l 738 1351 l 728 1347 l 707 1339 l 689 1326 l 672 1310 l 657 1290 l 649 1272 l 644 1257 l 642 1238 l 642 1217 l 644 1197 l 650 1179 l 661 1161 l 675 1144 l 689 1131 l 703 1121 l 721 1113 l 739 1107 l 757 1103 l 789 1103 l 801 1104 l 825 1110 l 844 1118 l 863 1129 l 879 1142 l 890 1157 l 900 1174 l 907 1193 l 911 1215 z m 1128 560 l 1124 583 l 1121 607 l 1113 649 l 1106 681 l 1099 700 l 1089 721 l 1078 739 l 1063 767 l 1051 785 l 1042 803 l 1031 821 l 1011 847 l 999 864 l 983 879 l 968 893 l 944 915 l 926 929 l 908 942 l 863 968 l 843 976 l 814 988 l 793 994 l 772 1000 l 750 1006 l 726 1010 l 703 1015 l 679 1019 l 656 1022 l 622 1024 l 581 1026 l 536 1024 l 467 1015 l 446 1011 l 393 1001 l 372 996 l 351 989 l 332 982 l 303 969 l 283 960 l 264 949 l 246 938 l 204 910 l 186 897 l 168 883 l 144 864 l 128 847 l 121 836 l 107 817 l 88 786 l 76 765 l 71 753 l 61 731 l 51 699 l 43 676 l 36 656 l 29 632 l 24 608 l 19 585 l 17 561 l 15 536 l 14 513 l 14 489 l 15 465 l 17 444 l 21 414 l 25 393 l 29 371 l 33 350 l 42 321 l 63 258 l 74 231 l 85 213 l 99 194 l 113 178 l 150 140 l 165 122 l 182 104 l 200 89 l 218 75 l 239 63 l 260 51 l 304 32 l 328 22 l 350 15 l 425 -10 l 446 -15 l 465 -19 l 511 -25 l 558 -28 l 633 -28 l 657 -26 l 681 -22 l 704 -17 l 726 -11 l 750 -4 l 794 10 l 815 15 l 843 26 l 863 35 l 883 46 l 901 57 l 926 74 l 943 86 l 961 100 l 976 114 l 999 138 l 1013 153 l 1026 171 l 1039 189 l 1076 251 l 1086 271 l 1100 300 l 1106 321 l 1110 343 l 1113 364 l 1115 396 l 1124 438 l 1126 458 l 1129 490 l 1131 513 z m 774 310 l 760 294 l 738 272 l 721 260 l 690 240 l 671 232 l 640 225 l 618 222 l 583 219 l 560 221 l 525 225 l 504 229 l 475 239 l 454 247 l 432 258 l 413 271 l 385 294 l 368 311 l 360 321 l 344 340 l 338 351 l 326 371 l 321 382 l 314 401 l 311 411 l 306 432 l 304 444 l 300 467 l 299 489 l 299 510 l 300 531 l 301 550 l 304 569 l 308 589 l 313 599 l 319 619 l 332 649 l 336 657 l 347 675 l 363 696 l 378 713 l 400 732 l 419 744 l 451 761 l 474 769 l 510 779 l 531 783 l 561 785 l 582 786 l 626 783 l 649 779 l 671 772 l 690 764 l 726 743 l 742 731 l 763 708 l 776 693 l 796 668 l 807 650 l 822 619 l 828 600 l 836 558 l 838 536 l 839 513 l 839 489 l 836 456 l 833 435 l 826 403 l 818 382 l 804 351 l 792 332 z "},"Ò":{"ha":1213,"x_min":0,"x_max":0,"o":"m 668 1153 l 664 1172 l 654 1194 l 632 1233 l 622 1254 l 608 1286 l 599 1307 l 593 1318 l 583 1335 l 569 1343 l 551 1346 l 540 1346 l 519 1347 l 426 1342 l 361 1346 l 338 1346 l 325 1344 l 307 1340 l 301 1329 l 307 1311 l 313 1303 l 325 1285 l 363 1242 l 433 1157 l 444 1144 l 457 1139 l 475 1136 l 486 1135 l 508 1135 l 550 1138 l 613 1133 l 635 1133 l 644 1135 l 663 1140 z m 1128 560 l 1124 583 l 1121 607 l 1113 649 l 1106 681 l 1099 700 l 1089 721 l 1078 739 l 1063 767 l 1051 785 l 1042 803 l 1031 821 l 1011 847 l 999 864 l 983 879 l 968 893 l 944 915 l 926 929 l 908 942 l 863 968 l 843 976 l 814 988 l 793 994 l 772 1000 l 750 1006 l 726 1010 l 703 1015 l 679 1019 l 656 1022 l 622 1024 l 581 1026 l 536 1024 l 467 1015 l 446 1011 l 393 1001 l 372 996 l 351 989 l 332 982 l 303 969 l 283 960 l 264 949 l 246 938 l 204 910 l 186 897 l 168 883 l 144 864 l 128 847 l 121 836 l 107 817 l 88 786 l 76 765 l 71 753 l 61 731 l 51 699 l 43 676 l 36 656 l 29 632 l 24 608 l 19 585 l 17 561 l 15 536 l 14 513 l 14 489 l 15 465 l 17 444 l 21 414 l 25 393 l 29 371 l 33 350 l 42 321 l 63 258 l 74 231 l 85 213 l 99 194 l 113 178 l 150 140 l 165 122 l 182 104 l 200 89 l 218 75 l 239 63 l 260 51 l 304 32 l 328 22 l 350 15 l 425 -10 l 446 -15 l 465 -19 l 511 -25 l 558 -28 l 633 -28 l 657 -26 l 681 -22 l 704 -17 l 726 -11 l 750 -4 l 794 10 l 815 15 l 843 26 l 863 35 l 883 46 l 901 57 l 926 74 l 943 86 l 961 100 l 976 114 l 999 138 l 1013 153 l 1026 171 l 1039 189 l 1076 251 l 1086 271 l 1100 300 l 1106 321 l 1110 343 l 1113 364 l 1115 396 l 1124 438 l 1126 458 l 1129 490 l 1131 513 z m 774 310 l 760 294 l 738 272 l 721 260 l 690 240 l 671 232 l 640 225 l 618 222 l 583 219 l 560 221 l 525 225 l 504 229 l 475 239 l 454 247 l 432 258 l 413 271 l 385 294 l 368 311 l 360 321 l 344 340 l 338 351 l 326 371 l 321 382 l 314 401 l 311 411 l 306 432 l 304 444 l 300 467 l 299 489 l 299 510 l 300 531 l 301 550 l 304 569 l 308 589 l 313 599 l 319 619 l 332 649 l 336 657 l 347 675 l 363 696 l 378 713 l 400 732 l 419 744 l 451 761 l 474 769 l 510 779 l 531 783 l 561 785 l 582 786 l 626 783 l 649 779 l 671 772 l 690 764 l 726 743 l 742 731 l 763 708 l 776 693 l 796 668 l 807 650 l 822 619 l 828 600 l 836 558 l 838 536 l 839 513 l 839 489 l 836 456 l 833 435 l 826 403 l 818 382 l 804 351 l 792 332 z "},"Ő":{"ha":1213,"x_min":0,"x_max":0,"o":"m 907 1367 l 897 1371 l 881 1374 l 847 1376 l 825 1378 l 779 1378 l 738 1381 l 718 1381 l 697 1379 l 682 1376 l 674 1371 l 667 1363 l 657 1347 l 603 1267 l 592 1247 l 546 1163 l 540 1151 l 539 1146 l 543 1142 l 557 1139 l 568 1138 l 590 1139 l 643 1143 l 665 1143 l 724 1139 l 753 1139 l 767 1142 l 774 1149 l 782 1164 l 836 1246 l 849 1265 l 882 1311 l 894 1329 l 904 1347 l 910 1360 z m 617 1363 l 611 1369 l 600 1372 l 554 1376 l 535 1378 l 483 1378 l 442 1379 l 422 1379 l 401 1378 l 388 1376 l 376 1368 l 365 1351 l 310 1269 l 299 1250 l 253 1163 l 247 1149 l 249 1142 l 263 1139 l 283 1138 l 304 1139 l 349 1143 l 371 1144 l 428 1140 l 461 1140 l 475 1143 l 483 1154 l 539 1242 l 553 1261 l 590 1315 l 604 1336 l 610 1347 z m 1128 560 l 1124 583 l 1121 607 l 1113 649 l 1106 681 l 1099 700 l 1089 721 l 1078 739 l 1063 767 l 1051 785 l 1042 803 l 1031 821 l 1011 847 l 999 864 l 983 879 l 968 893 l 944 915 l 926 929 l 908 942 l 863 968 l 843 976 l 814 988 l 793 994 l 772 1000 l 750 1006 l 726 1010 l 703 1015 l 679 1019 l 656 1022 l 622 1024 l 581 1026 l 536 1024 l 467 1015 l 446 1011 l 393 1001 l 372 996 l 351 989 l 332 982 l 303 969 l 283 960 l 264 949 l 246 938 l 204 910 l 186 897 l 168 883 l 144 864 l 128 847 l 121 836 l 107 817 l 88 786 l 76 765 l 71 753 l 61 731 l 51 699 l 43 676 l 36 656 l 29 632 l 24 608 l 19 585 l 17 561 l 15 536 l 14 513 l 14 489 l 15 465 l 17 444 l 21 414 l 25 393 l 29 371 l 33 350 l 42 321 l 63 258 l 74 231 l 85 213 l 99 194 l 113 178 l 150 140 l 165 122 l 182 104 l 200 89 l 218 75 l 239 63 l 260 51 l 304 32 l 328 22 l 350 15 l 425 -10 l 446 -15 l 465 -19 l 511 -25 l 558 -28 l 633 -28 l 657 -26 l 681 -22 l 704 -17 l 726 -11 l 750 -4 l 794 10 l 815 15 l 843 26 l 863 35 l 883 46 l 901 57 l 926 74 l 943 86 l 961 100 l 976 114 l 999 138 l 1013 153 l 1026 171 l 1039 189 l 1076 251 l 1086 271 l 1100 300 l 1106 321 l 1110 343 l 1113 364 l 1115 396 l 1124 438 l 1126 458 l 1129 490 l 1131 513 z m 774 310 l 760 294 l 738 272 l 721 260 l 690 240 l 671 232 l 640 225 l 618 222 l 583 219 l 560 221 l 525 225 l 504 229 l 475 239 l 454 247 l 432 258 l 413 271 l 385 294 l 368 311 l 360 321 l 344 340 l 338 351 l 326 371 l 321 382 l 314 401 l 311 411 l 306 432 l 304 444 l 300 467 l 299 489 l 299 510 l 300 531 l 301 550 l 304 569 l 308 589 l 313 599 l 319 619 l 332 649 l 336 657 l 347 675 l 363 696 l 378 713 l 400 732 l 419 744 l 451 761 l 474 769 l 510 779 l 531 783 l 561 785 l 582 786 l 626 783 l 649 779 l 671 772 l 690 764 l 726 743 l 742 731 l 763 708 l 776 693 l 796 668 l 807 650 l 822 619 l 828 600 l 836 558 l 838 536 l 839 513 l 839 489 l 836 456 l 833 435 l 826 403 l 818 382 l 804 351 l 792 332 z "},"Ō":{"ha":1213,"x_min":0,"x_max":0,"o":"m 819 1228 l 819 1249 l 824 1299 l 821 1313 l 819 1325 l 814 1335 l 804 1342 l 788 1344 l 776 1346 l 754 1346 l 688 1342 l 610 1344 l 511 1346 l 489 1346 l 411 1340 l 389 1340 l 311 1342 l 296 1342 l 288 1336 l 283 1326 l 281 1308 l 278 1296 l 278 1272 l 279 1249 l 279 1226 l 278 1203 l 278 1179 l 279 1168 l 282 1150 l 288 1139 l 296 1133 l 311 1131 l 321 1129 l 343 1129 l 411 1133 l 489 1135 l 511 1135 l 688 1132 l 710 1132 l 751 1129 l 774 1129 l 786 1131 l 804 1133 l 813 1139 l 819 1149 l 822 1165 l 824 1181 l 822 1196 z m 1128 560 l 1124 583 l 1121 607 l 1113 649 l 1106 681 l 1099 700 l 1089 721 l 1078 739 l 1063 767 l 1051 785 l 1042 803 l 1031 821 l 1011 847 l 999 864 l 983 879 l 968 893 l 944 915 l 926 929 l 908 942 l 863 968 l 843 976 l 814 988 l 793 994 l 772 1000 l 750 1006 l 726 1010 l 703 1015 l 679 1019 l 656 1022 l 622 1024 l 581 1026 l 536 1024 l 467 1015 l 446 1011 l 393 1001 l 372 996 l 351 989 l 332 982 l 303 969 l 283 960 l 264 949 l 246 938 l 204 910 l 186 897 l 168 883 l 144 864 l 128 847 l 121 836 l 107 817 l 88 786 l 76 765 l 71 753 l 61 731 l 51 699 l 43 676 l 36 656 l 29 632 l 24 608 l 19 585 l 17 561 l 15 536 l 14 513 l 14 489 l 15 465 l 17 444 l 21 414 l 25 393 l 29 371 l 33 350 l 42 321 l 63 258 l 74 231 l 85 213 l 99 194 l 113 178 l 150 140 l 165 122 l 182 104 l 200 89 l 218 75 l 239 63 l 260 51 l 304 32 l 328 22 l 350 15 l 425 -10 l 446 -15 l 465 -19 l 511 -25 l 558 -28 l 633 -28 l 657 -26 l 681 -22 l 704 -17 l 726 -11 l 750 -4 l 794 10 l 815 15 l 843 26 l 863 35 l 883 46 l 901 57 l 926 74 l 943 86 l 961 100 l 976 114 l 999 138 l 1013 153 l 1026 171 l 1039 189 l 1076 251 l 1086 271 l 1100 300 l 1106 321 l 1110 343 l 1113 364 l 1115 396 l 1124 438 l 1126 458 l 1129 490 l 1131 513 z m 774 310 l 760 294 l 738 272 l 721 260 l 690 240 l 671 232 l 640 225 l 618 222 l 583 219 l 560 221 l 525 225 l 504 229 l 475 239 l 454 247 l 432 258 l 413 271 l 385 294 l 368 311 l 360 321 l 344 340 l 338 351 l 326 371 l 321 382 l 314 401 l 311 411 l 306 432 l 304 444 l 300 467 l 299 489 l 299 510 l 300 531 l 301 550 l 304 569 l 308 589 l 313 599 l 319 619 l 332 649 l 336 657 l 347 675 l 363 696 l 378 713 l 400 732 l 419 744 l 451 761 l 474 769 l 510 779 l 531 783 l 561 785 l 582 786 l 626 783 l 649 779 l 671 772 l 690 764 l 726 743 l 742 731 l 763 708 l 776 693 l 796 668 l 807 650 l 822 619 l 828 600 l 836 558 l 838 536 l 839 513 l 839 489 l 836 456 l 833 435 l 826 403 l 818 382 l 804 351 l 792 332 z "},"Ø":{"ha":1211,"x_min":0,"x_max":0,"o":"m 1128 547 l 1119 594 l 1115 619 l 1111 654 l 1107 678 l 1101 701 l 1094 722 l 1071 769 l 1053 799 l 1040 818 l 1018 847 l 988 883 l 975 897 l 972 907 l 979 922 l 1063 1044 l 1072 1061 l 1069 1075 l 1058 1089 l 1042 1097 l 1021 1100 l 968 1104 l 946 1104 l 903 1101 l 867 1099 l 849 1093 l 833 1081 l 788 1018 l 778 1007 l 769 1003 l 753 1004 l 729 1011 l 707 1017 l 683 1021 l 636 1026 l 588 1029 l 529 1029 l 488 1026 l 468 1024 l 426 1015 l 394 1008 l 374 1001 l 350 994 l 328 986 l 304 976 l 283 967 l 263 956 l 244 944 l 219 928 l 203 915 l 171 886 l 149 863 l 133 846 l 126 838 l 111 818 l 90 788 l 79 768 l 67 742 l 58 721 l 51 700 l 44 678 l 40 656 l 36 635 l 32 604 l 29 585 l 25 565 l 21 544 l 15 511 l 14 489 l 15 458 l 17 436 l 21 400 l 25 378 l 32 347 l 39 325 l 50 294 l 69 253 l 81 233 l 104 197 l 117 179 l 135 151 l 149 135 l 172 111 l 185 97 l 185 83 l 174 65 l 136 8 l 124 -10 l 106 -36 l 97 -54 l 93 -64 l 89 -81 l 88 -90 l 90 -99 l 97 -107 l 115 -114 l 126 -115 l 150 -117 l 203 -112 l 225 -112 l 246 -114 l 289 -111 l 307 -101 l 321 -85 l 342 -61 l 356 -43 l 361 -33 l 374 -18 l 388 -8 l 406 -8 l 426 -12 l 449 -17 l 472 -21 l 496 -24 l 519 -25 l 543 -25 l 564 -26 l 588 -26 l 611 -25 l 636 -25 l 660 -24 l 682 -19 l 706 -15 l 729 -8 l 797 14 l 819 21 l 842 31 l 863 40 l 889 56 l 907 68 l 968 111 l 985 124 l 1015 154 l 1028 172 l 1040 189 l 1057 215 l 1068 235 l 1078 256 l 1086 278 l 1093 301 l 1101 322 l 1111 350 l 1118 371 l 1124 393 l 1128 417 l 1132 451 l 1133 476 l 1135 488 l 1133 511 z m 414 435 l 400 415 l 357 347 l 346 340 l 339 354 l 332 375 l 324 393 l 317 413 l 310 444 l 306 465 l 304 489 l 304 513 l 308 547 l 313 572 l 319 596 l 328 618 l 342 650 l 353 669 l 372 693 l 386 708 l 414 731 l 432 742 l 458 756 l 510 774 l 531 778 l 564 782 l 585 782 l 593 779 l 626 778 l 632 767 l 586 694 l 574 676 l 524 613 l 511 593 l 471 521 l 458 501 z m 533 221 l 529 232 l 801 651 l 811 651 l 826 619 l 833 600 l 842 558 l 846 536 l 847 513 l 847 489 l 846 465 l 842 442 l 833 406 l 826 385 l 807 346 l 796 326 l 772 299 l 757 283 l 722 258 l 704 247 l 664 232 l 643 226 l 611 221 l 588 219 l 565 219 z "},"Õ":{"ha":1213,"x_min":0,"x_max":0,"o":"m 869 1271 l 864 1278 l 760 1350 l 746 1358 l 738 1358 l 725 1349 l 719 1340 l 701 1326 l 681 1317 l 669 1315 l 650 1314 l 642 1314 l 622 1318 l 589 1331 l 567 1340 l 557 1346 l 524 1358 l 501 1364 l 493 1365 l 474 1367 l 453 1367 l 432 1365 l 422 1364 l 403 1360 l 394 1358 l 375 1351 l 364 1346 l 346 1336 l 329 1326 l 311 1313 l 294 1296 l 289 1288 l 276 1269 l 269 1261 l 260 1243 l 251 1226 l 250 1215 l 256 1208 l 367 1138 l 382 1129 l 392 1128 l 403 1138 l 410 1147 l 426 1164 l 447 1176 l 465 1182 l 485 1182 l 496 1181 l 529 1172 l 563 1157 l 574 1151 l 586 1147 l 608 1138 l 642 1129 l 664 1126 l 685 1125 l 706 1125 l 717 1126 l 736 1131 l 757 1138 l 778 1147 l 796 1158 l 803 1164 l 818 1176 l 832 1192 l 844 1211 l 856 1232 l 861 1242 l 868 1260 z m 1128 560 l 1124 583 l 1121 607 l 1113 649 l 1106 681 l 1099 700 l 1089 721 l 1078 739 l 1063 767 l 1051 785 l 1042 803 l 1031 821 l 1011 847 l 999 864 l 983 879 l 968 893 l 944 915 l 926 929 l 908 942 l 863 968 l 843 976 l 814 988 l 793 994 l 772 1000 l 750 1006 l 726 1010 l 703 1015 l 679 1019 l 656 1022 l 622 1024 l 581 1026 l 536 1024 l 467 1015 l 446 1011 l 393 1001 l 372 996 l 351 989 l 332 982 l 303 969 l 283 960 l 264 949 l 246 938 l 204 910 l 186 897 l 168 883 l 144 864 l 128 847 l 121 836 l 107 817 l 88 786 l 76 765 l 71 753 l 61 731 l 51 699 l 43 676 l 36 656 l 29 632 l 24 608 l 19 585 l 17 561 l 15 536 l 14 513 l 14 489 l 15 465 l 17 444 l 21 414 l 25 393 l 29 371 l 33 350 l 42 321 l 63 258 l 74 231 l 85 213 l 99 194 l 113 178 l 150 140 l 165 122 l 182 104 l 200 89 l 218 75 l 239 63 l 260 51 l 304 32 l 328 22 l 350 15 l 425 -10 l 446 -15 l 465 -19 l 511 -25 l 558 -28 l 633 -28 l 657 -26 l 681 -22 l 704 -17 l 726 -11 l 750 -4 l 794 10 l 815 15 l 843 26 l 863 35 l 883 46 l 901 57 l 926 74 l 943 86 l 961 100 l 976 114 l 999 138 l 1013 153 l 1026 171 l 1039 189 l 1076 251 l 1086 271 l 1100 300 l 1106 321 l 1110 343 l 1113 364 l 1115 396 l 1124 438 l 1126 458 l 1129 490 l 1131 513 z m 774 310 l 760 294 l 738 272 l 721 260 l 690 240 l 671 232 l 640 225 l 618 222 l 583 219 l 560 221 l 525 225 l 504 229 l 475 239 l 454 247 l 432 258 l 413 271 l 385 294 l 368 311 l 360 321 l 344 340 l 338 351 l 326 371 l 321 382 l 314 401 l 311 411 l 306 432 l 304 444 l 300 467 l 299 489 l 299 510 l 300 531 l 301 550 l 304 569 l 308 589 l 313 599 l 319 619 l 332 649 l 336 657 l 347 675 l 363 696 l 378 713 l 400 732 l 419 744 l 451 761 l 474 769 l 510 779 l 531 783 l 561 785 l 582 786 l 626 783 l 649 779 l 671 772 l 690 764 l 726 743 l 742 731 l 763 708 l 776 693 l 796 668 l 807 650 l 822 619 l 828 600 l 836 558 l 838 536 l 839 513 l 839 489 l 836 456 l 833 435 l 826 403 l 818 382 l 804 351 l 792 332 z "},"Œ":{"ha":1474,"x_min":0,"x_max":0,"o":"m 1367 154 l 1364 193 l 1361 211 l 1351 224 l 1335 228 l 1304 228 l 1253 219 l 1231 218 l 1151 224 l 1129 224 l 1049 219 l 1026 219 l 947 224 l 929 229 l 921 240 l 919 256 l 917 303 l 915 325 l 919 379 l 922 400 l 929 413 l 946 417 l 1018 415 l 1040 414 l 1111 407 l 1133 406 l 1204 408 l 1269 404 l 1300 404 l 1315 411 l 1322 425 l 1326 443 l 1331 464 l 1333 485 l 1335 507 l 1335 565 l 1333 586 l 1332 594 l 1328 615 l 1317 629 l 1299 633 l 1268 633 l 1226 629 l 1204 628 l 1133 626 l 1111 626 l 1040 631 l 975 626 l 946 626 l 932 631 l 928 640 l 925 658 l 921 703 l 919 724 l 922 754 l 924 771 l 931 779 l 947 782 l 1046 788 l 1124 788 l 1146 786 l 1222 781 l 1244 779 l 1279 779 l 1301 781 l 1322 785 l 1342 789 l 1353 799 l 1358 815 l 1360 835 l 1360 854 l 1357 885 l 1358 906 l 1361 940 l 1361 972 l 1354 993 l 1342 1004 l 1324 1008 l 1315 1010 l 1294 1011 l 1060 1007 l 1038 1007 l 964 1010 l 942 1010 l 774 1001 l 751 1003 l 729 1007 l 682 1015 l 660 1019 l 639 1024 l 618 1026 l 574 1029 l 550 1029 l 529 1028 l 497 1026 l 396 1013 l 374 1008 l 342 1003 l 321 996 l 294 983 l 275 974 l 249 956 l 228 944 l 186 919 l 160 900 l 143 885 l 121 863 l 108 846 l 90 818 l 81 800 l 67 768 l 58 747 l 51 724 l 43 700 l 35 678 l 28 656 l 17 622 l 14 600 l 14 565 l 17 518 l 17 496 l 14 465 l 14 411 l 17 389 l 26 358 l 61 254 l 69 232 l 79 210 l 90 189 l 103 168 l 117 149 l 140 122 l 157 104 l 175 89 l 194 74 l 242 43 l 271 28 l 290 18 l 319 7 l 340 0 l 375 -8 l 399 -12 l 475 -24 l 496 -25 l 528 -28 l 549 -26 l 581 -24 l 600 -21 l 672 -8 l 711 0 l 725 6 l 739 6 l 771 4 l 842 0 l 1025 7 l 1047 6 l 1128 -1 l 1150 -3 l 1231 -4 l 1253 -3 l 1346 7 l 1360 15 l 1364 33 l 1365 54 l 1367 76 l 1365 100 l 1365 122 z m 678 325 l 676 303 l 679 231 l 678 215 l 671 207 l 656 201 l 628 190 l 608 186 l 567 178 l 544 179 l 524 183 l 503 189 l 474 199 l 454 207 l 426 219 l 408 229 l 392 242 l 376 257 l 361 275 l 349 294 l 336 315 l 326 335 l 307 376 l 300 400 l 293 422 l 289 443 l 285 463 l 282 494 l 282 514 l 283 546 l 288 565 l 292 586 l 303 628 l 310 650 l 319 672 l 329 692 l 342 708 l 354 724 l 376 746 l 411 778 l 429 792 l 447 804 l 468 813 l 489 818 l 513 821 l 536 822 l 572 822 l 597 821 l 608 821 l 633 818 l 658 813 l 675 806 l 681 793 l 682 775 l 683 703 l 683 586 l 688 514 l 688 492 l 685 419 l 683 397 z "},"P":{"ha":1031,"x_min":0,"x_max":0,"o":"m 950 657 l 942 696 l 936 715 l 933 726 l 928 746 l 926 756 l 921 775 l 914 796 l 906 814 l 900 822 l 890 839 l 883 847 l 869 865 l 844 890 l 838 899 l 821 913 l 796 935 l 778 949 l 757 961 l 736 971 l 714 979 l 692 986 l 660 994 l 639 999 l 628 999 l 608 1000 l 556 997 l 464 997 l 371 1003 l 278 1003 l 185 1001 l 164 1001 l 132 1003 l 92 1000 l 76 999 l 69 992 l 65 983 l 63 968 l 61 957 l 60 936 l 63 894 l 63 874 l 57 800 l 57 778 l 61 704 l 61 682 l 56 607 l 56 585 l 58 415 l 58 393 l 64 319 l 64 297 l 58 224 l 58 75 l 60 53 l 63 32 l 65 15 l 74 7 l 92 1 l 124 0 l 146 -1 l 190 1 l 213 1 l 267 -1 l 311 1 l 326 4 l 333 7 l 338 15 l 340 31 l 342 61 l 343 82 l 342 124 l 342 146 l 347 239 l 349 257 l 353 267 l 369 269 l 393 272 l 417 274 l 440 272 l 557 272 l 593 275 l 615 276 l 636 279 l 657 283 l 688 292 l 708 299 l 732 308 l 753 318 l 783 332 l 803 344 l 821 357 l 839 372 l 857 389 l 872 406 l 892 432 l 904 450 l 918 476 l 926 496 l 938 524 l 942 546 l 949 581 l 950 604 l 951 625 l 950 646 z m 440 504 l 368 510 l 353 515 l 349 525 l 347 542 l 346 622 l 344 644 l 340 696 l 340 728 l 343 744 l 347 754 l 353 758 l 368 761 l 379 763 l 400 763 l 461 758 l 503 761 l 535 761 l 557 758 l 593 749 l 614 738 l 625 731 l 640 714 l 646 706 l 654 688 l 658 676 l 663 656 l 663 621 l 661 611 l 656 589 l 651 579 l 642 561 l 636 553 l 622 539 l 614 533 l 594 522 l 583 518 l 560 513 l 535 510 z "},"Þ":{"ha":1018,"x_min":0,"x_max":0,"o":"m 928 586 l 921 608 l 907 636 l 896 656 l 883 674 l 869 692 l 850 719 l 836 735 l 821 750 l 804 763 l 797 769 l 779 782 l 758 793 l 719 813 l 699 821 l 678 828 l 647 838 l 625 842 l 603 843 l 581 843 l 549 840 l 526 842 l 453 847 l 431 847 l 372 840 l 353 840 l 343 846 l 342 858 l 344 876 l 351 944 l 351 968 l 346 986 l 333 996 l 217 1004 l 194 1004 l 97 1001 l 79 1000 l 67 989 l 60 969 l 58 950 l 58 929 l 60 893 l 63 871 l 68 797 l 68 775 l 61 701 l 60 679 l 60 583 l 64 510 l 64 488 l 58 414 l 58 392 l 64 318 l 64 296 l 60 222 l 60 106 l 57 64 l 57 29 l 64 13 l 76 4 l 96 1 l 129 -1 l 151 -3 l 193 -1 l 215 -1 l 258 -4 l 281 -3 l 313 0 l 332 3 l 343 11 l 349 28 l 349 38 l 350 58 l 346 122 l 349 142 l 358 153 l 376 157 l 399 157 l 440 151 l 463 150 l 576 154 l 600 156 l 624 158 l 647 163 l 679 169 l 701 176 l 722 183 l 742 193 l 760 203 l 779 215 l 806 233 l 825 249 l 843 264 l 858 281 l 876 304 l 889 322 l 901 342 l 911 361 l 922 393 l 929 415 l 933 439 l 935 460 l 936 490 l 936 510 l 935 540 l 932 563 z m 626 428 l 610 413 l 589 401 l 569 394 l 549 392 l 526 390 l 460 393 l 438 392 l 390 385 l 369 385 l 354 389 l 350 401 l 349 419 l 349 486 l 347 508 l 342 551 l 340 576 l 343 594 l 353 603 l 371 606 l 381 607 l 403 607 l 438 606 l 460 606 l 493 607 l 515 608 l 526 610 l 549 607 l 579 599 l 600 589 l 608 582 l 625 567 l 640 549 l 650 528 l 654 507 l 654 486 l 650 465 l 640 446 z "},"Q":{"ha":1214,"x_min":0,"x_max":0,"o":"m 1144 89 l 1133 104 l 1057 183 l 1046 197 l 1046 207 l 1051 221 l 1065 250 l 1074 271 l 1081 293 l 1089 315 l 1097 339 l 1104 360 l 1111 390 l 1114 411 l 1117 446 l 1117 511 l 1118 535 l 1118 560 l 1117 583 l 1113 606 l 1107 629 l 1101 651 l 1094 675 l 1086 696 l 1076 725 l 1068 744 l 1058 765 l 1046 785 l 1033 803 l 1018 822 l 1001 840 l 971 876 l 954 894 l 938 911 l 919 925 l 872 949 l 851 956 l 833 964 l 815 974 l 796 982 l 746 1000 l 726 1006 l 706 1011 l 674 1017 l 651 1021 l 629 1022 l 608 1022 l 576 1024 l 554 1024 l 531 1022 l 507 1019 l 442 1010 l 419 1006 l 389 999 l 344 985 l 324 976 l 264 949 l 244 939 l 197 908 l 179 894 l 139 861 l 114 831 l 85 783 l 63 744 l 53 724 l 43 700 l 35 678 l 28 654 l 22 631 l 18 607 l 15 585 l 15 553 l 17 532 l 18 510 l 18 489 l 17 468 l 15 446 l 14 414 l 15 393 l 24 351 l 33 319 l 40 299 l 49 281 l 58 261 l 74 233 l 85 214 l 96 193 l 107 175 l 125 150 l 139 135 l 163 113 l 181 99 l 235 60 l 276 35 l 297 24 l 321 14 l 365 -3 l 386 -8 l 418 -15 l 460 -24 l 482 -25 l 503 -25 l 524 -24 l 556 -22 l 576 -21 l 629 -21 l 642 -19 l 665 -18 l 686 -14 l 708 -10 l 753 1 l 774 6 l 796 13 l 817 19 l 833 22 l 847 14 l 888 -25 l 903 -42 l 940 -87 l 951 -99 l 963 -97 l 978 -87 l 1049 -18 l 1065 -3 l 1135 65 l 1146 78 z m 521 219 l 500 225 l 469 235 l 418 256 l 399 267 l 371 285 l 356 301 l 336 331 l 325 350 l 314 381 l 307 401 l 300 436 l 297 457 l 296 489 l 300 551 l 303 572 l 308 596 l 315 617 l 329 647 l 340 667 l 360 693 l 375 710 l 410 736 l 428 749 l 449 758 l 468 765 l 508 778 l 531 782 l 554 783 l 578 783 l 611 779 l 632 775 l 664 765 l 683 757 l 711 740 l 729 728 l 753 706 l 768 690 l 783 672 l 794 653 l 814 617 l 821 596 l 831 563 l 835 540 l 836 510 l 836 488 l 832 446 l 828 424 l 821 401 l 814 381 l 801 349 l 792 329 l 774 303 l 760 286 l 735 267 l 717 254 l 665 232 l 633 222 l 613 218 l 578 213 l 556 213 z "},"R":{"ha":1054,"x_min":0,"x_max":0,"o":"m 990 18 l 983 33 l 971 49 l 928 99 l 914 115 l 864 185 l 850 201 l 800 269 l 788 286 l 738 357 l 732 368 l 743 372 l 761 376 l 779 386 l 796 396 l 824 411 l 839 424 l 861 446 l 874 461 l 886 478 l 899 496 l 911 517 l 921 538 l 929 558 l 935 581 l 939 604 l 942 628 l 943 650 l 943 672 l 940 703 l 939 725 l 935 747 l 928 769 l 918 790 l 908 810 l 892 836 l 879 854 l 860 882 l 846 899 l 832 913 l 817 925 l 790 943 l 772 954 l 751 964 l 729 972 l 708 981 l 688 988 l 658 996 l 638 1000 l 614 1001 l 561 1001 l 469 1007 l 447 1007 l 353 1001 l 188 1007 l 125 1010 l 104 1008 l 93 1007 l 76 1003 l 68 992 l 64 974 l 63 965 l 61 944 l 64 899 l 64 876 l 65 801 l 65 779 l 63 706 l 63 683 l 58 608 l 58 586 l 63 511 l 63 489 l 58 414 l 58 392 l 60 318 l 61 296 l 65 221 l 65 199 l 60 124 l 58 101 l 56 65 l 57 44 l 58 25 l 61 11 l 69 6 l 86 3 l 150 -1 l 172 -1 l 236 3 l 303 -1 l 325 -1 l 340 3 l 347 10 l 350 26 l 351 49 l 351 71 l 350 104 l 349 126 l 343 204 l 342 226 l 344 303 l 349 321 l 360 329 l 378 331 l 422 328 l 439 326 l 447 322 l 457 311 l 501 251 l 514 235 l 553 171 l 565 154 l 610 94 l 622 78 l 667 15 l 678 4 l 690 -1 l 708 -1 l 771 1 l 793 1 l 869 0 l 967 0 l 985 6 z m 472 535 l 450 535 l 378 540 l 361 543 l 351 547 l 349 556 l 347 571 l 350 647 l 349 671 l 346 694 l 343 717 l 342 749 l 343 764 l 351 772 l 361 776 l 378 778 l 449 782 l 471 782 l 540 781 l 563 778 l 593 771 l 613 763 l 628 750 l 640 733 l 650 713 l 656 692 l 658 668 l 660 644 l 658 622 l 653 600 l 643 579 l 629 563 l 613 553 l 594 546 l 564 540 z "},"Ŕ":{"ha":1054,"x_min":0,"x_max":0,"o":"m 683 1339 l 669 1343 l 631 1346 l 600 1343 l 579 1343 l 514 1342 l 493 1342 l 461 1343 l 439 1343 l 428 1342 l 411 1342 l 404 1338 l 396 1324 l 363 1250 l 351 1231 l 310 1147 l 310 1143 l 311 1139 l 315 1138 l 328 1136 l 431 1136 l 499 1132 l 510 1133 l 526 1136 l 540 1143 l 553 1157 l 610 1226 l 624 1243 l 678 1315 l 686 1329 z m 990 18 l 983 33 l 971 49 l 928 99 l 914 115 l 864 185 l 850 201 l 800 269 l 788 286 l 738 357 l 732 368 l 743 372 l 761 376 l 779 386 l 796 396 l 824 411 l 839 424 l 861 446 l 874 461 l 886 478 l 899 496 l 911 517 l 921 538 l 929 558 l 935 581 l 939 604 l 942 628 l 943 650 l 943 672 l 940 703 l 939 725 l 935 747 l 928 769 l 918 790 l 908 810 l 892 836 l 879 854 l 860 882 l 846 899 l 832 913 l 817 925 l 790 943 l 772 954 l 751 964 l 729 972 l 708 981 l 688 988 l 658 996 l 638 1000 l 614 1001 l 561 1001 l 469 1007 l 447 1007 l 353 1001 l 188 1007 l 125 1010 l 104 1008 l 93 1007 l 76 1003 l 68 992 l 64 974 l 63 965 l 61 944 l 64 899 l 64 876 l 65 801 l 65 779 l 63 706 l 63 683 l 58 608 l 58 586 l 63 511 l 63 489 l 58 414 l 58 392 l 60 318 l 61 296 l 65 221 l 65 199 l 60 124 l 58 101 l 56 65 l 57 44 l 58 25 l 61 11 l 69 6 l 86 3 l 150 -1 l 172 -1 l 236 3 l 303 -1 l 325 -1 l 340 3 l 347 10 l 350 26 l 351 49 l 351 71 l 350 104 l 349 126 l 343 204 l 342 226 l 344 303 l 349 321 l 360 329 l 378 331 l 422 328 l 439 326 l 447 322 l 457 311 l 501 251 l 514 235 l 553 171 l 565 154 l 610 94 l 622 78 l 667 15 l 678 4 l 690 -1 l 708 -1 l 771 1 l 793 1 l 869 0 l 967 0 l 985 6 z m 472 535 l 450 535 l 378 540 l 361 543 l 351 547 l 349 556 l 347 571 l 350 647 l 349 671 l 346 694 l 343 717 l 342 749 l 343 764 l 351 772 l 361 776 l 378 778 l 449 782 l 471 782 l 540 781 l 563 778 l 593 771 l 613 763 l 628 750 l 640 733 l 650 713 l 656 692 l 658 668 l 660 644 l 658 622 l 653 600 l 643 579 l 629 563 l 613 553 l 594 546 l 564 540 z "},"Ř":{"ha":1054,"x_min":0,"x_max":0,"o":"m 742 1364 l 735 1372 l 719 1375 l 707 1375 l 685 1376 l 633 1372 l 611 1372 l 519 1374 l 511 1372 l 500 1364 l 436 1308 l 431 1308 l 419 1315 l 367 1361 l 357 1371 l 343 1374 l 236 1374 l 185 1378 l 163 1376 l 150 1374 l 136 1371 l 131 1364 l 132 1354 l 142 1339 l 157 1321 l 196 1288 l 213 1272 l 283 1201 l 315 1165 l 338 1143 l 349 1138 l 446 1138 l 506 1135 l 519 1138 l 531 1147 l 586 1201 l 603 1218 l 657 1274 l 674 1289 l 714 1319 l 728 1335 l 735 1342 l 742 1354 z m 990 18 l 983 33 l 971 49 l 928 99 l 914 115 l 864 185 l 850 201 l 800 269 l 788 286 l 738 357 l 732 368 l 743 372 l 761 376 l 779 386 l 796 396 l 824 411 l 839 424 l 861 446 l 874 461 l 886 478 l 899 496 l 911 517 l 921 538 l 929 558 l 935 581 l 939 604 l 942 628 l 943 650 l 943 672 l 940 703 l 939 725 l 935 747 l 928 769 l 918 790 l 908 810 l 892 836 l 879 854 l 860 882 l 846 899 l 832 913 l 817 925 l 790 943 l 772 954 l 751 964 l 729 972 l 708 981 l 688 988 l 658 996 l 638 1000 l 614 1001 l 561 1001 l 469 1007 l 447 1007 l 353 1001 l 188 1007 l 125 1010 l 104 1008 l 93 1007 l 76 1003 l 68 992 l 64 974 l 63 965 l 61 944 l 64 899 l 64 876 l 65 801 l 65 779 l 63 706 l 63 683 l 58 608 l 58 586 l 63 511 l 63 489 l 58 414 l 58 392 l 60 318 l 61 296 l 65 221 l 65 199 l 60 124 l 58 101 l 56 65 l 57 44 l 58 25 l 61 11 l 69 6 l 86 3 l 150 -1 l 172 -1 l 236 3 l 303 -1 l 325 -1 l 340 3 l 347 10 l 350 26 l 351 49 l 351 71 l 350 104 l 349 126 l 343 204 l 342 226 l 344 303 l 349 321 l 360 329 l 378 331 l 422 328 l 439 326 l 447 322 l 457 311 l 501 251 l 514 235 l 553 171 l 565 154 l 610 94 l 622 78 l 667 15 l 678 4 l 690 -1 l 708 -1 l 771 1 l 793 1 l 869 0 l 967 0 l 985 6 z m 472 535 l 450 535 l 378 540 l 361 543 l 351 547 l 349 556 l 347 571 l 350 647 l 349 671 l 346 694 l 343 717 l 342 749 l 343 764 l 351 772 l 361 776 l 378 778 l 449 782 l 471 782 l 540 781 l 563 778 l 593 771 l 613 763 l 628 750 l 640 733 l 650 713 l 656 692 l 658 668 l 660 644 l 658 622 l 653 600 l 643 579 l 629 563 l 613 553 l 594 546 l 564 540 z "},"Ŗ":{"ha":1054,"x_min":0,"x_max":0,"o":"m 990 18 l 983 33 l 971 49 l 928 99 l 914 115 l 864 185 l 850 201 l 800 269 l 788 286 l 738 357 l 732 368 l 743 372 l 761 376 l 779 386 l 796 396 l 824 411 l 839 424 l 861 446 l 874 461 l 886 478 l 899 496 l 911 517 l 921 538 l 929 558 l 935 581 l 939 604 l 942 628 l 943 650 l 943 672 l 940 703 l 939 725 l 935 747 l 928 769 l 918 790 l 908 810 l 892 836 l 879 854 l 860 882 l 846 899 l 832 913 l 817 925 l 790 943 l 772 954 l 751 964 l 729 972 l 708 981 l 688 988 l 658 996 l 638 1000 l 614 1001 l 561 1001 l 469 1007 l 447 1007 l 353 1001 l 188 1007 l 125 1010 l 104 1008 l 93 1007 l 76 1003 l 68 992 l 64 974 l 63 965 l 61 944 l 64 899 l 64 876 l 65 801 l 65 779 l 63 706 l 63 683 l 58 608 l 58 586 l 63 511 l 63 489 l 58 414 l 58 392 l 60 318 l 61 296 l 65 221 l 65 199 l 60 124 l 58 101 l 56 65 l 57 44 l 58 25 l 61 11 l 69 6 l 86 3 l 150 -1 l 172 -1 l 236 3 l 303 -1 l 325 -1 l 340 3 l 347 10 l 350 26 l 351 49 l 351 71 l 350 104 l 349 126 l 343 204 l 342 226 l 344 303 l 349 321 l 360 329 l 378 331 l 422 328 l 439 326 l 447 322 l 457 311 l 501 251 l 514 235 l 553 171 l 565 154 l 610 94 l 622 78 l 667 15 l 678 4 l 690 -1 l 708 -1 l 771 1 l 793 1 l 869 0 l 967 0 l 985 6 z m 472 535 l 450 535 l 378 540 l 361 543 l 351 547 l 349 556 l 347 571 l 350 647 l 349 671 l 346 694 l 343 717 l 342 749 l 343 764 l 351 772 l 361 776 l 378 778 l 449 782 l 471 782 l 540 781 l 563 778 l 593 771 l 613 763 l 628 750 l 640 733 l 650 713 l 656 692 l 658 668 l 660 644 l 658 622 l 653 600 l 643 579 l 629 563 l 613 553 l 594 546 l 564 540 z m 672 -225 l 667 -208 l 663 -200 l 651 -182 l 638 -167 l 621 -156 l 600 -143 l 582 -136 l 568 -132 l 549 -129 l 531 -128 l 514 -129 l 492 -135 l 468 -144 l 450 -154 l 436 -165 l 429 -174 l 417 -190 l 408 -212 l 404 -236 l 404 -258 l 407 -276 l 414 -293 l 418 -303 l 432 -319 l 449 -335 l 468 -346 l 483 -351 l 492 -356 l 496 -361 l 492 -374 l 472 -410 l 463 -429 l 457 -442 l 453 -457 l 457 -462 l 471 -465 l 581 -464 l 585 -462 l 592 -453 l 601 -435 l 610 -417 l 629 -367 l 638 -347 l 656 -306 l 664 -286 l 667 -275 l 672 -258 l 674 -242 z "},"S":{"ha":1001,"x_min":0,"x_max":0,"o":"m 908 335 l 906 356 l 900 386 l 894 407 l 885 428 l 874 446 l 857 471 l 843 488 l 828 504 l 788 538 l 769 549 l 750 560 l 731 569 l 703 582 l 664 596 l 643 601 l 611 608 l 567 622 l 519 633 l 496 638 l 449 640 l 414 644 l 393 649 l 383 653 l 367 661 l 351 675 l 340 693 l 336 711 l 339 733 l 349 753 l 356 761 l 372 774 l 381 778 l 403 785 l 426 789 l 450 790 l 486 790 l 522 788 l 544 786 l 576 779 l 600 774 l 611 771 l 632 764 l 642 760 l 663 751 l 683 739 l 697 732 l 707 731 l 718 735 l 735 749 l 750 768 l 803 838 l 814 854 l 829 882 l 838 897 l 838 911 l 825 924 l 807 936 l 788 946 l 761 961 l 740 969 l 719 979 l 697 988 l 674 994 l 651 1001 l 628 1007 l 581 1015 l 558 1018 l 549 1021 l 528 1024 l 486 1028 l 464 1028 l 443 1026 l 421 1024 l 390 1018 l 349 1013 l 326 1008 l 294 1003 l 274 996 l 232 979 l 206 964 l 186 954 l 168 942 l 150 928 l 128 907 l 114 892 l 103 875 l 93 856 l 79 825 l 72 804 l 67 786 l 63 765 l 60 732 l 58 710 l 61 665 l 65 635 l 69 614 l 79 585 l 88 564 l 100 543 l 113 525 l 136 506 l 154 493 l 175 481 l 193 468 l 240 444 l 261 435 l 282 428 l 313 417 l 335 411 l 376 403 l 508 390 l 532 386 l 556 381 l 576 372 l 588 368 l 606 354 l 613 346 l 624 326 l 626 315 l 628 292 l 619 271 l 613 261 l 599 247 l 581 236 l 560 228 l 549 225 l 526 222 l 439 217 l 417 218 l 385 219 l 363 224 l 340 231 l 319 238 l 288 253 l 268 263 l 247 274 l 203 304 l 188 315 l 172 318 l 157 310 l 143 294 l 131 279 l 107 243 l 94 228 l 56 192 l 42 176 l 36 169 l 29 157 l 31 147 l 42 135 l 57 119 l 74 106 l 99 86 l 115 72 l 160 42 l 178 31 l 197 21 l 218 11 l 238 1 l 268 -8 l 289 -15 l 313 -19 l 333 -22 l 365 -25 l 385 -26 l 415 -26 l 482 -22 l 514 -21 l 533 -19 l 564 -17 l 585 -14 l 619 -8 l 642 -4 l 683 10 l 715 21 l 735 31 l 756 42 l 774 54 l 801 72 l 818 88 l 835 104 l 849 121 l 865 146 l 875 164 l 888 192 l 894 211 l 901 242 l 906 264 l 908 288 l 910 311 z "},"Ś":{"ha":1001,"x_min":0,"x_max":0,"o":"m 701 1339 l 688 1343 l 649 1346 l 618 1343 l 597 1343 l 532 1342 l 511 1342 l 479 1343 l 457 1343 l 446 1342 l 429 1342 l 422 1338 l 414 1324 l 381 1250 l 369 1231 l 328 1147 l 328 1143 l 329 1139 l 333 1138 l 346 1136 l 449 1136 l 517 1132 l 528 1133 l 544 1136 l 558 1143 l 571 1157 l 628 1226 l 642 1243 l 696 1315 l 704 1329 z m 908 335 l 906 356 l 900 386 l 894 407 l 885 428 l 874 446 l 857 471 l 843 488 l 828 504 l 788 538 l 769 549 l 750 560 l 731 569 l 703 582 l 664 596 l 643 601 l 611 608 l 567 622 l 519 633 l 496 638 l 449 640 l 414 644 l 393 649 l 383 653 l 367 661 l 351 675 l 340 693 l 336 711 l 339 733 l 349 753 l 356 761 l 372 774 l 381 778 l 403 785 l 426 789 l 450 790 l 486 790 l 522 788 l 544 786 l 576 779 l 600 774 l 611 771 l 632 764 l 642 760 l 663 751 l 683 739 l 697 732 l 707 731 l 718 735 l 735 749 l 750 768 l 803 838 l 814 854 l 829 882 l 838 897 l 838 911 l 825 924 l 807 936 l 788 946 l 761 961 l 740 969 l 719 979 l 697 988 l 674 994 l 651 1001 l 628 1007 l 581 1015 l 558 1018 l 549 1021 l 528 1024 l 486 1028 l 464 1028 l 443 1026 l 421 1024 l 390 1018 l 349 1013 l 326 1008 l 294 1003 l 274 996 l 232 979 l 206 964 l 186 954 l 168 942 l 150 928 l 128 907 l 114 892 l 103 875 l 93 856 l 79 825 l 72 804 l 67 786 l 63 765 l 60 732 l 58 710 l 61 665 l 65 635 l 69 614 l 79 585 l 88 564 l 100 543 l 113 525 l 136 506 l 154 493 l 175 481 l 193 468 l 240 444 l 261 435 l 282 428 l 313 417 l 335 411 l 376 403 l 508 390 l 532 386 l 556 381 l 576 372 l 588 368 l 606 354 l 613 346 l 624 326 l 626 315 l 628 292 l 619 271 l 613 261 l 599 247 l 581 236 l 560 228 l 549 225 l 526 222 l 439 217 l 417 218 l 385 219 l 363 224 l 340 231 l 319 238 l 288 253 l 268 263 l 247 274 l 203 304 l 188 315 l 172 318 l 157 310 l 143 294 l 131 279 l 107 243 l 94 228 l 56 192 l 42 176 l 36 169 l 29 157 l 31 147 l 42 135 l 57 119 l 74 106 l 99 86 l 115 72 l 160 42 l 178 31 l 197 21 l 218 11 l 238 1 l 268 -8 l 289 -15 l 313 -19 l 333 -22 l 365 -25 l 385 -26 l 415 -26 l 482 -22 l 514 -21 l 533 -19 l 564 -17 l 585 -14 l 619 -8 l 642 -4 l 683 10 l 715 21 l 735 31 l 756 42 l 774 54 l 801 72 l 818 88 l 835 104 l 849 121 l 865 146 l 875 164 l 888 192 l 894 211 l 901 242 l 906 264 l 908 288 l 910 311 z "},"Š":{"ha":1001,"x_min":0,"x_max":0,"o":"m 760 1364 l 753 1372 l 738 1375 l 725 1375 l 703 1376 l 651 1372 l 629 1372 l 538 1374 l 529 1372 l 518 1364 l 454 1308 l 449 1308 l 438 1315 l 385 1361 l 375 1371 l 361 1374 l 254 1374 l 203 1378 l 181 1376 l 168 1374 l 154 1371 l 149 1364 l 150 1354 l 160 1339 l 175 1321 l 214 1288 l 231 1272 l 301 1201 l 333 1165 l 356 1143 l 367 1138 l 464 1138 l 524 1135 l 538 1138 l 549 1147 l 604 1201 l 621 1218 l 675 1274 l 692 1289 l 732 1319 l 746 1335 l 753 1342 l 760 1354 z m 908 335 l 906 356 l 900 386 l 894 407 l 885 428 l 874 446 l 857 471 l 843 488 l 828 504 l 788 538 l 769 549 l 750 560 l 731 569 l 703 582 l 664 596 l 643 601 l 611 608 l 567 622 l 519 633 l 496 638 l 449 640 l 414 644 l 393 649 l 383 653 l 367 661 l 351 675 l 340 693 l 336 711 l 339 733 l 349 753 l 356 761 l 372 774 l 381 778 l 403 785 l 426 789 l 450 790 l 486 790 l 522 788 l 544 786 l 576 779 l 600 774 l 611 771 l 632 764 l 642 760 l 663 751 l 683 739 l 697 732 l 707 731 l 718 735 l 735 749 l 750 768 l 803 838 l 814 854 l 829 882 l 838 897 l 838 911 l 825 924 l 807 936 l 788 946 l 761 961 l 740 969 l 719 979 l 697 988 l 674 994 l 651 1001 l 628 1007 l 581 1015 l 558 1018 l 549 1021 l 528 1024 l 486 1028 l 464 1028 l 443 1026 l 421 1024 l 390 1018 l 349 1013 l 326 1008 l 294 1003 l 274 996 l 232 979 l 206 964 l 186 954 l 168 942 l 150 928 l 128 907 l 114 892 l 103 875 l 93 856 l 79 825 l 72 804 l 67 786 l 63 765 l 60 732 l 58 710 l 61 665 l 65 635 l 69 614 l 79 585 l 88 564 l 100 543 l 113 525 l 136 506 l 154 493 l 175 481 l 193 468 l 240 444 l 261 435 l 282 428 l 313 417 l 335 411 l 376 403 l 508 390 l 532 386 l 556 381 l 576 372 l 588 368 l 606 354 l 613 346 l 624 326 l 626 315 l 628 292 l 619 271 l 613 261 l 599 247 l 581 236 l 560 228 l 549 225 l 526 222 l 439 217 l 417 218 l 385 219 l 363 224 l 340 231 l 319 238 l 288 253 l 268 263 l 247 274 l 203 304 l 188 315 l 172 318 l 157 310 l 143 294 l 131 279 l 107 243 l 94 228 l 56 192 l 42 176 l 36 169 l 29 157 l 31 147 l 42 135 l 57 119 l 74 106 l 99 86 l 115 72 l 160 42 l 178 31 l 197 21 l 218 11 l 238 1 l 268 -8 l 289 -15 l 313 -19 l 333 -22 l 365 -25 l 385 -26 l 415 -26 l 482 -22 l 514 -21 l 533 -19 l 564 -17 l 585 -14 l 619 -8 l 642 -4 l 683 10 l 715 21 l 735 31 l 756 42 l 774 54 l 801 72 l 818 88 l 835 104 l 849 121 l 865 146 l 875 164 l 888 192 l 894 211 l 901 242 l 906 264 l 908 288 l 910 311 z "},"Ş":{"ha":1001,"x_min":0,"x_max":0,"o":"m 908 335 l 906 356 l 900 386 l 894 407 l 885 428 l 874 446 l 857 471 l 843 488 l 828 504 l 788 538 l 769 549 l 750 560 l 731 569 l 703 582 l 664 596 l 643 601 l 611 608 l 567 622 l 519 633 l 496 638 l 449 640 l 414 644 l 393 649 l 383 653 l 367 661 l 351 675 l 340 693 l 336 711 l 339 733 l 349 753 l 356 761 l 372 774 l 381 778 l 403 785 l 426 789 l 450 790 l 486 790 l 522 788 l 544 786 l 576 779 l 600 774 l 611 771 l 632 764 l 642 760 l 663 751 l 683 739 l 697 732 l 707 731 l 718 735 l 735 749 l 750 768 l 803 838 l 814 854 l 829 882 l 838 897 l 838 911 l 825 924 l 807 936 l 788 946 l 761 961 l 740 969 l 719 979 l 697 988 l 674 994 l 651 1001 l 628 1007 l 581 1015 l 558 1018 l 549 1021 l 528 1024 l 486 1028 l 464 1028 l 443 1026 l 421 1024 l 390 1018 l 349 1013 l 326 1008 l 294 1003 l 274 996 l 232 979 l 206 964 l 186 954 l 168 942 l 150 928 l 128 907 l 114 892 l 103 875 l 93 856 l 79 825 l 72 804 l 67 786 l 63 765 l 60 732 l 58 710 l 61 665 l 65 635 l 69 614 l 79 585 l 88 564 l 100 543 l 113 525 l 136 506 l 154 493 l 175 481 l 193 468 l 240 444 l 261 435 l 282 428 l 313 417 l 335 411 l 376 403 l 508 390 l 532 386 l 556 381 l 576 372 l 588 368 l 606 354 l 613 346 l 624 326 l 626 315 l 628 292 l 619 271 l 613 261 l 599 247 l 581 236 l 560 228 l 549 225 l 526 222 l 439 217 l 417 218 l 385 219 l 363 224 l 340 231 l 319 238 l 288 253 l 268 263 l 247 274 l 203 304 l 188 315 l 172 318 l 157 310 l 143 294 l 131 279 l 107 243 l 94 228 l 56 192 l 42 176 l 36 169 l 29 157 l 31 147 l 42 135 l 57 119 l 74 106 l 99 86 l 115 72 l 160 42 l 178 31 l 197 21 l 218 11 l 238 1 l 268 -8 l 289 -15 l 313 -19 l 333 -22 l 365 -25 l 385 -26 l 403 -26 l 401 -31 l 386 -58 l 378 -75 l 368 -93 l 364 -106 l 365 -117 l 372 -126 l 386 -137 l 403 -146 l 414 -149 l 429 -146 l 446 -142 l 465 -142 l 483 -146 l 504 -153 l 522 -162 l 533 -172 l 539 -189 l 538 -207 l 531 -217 l 519 -225 l 506 -232 l 488 -233 l 476 -235 l 456 -233 l 446 -231 l 425 -225 l 415 -219 l 382 -204 l 371 -206 l 361 -210 l 350 -219 l 294 -276 l 285 -289 l 285 -297 l 290 -308 l 315 -333 l 331 -346 l 347 -358 l 367 -369 l 386 -378 l 418 -387 l 439 -392 l 469 -396 l 492 -397 l 525 -397 l 546 -396 l 576 -390 l 596 -383 l 628 -369 l 647 -357 l 665 -342 l 682 -325 l 706 -300 l 718 -281 l 728 -260 l 735 -237 l 739 -226 l 743 -206 l 744 -194 l 744 -167 l 740 -149 l 729 -128 l 713 -110 l 696 -94 l 676 -79 l 657 -68 l 635 -58 l 613 -51 l 599 -49 l 588 -47 l 583 -35 l 586 -25 l 589 -12 l 619 -8 l 642 -4 l 683 10 l 715 21 l 735 31 l 756 42 l 774 54 l 801 72 l 818 88 l 835 104 l 849 121 l 865 146 l 875 164 l 888 192 l 894 211 l 901 242 l 906 264 l 908 288 l 910 311 z "},"Ș":{"ha":1001,"x_min":0,"x_max":0,"o":"m 908 335 l 906 356 l 900 386 l 894 407 l 885 428 l 874 446 l 857 471 l 843 488 l 828 504 l 788 538 l 769 549 l 750 560 l 731 569 l 703 582 l 664 596 l 643 601 l 611 608 l 567 622 l 519 633 l 496 638 l 449 640 l 414 644 l 393 649 l 383 653 l 367 661 l 351 675 l 340 693 l 336 711 l 339 733 l 349 753 l 356 761 l 372 774 l 381 778 l 403 785 l 426 789 l 450 790 l 486 790 l 522 788 l 544 786 l 576 779 l 600 774 l 611 771 l 632 764 l 642 760 l 663 751 l 683 739 l 697 732 l 707 731 l 718 735 l 735 749 l 750 768 l 803 838 l 814 854 l 829 882 l 838 897 l 838 911 l 825 924 l 807 936 l 788 946 l 761 961 l 740 969 l 719 979 l 697 988 l 674 994 l 651 1001 l 628 1007 l 581 1015 l 558 1018 l 549 1021 l 528 1024 l 486 1028 l 464 1028 l 443 1026 l 421 1024 l 390 1018 l 349 1013 l 326 1008 l 294 1003 l 274 996 l 232 979 l 206 964 l 186 954 l 168 942 l 150 928 l 128 907 l 114 892 l 103 875 l 93 856 l 79 825 l 72 804 l 67 786 l 63 765 l 60 732 l 58 710 l 61 665 l 65 635 l 69 614 l 79 585 l 88 564 l 100 543 l 113 525 l 136 506 l 154 493 l 175 481 l 193 468 l 240 444 l 261 435 l 282 428 l 313 417 l 335 411 l 376 403 l 508 390 l 532 386 l 556 381 l 576 372 l 588 368 l 606 354 l 613 346 l 624 326 l 626 315 l 628 292 l 619 271 l 613 261 l 599 247 l 581 236 l 560 228 l 549 225 l 526 222 l 439 217 l 417 218 l 385 219 l 363 224 l 340 231 l 319 238 l 288 253 l 268 263 l 247 274 l 203 304 l 188 315 l 172 318 l 157 310 l 143 294 l 131 279 l 107 243 l 94 228 l 56 192 l 42 176 l 36 169 l 29 157 l 31 147 l 42 135 l 57 119 l 74 106 l 99 86 l 115 72 l 160 42 l 178 31 l 197 21 l 218 11 l 238 1 l 268 -8 l 289 -15 l 313 -19 l 333 -22 l 365 -25 l 385 -26 l 415 -26 l 482 -22 l 514 -21 l 533 -19 l 564 -17 l 585 -14 l 619 -8 l 642 -4 l 683 10 l 715 21 l 735 31 l 756 42 l 774 54 l 801 72 l 818 88 l 835 104 l 849 121 l 865 146 l 875 164 l 888 192 l 894 211 l 901 242 l 906 264 l 908 288 l 910 311 z m 650 -225 l 644 -208 l 640 -200 l 629 -182 l 615 -167 l 599 -156 l 578 -143 l 560 -136 l 546 -132 l 526 -129 l 508 -128 l 492 -129 l 469 -135 l 446 -144 l 428 -154 l 414 -165 l 407 -174 l 394 -190 l 386 -212 l 382 -236 l 382 -258 l 385 -276 l 392 -293 l 396 -303 l 410 -319 l 426 -335 l 446 -346 l 461 -351 l 469 -356 l 474 -361 l 469 -374 l 450 -410 l 440 -429 l 435 -442 l 431 -457 l 435 -462 l 449 -465 l 558 -464 l 563 -462 l 569 -453 l 579 -435 l 588 -417 l 607 -367 l 615 -347 l 633 -306 l 642 -286 l 644 -275 l 650 -258 l 651 -242 z "},"T":{"ha":956,"x_min":0,"x_max":0,"o":"m 876 938 l 875 958 l 875 968 l 872 985 l 865 994 l 856 1000 l 839 1003 l 828 1004 l 804 1006 l 758 1003 l 656 1003 l 551 1001 l 529 1001 l 449 1003 l 346 996 l 324 996 l 242 1003 l 219 1003 l 139 997 l 117 997 l 65 1001 l 33 1001 l 19 999 l 11 994 l 6 985 l 1 967 l 0 944 l 4 892 l 4 871 l 1 829 l 3 807 l 3 797 l 6 783 l 11 775 l 19 769 l 35 767 l 46 765 l 67 765 l 99 767 l 122 768 l 146 767 l 183 764 l 208 764 l 253 767 l 274 767 l 288 764 l 292 753 l 292 733 l 294 651 l 294 546 l 296 524 l 301 440 l 301 418 l 300 336 l 300 314 l 299 231 l 299 126 l 297 104 l 293 46 l 293 22 l 296 7 l 304 3 l 321 1 l 383 -3 l 406 -3 l 468 1 l 492 0 l 526 -4 l 553 -6 l 571 -3 l 578 4 l 582 21 l 581 43 l 574 106 l 572 126 l 575 208 l 575 336 l 572 418 l 574 440 l 579 524 l 581 546 l 575 629 l 575 651 l 581 733 l 582 751 l 588 760 l 601 764 l 611 765 l 632 765 l 667 763 l 689 763 l 753 767 l 775 765 l 817 761 l 839 761 l 856 764 l 864 771 l 868 781 l 871 797 l 872 808 l 874 831 l 872 872 l 874 893 z "},"Ŧ":{"ha":953,"x_min":0,"x_max":0,"o":"m 874 904 l 872 926 l 869 949 l 868 968 l 865 982 l 857 994 l 840 1000 l 800 1003 l 654 1000 l 632 1000 l 551 994 l 529 994 l 447 996 l 344 1003 l 322 1003 l 242 997 l 219 997 l 138 1001 l 117 1003 l 85 1001 l 65 1000 l 33 996 l 18 993 l 10 985 l 6 968 l 3 947 l 1 925 l 3 893 l 3 871 l 0 828 l 1 807 l 3 796 l 7 779 l 17 769 l 35 764 l 46 763 l 68 761 l 185 764 l 208 765 l 243 771 l 269 771 l 288 765 l 293 753 l 294 733 l 299 678 l 299 656 l 294 603 l 283 592 l 163 586 l 144 585 l 132 575 l 126 557 l 126 476 l 128 456 l 131 432 l 132 421 l 138 401 l 146 390 l 163 385 l 260 382 l 278 379 l 289 371 l 296 354 l 297 331 l 296 307 l 293 253 l 292 231 l 292 57 l 293 22 l 296 6 l 303 -3 l 319 -4 l 382 -3 l 404 -3 l 468 3 l 490 1 l 553 -6 l 568 -6 l 576 4 l 581 21 l 575 176 l 575 199 l 574 265 l 572 288 l 571 319 l 571 354 l 575 372 l 585 381 l 601 383 l 644 382 l 701 382 l 724 385 l 742 394 l 751 411 l 751 432 l 750 442 l 749 463 l 750 494 l 751 515 l 753 538 l 753 560 l 746 576 l 733 586 l 715 590 l 679 590 l 644 589 l 622 589 l 601 590 l 585 594 l 578 604 l 576 619 l 574 733 l 576 751 l 585 763 l 597 768 l 626 768 l 651 765 l 664 763 l 688 761 l 753 764 l 839 764 l 856 768 l 865 779 l 868 796 l 868 815 z "},"Ť":{"ha":956,"x_min":0,"x_max":0,"o":"m 739 1364 l 732 1372 l 717 1375 l 704 1375 l 682 1376 l 631 1372 l 608 1372 l 517 1374 l 508 1372 l 497 1364 l 433 1308 l 428 1308 l 417 1315 l 364 1361 l 354 1371 l 340 1374 l 233 1374 l 182 1378 l 160 1376 l 147 1374 l 133 1371 l 128 1364 l 129 1354 l 139 1339 l 154 1321 l 193 1288 l 210 1272 l 281 1201 l 313 1165 l 335 1143 l 346 1138 l 443 1138 l 503 1135 l 517 1138 l 528 1147 l 583 1201 l 600 1218 l 654 1274 l 671 1289 l 711 1319 l 725 1335 l 732 1342 l 739 1354 z m 876 938 l 875 958 l 875 968 l 872 985 l 865 994 l 856 1000 l 839 1003 l 828 1004 l 804 1006 l 758 1003 l 656 1003 l 551 1001 l 529 1001 l 449 1003 l 346 996 l 324 996 l 242 1003 l 219 1003 l 139 997 l 117 997 l 65 1001 l 33 1001 l 19 999 l 11 994 l 6 985 l 1 967 l 0 944 l 4 892 l 4 871 l 1 829 l 3 807 l 3 797 l 6 783 l 11 775 l 19 769 l 35 767 l 46 765 l 67 765 l 99 767 l 122 768 l 146 767 l 183 764 l 208 764 l 253 767 l 274 767 l 288 764 l 292 753 l 292 733 l 294 651 l 294 546 l 296 524 l 301 440 l 301 418 l 300 336 l 300 314 l 299 231 l 299 126 l 297 104 l 293 46 l 293 22 l 296 7 l 304 3 l 321 1 l 383 -3 l 406 -3 l 468 1 l 492 0 l 526 -4 l 553 -6 l 571 -3 l 578 4 l 582 21 l 581 43 l 574 106 l 572 126 l 575 208 l 575 336 l 572 418 l 574 440 l 579 524 l 581 546 l 575 629 l 575 651 l 581 733 l 582 751 l 588 760 l 601 764 l 611 765 l 632 765 l 667 763 l 689 763 l 753 767 l 775 765 l 817 761 l 839 761 l 856 764 l 864 771 l 868 781 l 871 797 l 872 808 l 874 831 l 872 872 l 874 893 z "},"Ţ":{"ha":956,"x_min":0,"x_max":0,"o":"m 876 938 l 875 958 l 875 968 l 872 985 l 865 994 l 856 1000 l 839 1003 l 828 1004 l 804 1006 l 758 1003 l 656 1003 l 551 1001 l 529 1001 l 449 1003 l 346 996 l 324 996 l 242 1003 l 219 1003 l 139 997 l 117 997 l 65 1001 l 33 1001 l 19 999 l 11 994 l 6 985 l 1 967 l 0 944 l 4 892 l 4 871 l 1 829 l 3 807 l 3 797 l 6 783 l 11 775 l 19 769 l 35 767 l 46 765 l 67 765 l 99 767 l 122 768 l 146 767 l 183 764 l 208 764 l 253 767 l 274 767 l 288 764 l 292 753 l 292 733 l 294 651 l 294 546 l 296 524 l 301 440 l 301 418 l 300 336 l 300 314 l 299 231 l 299 126 l 297 104 l 293 46 l 293 22 l 296 7 l 304 3 l 321 1 l 353 -1 l 351 -4 l 347 -12 l 340 -31 l 325 -58 l 317 -75 l 307 -93 l 303 -106 l 304 -117 l 311 -126 l 325 -137 l 342 -146 l 353 -149 l 368 -146 l 385 -142 l 404 -142 l 422 -146 l 443 -153 l 461 -162 l 472 -172 l 478 -189 l 476 -207 l 469 -217 l 458 -225 l 444 -232 l 426 -233 l 415 -235 l 394 -233 l 385 -231 l 364 -225 l 354 -219 l 321 -204 l 310 -206 l 300 -210 l 289 -219 l 233 -276 l 224 -289 l 224 -297 l 229 -308 l 254 -333 l 269 -346 l 286 -358 l 306 -369 l 325 -378 l 357 -387 l 378 -392 l 408 -396 l 431 -397 l 464 -397 l 485 -396 l 515 -390 l 535 -383 l 567 -369 l 586 -357 l 604 -342 l 621 -325 l 644 -300 l 657 -281 l 667 -260 l 674 -237 l 678 -226 l 682 -206 l 683 -194 l 683 -167 l 679 -149 l 668 -128 l 651 -110 l 635 -94 l 615 -79 l 596 -68 l 574 -58 l 551 -51 l 538 -49 l 526 -47 l 522 -35 l 525 -25 l 529 -10 l 531 -4 l 553 -6 l 571 -3 l 578 4 l 582 21 l 581 43 l 574 106 l 572 126 l 575 208 l 575 336 l 572 418 l 574 440 l 579 524 l 581 546 l 575 629 l 575 651 l 581 733 l 582 751 l 588 760 l 601 764 l 611 765 l 632 765 l 667 763 l 689 763 l 753 767 l 775 765 l 817 761 l 839 761 l 856 764 l 864 771 l 868 781 l 871 797 l 872 808 l 874 831 l 872 872 l 874 893 z "},"Ț":{"ha":956,"x_min":0,"x_max":0,"o":"m 876 938 l 875 958 l 875 968 l 872 985 l 865 994 l 856 1000 l 839 1003 l 828 1004 l 804 1006 l 758 1003 l 656 1003 l 551 1001 l 529 1001 l 449 1003 l 346 996 l 324 996 l 242 1003 l 219 1003 l 139 997 l 117 997 l 65 1001 l 33 1001 l 19 999 l 11 994 l 6 985 l 1 967 l 0 944 l 4 892 l 4 871 l 1 829 l 3 807 l 3 797 l 6 783 l 11 775 l 19 769 l 35 767 l 46 765 l 67 765 l 99 767 l 122 768 l 146 767 l 183 764 l 208 764 l 253 767 l 274 767 l 288 764 l 292 753 l 292 733 l 294 651 l 294 546 l 296 524 l 301 440 l 301 418 l 300 336 l 300 314 l 299 231 l 299 126 l 297 104 l 293 46 l 293 22 l 296 7 l 304 3 l 321 1 l 383 -3 l 406 -3 l 468 1 l 492 0 l 526 -4 l 553 -6 l 571 -3 l 578 4 l 582 21 l 581 43 l 574 106 l 572 126 l 575 208 l 575 336 l 572 418 l 574 440 l 579 524 l 581 546 l 575 629 l 575 651 l 581 733 l 582 751 l 588 760 l 601 764 l 611 765 l 632 765 l 667 763 l 689 763 l 753 767 l 775 765 l 817 761 l 839 761 l 856 764 l 864 771 l 868 781 l 871 797 l 872 808 l 874 831 l 872 872 l 874 893 z m 575 -225 l 569 -208 l 565 -200 l 554 -182 l 540 -167 l 524 -156 l 503 -143 l 485 -136 l 471 -132 l 451 -129 l 433 -128 l 417 -129 l 394 -135 l 371 -144 l 353 -154 l 339 -165 l 332 -174 l 319 -190 l 311 -212 l 307 -236 l 307 -258 l 310 -276 l 317 -293 l 321 -303 l 335 -319 l 351 -335 l 371 -346 l 386 -351 l 394 -356 l 399 -361 l 394 -374 l 375 -410 l 365 -429 l 360 -442 l 356 -457 l 360 -462 l 374 -465 l 483 -464 l 488 -462 l 494 -453 l 504 -435 l 513 -417 l 532 -367 l 540 -347 l 558 -306 l 567 -286 l 569 -275 l 575 -258 l 576 -242 z "},"U":{"ha":1117,"x_min":0,"x_max":0,"o":"m 986 551 l 992 638 l 992 660 l 994 744 l 994 767 l 990 853 l 990 875 l 992 907 l 992 928 l 990 969 l 989 986 l 978 996 l 960 1000 l 939 1001 l 917 1001 l 861 997 l 839 997 l 768 1003 l 739 1003 l 721 999 l 708 988 l 703 968 l 703 933 l 707 875 l 708 853 l 711 767 l 711 744 l 708 660 l 708 638 l 704 551 l 704 529 l 710 444 l 708 422 l 703 381 l 699 358 l 692 336 l 682 315 l 667 286 l 653 269 l 631 250 l 613 239 l 586 226 l 565 221 l 529 214 l 507 214 l 471 217 l 450 222 l 419 233 l 401 244 l 379 268 l 365 285 l 351 317 l 343 338 l 335 368 l 331 390 l 328 425 l 326 447 l 328 532 l 328 554 l 332 639 l 332 661 l 333 746 l 333 768 l 329 853 l 329 875 l 332 929 l 332 950 l 331 969 l 326 988 l 315 999 l 297 1003 l 265 1004 l 244 1006 l 199 1004 l 176 1004 l 124 1008 l 78 1006 l 60 1001 l 50 989 l 46 967 l 44 943 l 44 919 l 47 875 l 47 746 l 43 661 l 43 639 l 46 554 l 46 532 l 42 447 l 43 425 l 46 378 l 49 354 l 53 331 l 58 300 l 64 279 l 69 260 l 78 239 l 88 217 l 99 196 l 111 176 l 133 140 l 146 124 l 164 100 l 179 85 l 215 54 l 236 40 l 257 28 l 288 14 l 310 4 l 321 0 l 343 -7 l 356 -8 l 378 -12 l 454 -21 l 475 -22 l 507 -25 l 571 -25 l 614 -22 l 635 -18 l 667 -12 l 688 -7 l 718 4 l 739 11 l 768 25 l 786 35 l 814 51 l 832 64 l 860 86 l 878 101 l 894 119 l 908 138 l 926 165 l 936 185 l 949 214 l 956 233 l 967 263 l 972 283 l 978 315 l 982 338 l 988 371 l 990 392 l 992 424 l 993 444 l 990 489 z "},"Ú":{"ha":1117,"x_min":0,"x_max":0,"o":"m 747 1339 l 733 1343 l 694 1346 l 664 1343 l 643 1343 l 578 1342 l 557 1342 l 525 1343 l 503 1343 l 492 1342 l 475 1342 l 468 1338 l 460 1324 l 426 1250 l 415 1231 l 374 1147 l 374 1143 l 375 1139 l 379 1138 l 392 1136 l 494 1136 l 563 1132 l 574 1133 l 590 1136 l 604 1143 l 617 1157 l 674 1226 l 688 1243 l 742 1315 l 750 1329 z m 986 551 l 992 638 l 992 660 l 994 744 l 994 767 l 990 853 l 990 875 l 992 907 l 992 928 l 990 969 l 989 986 l 978 996 l 960 1000 l 939 1001 l 917 1001 l 861 997 l 839 997 l 768 1003 l 739 1003 l 721 999 l 708 988 l 703 968 l 703 933 l 707 875 l 708 853 l 711 767 l 711 744 l 708 660 l 708 638 l 704 551 l 704 529 l 710 444 l 708 422 l 703 381 l 699 358 l 692 336 l 682 315 l 667 286 l 653 269 l 631 250 l 613 239 l 586 226 l 565 221 l 529 214 l 507 214 l 471 217 l 450 222 l 419 233 l 401 244 l 379 268 l 365 285 l 351 317 l 343 338 l 335 368 l 331 390 l 328 425 l 326 447 l 328 532 l 328 554 l 332 639 l 332 661 l 333 746 l 333 768 l 329 853 l 329 875 l 332 929 l 332 950 l 331 969 l 326 988 l 315 999 l 297 1003 l 265 1004 l 244 1006 l 199 1004 l 176 1004 l 124 1008 l 78 1006 l 60 1001 l 50 989 l 46 967 l 44 943 l 44 919 l 47 875 l 47 746 l 43 661 l 43 639 l 46 554 l 46 532 l 42 447 l 43 425 l 46 378 l 49 354 l 53 331 l 58 300 l 64 279 l 69 260 l 78 239 l 88 217 l 99 196 l 111 176 l 133 140 l 146 124 l 164 100 l 179 85 l 215 54 l 236 40 l 257 28 l 288 14 l 310 4 l 321 0 l 343 -7 l 356 -8 l 378 -12 l 454 -21 l 475 -22 l 507 -25 l 571 -25 l 614 -22 l 635 -18 l 667 -12 l 688 -7 l 718 4 l 739 11 l 768 25 l 786 35 l 814 51 l 832 64 l 860 86 l 878 101 l 894 119 l 908 138 l 926 165 l 936 185 l 949 214 l 956 233 l 967 263 l 972 283 l 978 315 l 982 338 l 988 371 l 990 392 l 992 424 l 993 444 l 990 489 z "},"Û":{"ha":1117,"x_min":0,"x_max":0,"o":"m 824 1160 l 815 1171 l 764 1224 l 749 1239 l 692 1289 l 624 1357 l 614 1368 l 606 1374 l 597 1376 l 582 1376 l 529 1381 l 508 1381 l 464 1378 l 446 1376 l 435 1374 l 426 1368 l 414 1357 l 404 1349 l 389 1335 l 360 1304 l 344 1289 l 290 1238 l 275 1224 l 244 1193 l 229 1176 l 224 1168 l 215 1158 l 214 1150 l 218 1142 l 231 1139 l 250 1138 l 271 1138 l 318 1142 l 340 1143 l 442 1143 l 447 1144 l 458 1154 l 507 1194 l 518 1203 l 521 1203 l 532 1194 l 586 1150 l 597 1142 l 611 1139 l 718 1139 l 764 1136 l 785 1136 l 806 1138 l 819 1142 l 825 1151 z m 986 551 l 992 638 l 992 660 l 994 744 l 994 767 l 990 853 l 990 875 l 992 907 l 992 928 l 990 969 l 989 986 l 978 996 l 960 1000 l 939 1001 l 917 1001 l 861 997 l 839 997 l 768 1003 l 739 1003 l 721 999 l 708 988 l 703 968 l 703 933 l 707 875 l 708 853 l 711 767 l 711 744 l 708 660 l 708 638 l 704 551 l 704 529 l 710 444 l 708 422 l 703 381 l 699 358 l 692 336 l 682 315 l 667 286 l 653 269 l 631 250 l 613 239 l 586 226 l 565 221 l 529 214 l 507 214 l 471 217 l 450 222 l 419 233 l 401 244 l 379 268 l 365 285 l 351 317 l 343 338 l 335 368 l 331 390 l 328 425 l 326 447 l 328 532 l 328 554 l 332 639 l 332 661 l 333 746 l 333 768 l 329 853 l 329 875 l 332 929 l 332 950 l 331 969 l 326 988 l 315 999 l 297 1003 l 265 1004 l 244 1006 l 199 1004 l 176 1004 l 124 1008 l 78 1006 l 60 1001 l 50 989 l 46 967 l 44 943 l 44 919 l 47 875 l 47 746 l 43 661 l 43 639 l 46 554 l 46 532 l 42 447 l 43 425 l 46 378 l 49 354 l 53 331 l 58 300 l 64 279 l 69 260 l 78 239 l 88 217 l 99 196 l 111 176 l 133 140 l 146 124 l 164 100 l 179 85 l 215 54 l 236 40 l 257 28 l 288 14 l 310 4 l 321 0 l 343 -7 l 356 -8 l 378 -12 l 454 -21 l 475 -22 l 507 -25 l 571 -25 l 614 -22 l 635 -18 l 667 -12 l 688 -7 l 718 4 l 739 11 l 768 25 l 786 35 l 814 51 l 832 64 l 860 86 l 878 101 l 894 119 l 908 138 l 926 165 l 936 185 l 949 214 l 956 233 l 967 263 l 972 283 l 978 315 l 982 338 l 988 371 l 990 392 l 992 424 l 993 444 l 990 489 z "},"Ü":{"ha":1117,"x_min":0,"x_max":0,"o":"m 438 1236 l 436 1256 l 429 1279 l 419 1301 l 408 1317 l 393 1329 l 385 1335 l 365 1346 l 343 1351 l 335 1354 l 314 1357 l 293 1356 l 285 1356 l 264 1351 l 254 1347 l 233 1339 l 215 1326 l 199 1310 l 183 1290 l 175 1272 l 171 1257 l 168 1238 l 168 1217 l 171 1197 l 176 1179 l 188 1161 l 201 1144 l 215 1131 l 231 1121 l 247 1113 l 265 1107 l 283 1103 l 315 1103 l 328 1104 l 351 1110 l 371 1118 l 389 1129 l 406 1142 l 417 1157 l 426 1174 l 433 1193 l 438 1215 z m 861 1236 l 860 1256 l 853 1279 l 843 1301 l 832 1317 l 817 1329 l 808 1335 l 789 1346 l 767 1351 l 758 1354 l 738 1357 l 717 1356 l 708 1356 l 688 1351 l 678 1347 l 657 1339 l 639 1326 l 622 1310 l 607 1290 l 599 1272 l 594 1257 l 592 1238 l 592 1217 l 594 1197 l 600 1179 l 611 1161 l 625 1144 l 639 1131 l 653 1121 l 671 1113 l 689 1107 l 707 1103 l 739 1103 l 751 1104 l 775 1110 l 794 1118 l 813 1129 l 829 1142 l 840 1157 l 850 1174 l 857 1193 l 861 1215 z m 986 551 l 992 638 l 992 660 l 994 744 l 994 767 l 990 853 l 990 875 l 992 907 l 992 928 l 990 969 l 989 986 l 978 996 l 960 1000 l 939 1001 l 917 1001 l 861 997 l 839 997 l 768 1003 l 739 1003 l 721 999 l 708 988 l 703 968 l 703 933 l 707 875 l 708 853 l 711 767 l 711 744 l 708 660 l 708 638 l 704 551 l 704 529 l 710 444 l 708 422 l 703 381 l 699 358 l 692 336 l 682 315 l 667 286 l 653 269 l 631 250 l 613 239 l 586 226 l 565 221 l 529 214 l 507 214 l 471 217 l 450 222 l 419 233 l 401 244 l 379 268 l 365 285 l 351 317 l 343 338 l 335 368 l 331 390 l 328 425 l 326 447 l 328 532 l 328 554 l 332 639 l 332 661 l 333 746 l 333 768 l 329 853 l 329 875 l 332 929 l 332 950 l 331 969 l 326 988 l 315 999 l 297 1003 l 265 1004 l 244 1006 l 199 1004 l 176 1004 l 124 1008 l 78 1006 l 60 1001 l 50 989 l 46 967 l 44 943 l 44 919 l 47 875 l 47 746 l 43 661 l 43 639 l 46 554 l 46 532 l 42 447 l 43 425 l 46 378 l 49 354 l 53 331 l 58 300 l 64 279 l 69 260 l 78 239 l 88 217 l 99 196 l 111 176 l 133 140 l 146 124 l 164 100 l 179 85 l 215 54 l 236 40 l 257 28 l 288 14 l 310 4 l 321 0 l 343 -7 l 356 -8 l 378 -12 l 454 -21 l 475 -22 l 507 -25 l 571 -25 l 614 -22 l 635 -18 l 667 -12 l 688 -7 l 718 4 l 739 11 l 768 25 l 786 35 l 814 51 l 832 64 l 860 86 l 878 101 l 894 119 l 908 138 l 926 165 l 936 185 l 949 214 l 956 233 l 967 263 l 972 283 l 978 315 l 982 338 l 988 371 l 990 392 l 992 424 l 993 444 l 990 489 z "},"Ù":{"ha":1117,"x_min":0,"x_max":0,"o":"m 618 1153 l 614 1172 l 604 1194 l 582 1233 l 572 1254 l 558 1286 l 549 1307 l 543 1318 l 533 1335 l 519 1343 l 501 1346 l 490 1346 l 469 1347 l 376 1342 l 311 1346 l 288 1346 l 275 1344 l 257 1340 l 251 1329 l 257 1311 l 263 1303 l 275 1285 l 313 1242 l 383 1157 l 394 1144 l 407 1139 l 425 1136 l 436 1135 l 458 1135 l 500 1138 l 563 1133 l 585 1133 l 594 1135 l 613 1140 z m 986 551 l 992 638 l 992 660 l 994 744 l 994 767 l 990 853 l 990 875 l 992 907 l 992 928 l 990 969 l 989 986 l 978 996 l 960 1000 l 939 1001 l 917 1001 l 861 997 l 839 997 l 768 1003 l 739 1003 l 721 999 l 708 988 l 703 968 l 703 933 l 707 875 l 708 853 l 711 767 l 711 744 l 708 660 l 708 638 l 704 551 l 704 529 l 710 444 l 708 422 l 703 381 l 699 358 l 692 336 l 682 315 l 667 286 l 653 269 l 631 250 l 613 239 l 586 226 l 565 221 l 529 214 l 507 214 l 471 217 l 450 222 l 419 233 l 401 244 l 379 268 l 365 285 l 351 317 l 343 338 l 335 368 l 331 390 l 328 425 l 326 447 l 328 532 l 328 554 l 332 639 l 332 661 l 333 746 l 333 768 l 329 853 l 329 875 l 332 929 l 332 950 l 331 969 l 326 988 l 315 999 l 297 1003 l 265 1004 l 244 1006 l 199 1004 l 176 1004 l 124 1008 l 78 1006 l 60 1001 l 50 989 l 46 967 l 44 943 l 44 919 l 47 875 l 47 746 l 43 661 l 43 639 l 46 554 l 46 532 l 42 447 l 43 425 l 46 378 l 49 354 l 53 331 l 58 300 l 64 279 l 69 260 l 78 239 l 88 217 l 99 196 l 111 176 l 133 140 l 146 124 l 164 100 l 179 85 l 215 54 l 236 40 l 257 28 l 288 14 l 310 4 l 321 0 l 343 -7 l 356 -8 l 378 -12 l 454 -21 l 475 -22 l 507 -25 l 571 -25 l 614 -22 l 635 -18 l 667 -12 l 688 -7 l 718 4 l 739 11 l 768 25 l 786 35 l 814 51 l 832 64 l 860 86 l 878 101 l 894 119 l 908 138 l 926 165 l 936 185 l 949 214 l 956 233 l 967 263 l 972 283 l 978 315 l 982 338 l 988 371 l 990 392 l 992 424 l 993 444 l 990 489 z "},"Ű":{"ha":1117,"x_min":0,"x_max":0,"o":"m 857 1367 l 847 1371 l 831 1374 l 797 1376 l 775 1378 l 729 1378 l 688 1381 l 668 1381 l 647 1379 l 632 1376 l 624 1371 l 617 1363 l 607 1347 l 553 1267 l 542 1247 l 496 1163 l 490 1151 l 489 1146 l 493 1142 l 507 1139 l 518 1138 l 540 1139 l 593 1143 l 615 1143 l 674 1139 l 703 1139 l 717 1142 l 724 1149 l 732 1164 l 786 1246 l 799 1265 l 832 1311 l 844 1329 l 854 1347 l 860 1360 z m 567 1363 l 561 1369 l 550 1372 l 504 1376 l 485 1378 l 433 1378 l 392 1379 l 372 1379 l 351 1378 l 338 1376 l 326 1368 l 315 1351 l 260 1269 l 249 1250 l 203 1163 l 197 1149 l 199 1142 l 213 1139 l 233 1138 l 254 1139 l 299 1143 l 321 1144 l 378 1140 l 411 1140 l 425 1143 l 433 1154 l 489 1242 l 503 1261 l 540 1315 l 554 1336 l 560 1347 z m 986 551 l 992 638 l 992 660 l 994 744 l 994 767 l 990 853 l 990 875 l 992 907 l 992 928 l 990 969 l 989 986 l 978 996 l 960 1000 l 939 1001 l 917 1001 l 861 997 l 839 997 l 768 1003 l 739 1003 l 721 999 l 708 988 l 703 968 l 703 933 l 707 875 l 708 853 l 711 767 l 711 744 l 708 660 l 708 638 l 704 551 l 704 529 l 710 444 l 708 422 l 703 381 l 699 358 l 692 336 l 682 315 l 667 286 l 653 269 l 631 250 l 613 239 l 586 226 l 565 221 l 529 214 l 507 214 l 471 217 l 450 222 l 419 233 l 401 244 l 379 268 l 365 285 l 351 317 l 343 338 l 335 368 l 331 390 l 328 425 l 326 447 l 328 532 l 328 554 l 332 639 l 332 661 l 333 746 l 333 768 l 329 853 l 329 875 l 332 929 l 332 950 l 331 969 l 326 988 l 315 999 l 297 1003 l 265 1004 l 244 1006 l 199 1004 l 176 1004 l 124 1008 l 78 1006 l 60 1001 l 50 989 l 46 967 l 44 943 l 44 919 l 47 875 l 47 746 l 43 661 l 43 639 l 46 554 l 46 532 l 42 447 l 43 425 l 46 378 l 49 354 l 53 331 l 58 300 l 64 279 l 69 260 l 78 239 l 88 217 l 99 196 l 111 176 l 133 140 l 146 124 l 164 100 l 179 85 l 215 54 l 236 40 l 257 28 l 288 14 l 310 4 l 321 0 l 343 -7 l 356 -8 l 378 -12 l 454 -21 l 475 -22 l 507 -25 l 571 -25 l 614 -22 l 635 -18 l 667 -12 l 688 -7 l 718 4 l 739 11 l 768 25 l 786 35 l 814 51 l 832 64 l 860 86 l 878 101 l 894 119 l 908 138 l 926 165 l 936 185 l 949 214 l 956 233 l 967 263 l 972 283 l 978 315 l 982 338 l 988 371 l 990 392 l 992 424 l 993 444 l 990 489 z "},"Ū":{"ha":1117,"x_min":0,"x_max":0,"o":"m 769 1228 l 769 1249 l 774 1299 l 771 1313 l 769 1325 l 764 1335 l 754 1342 l 738 1344 l 726 1346 l 704 1346 l 638 1342 l 560 1344 l 461 1346 l 439 1346 l 361 1340 l 339 1340 l 261 1342 l 246 1342 l 238 1336 l 233 1326 l 231 1308 l 228 1296 l 228 1272 l 229 1249 l 229 1226 l 228 1203 l 228 1179 l 229 1168 l 232 1150 l 238 1139 l 246 1133 l 261 1131 l 271 1129 l 293 1129 l 361 1133 l 439 1135 l 461 1135 l 638 1132 l 660 1132 l 701 1129 l 724 1129 l 736 1131 l 754 1133 l 763 1139 l 769 1149 l 772 1165 l 774 1181 l 772 1196 z m 986 551 l 992 638 l 992 660 l 994 744 l 994 767 l 990 853 l 990 875 l 992 907 l 992 928 l 990 969 l 989 986 l 978 996 l 960 1000 l 939 1001 l 917 1001 l 861 997 l 839 997 l 768 1003 l 739 1003 l 721 999 l 708 988 l 703 968 l 703 933 l 707 875 l 708 853 l 711 767 l 711 744 l 708 660 l 708 638 l 704 551 l 704 529 l 710 444 l 708 422 l 703 381 l 699 358 l 692 336 l 682 315 l 667 286 l 653 269 l 631 250 l 613 239 l 586 226 l 565 221 l 529 214 l 507 214 l 471 217 l 450 222 l 419 233 l 401 244 l 379 268 l 365 285 l 351 317 l 343 338 l 335 368 l 331 390 l 328 425 l 326 447 l 328 532 l 328 554 l 332 639 l 332 661 l 333 746 l 333 768 l 329 853 l 329 875 l 332 929 l 332 950 l 331 969 l 326 988 l 315 999 l 297 1003 l 265 1004 l 244 1006 l 199 1004 l 176 1004 l 124 1008 l 78 1006 l 60 1001 l 50 989 l 46 967 l 44 943 l 44 919 l 47 875 l 47 746 l 43 661 l 43 639 l 46 554 l 46 532 l 42 447 l 43 425 l 46 378 l 49 354 l 53 331 l 58 300 l 64 279 l 69 260 l 78 239 l 88 217 l 99 196 l 111 176 l 133 140 l 146 124 l 164 100 l 179 85 l 215 54 l 236 40 l 257 28 l 288 14 l 310 4 l 321 0 l 343 -7 l 356 -8 l 378 -12 l 454 -21 l 475 -22 l 507 -25 l 571 -25 l 614 -22 l 635 -18 l 667 -12 l 688 -7 l 718 4 l 739 11 l 768 25 l 786 35 l 814 51 l 832 64 l 860 86 l 878 101 l 894 119 l 908 138 l 926 165 l 936 185 l 949 214 l 956 233 l 967 263 l 972 283 l 978 315 l 982 338 l 988 371 l 990 392 l 992 424 l 993 444 l 990 489 z "},"Ų":{"ha":1117,"x_min":0,"x_max":0,"o":"m 992 660 l 994 744 l 994 767 l 990 853 l 990 875 l 992 907 l 992 928 l 990 969 l 989 986 l 978 996 l 960 1000 l 939 1001 l 917 1001 l 861 997 l 839 997 l 768 1003 l 739 1003 l 721 999 l 708 988 l 703 968 l 703 933 l 707 875 l 708 853 l 711 767 l 711 744 l 708 660 l 708 638 l 704 551 l 704 529 l 710 444 l 708 422 l 703 381 l 699 358 l 692 336 l 682 315 l 667 286 l 653 269 l 631 250 l 613 239 l 586 226 l 565 221 l 529 214 l 507 214 l 471 217 l 450 222 l 419 233 l 401 244 l 379 268 l 365 285 l 351 317 l 343 338 l 335 368 l 331 390 l 328 425 l 326 447 l 328 532 l 328 554 l 332 639 l 332 661 l 333 746 l 333 768 l 329 853 l 329 875 l 332 929 l 332 950 l 331 969 l 326 988 l 315 999 l 297 1003 l 265 1004 l 244 1006 l 199 1004 l 176 1004 l 124 1008 l 78 1006 l 60 1001 l 50 989 l 46 967 l 44 943 l 44 919 l 47 875 l 47 746 l 43 661 l 43 639 l 46 554 l 46 532 l 42 447 l 43 425 l 46 378 l 49 354 l 53 331 l 58 300 l 64 279 l 69 260 l 78 239 l 88 217 l 99 196 l 111 176 l 133 140 l 146 124 l 164 100 l 179 85 l 215 54 l 236 40 l 257 28 l 288 14 l 310 4 l 321 0 l 343 -7 l 356 -8 l 378 -12 l 454 -21 l 475 -22 l 507 -25 l 553 -25 l 538 -40 l 507 -76 l 503 -86 l 493 -106 l 485 -126 l 483 -137 l 481 -157 l 481 -167 l 482 -187 l 488 -208 l 490 -221 l 500 -242 l 506 -250 l 518 -268 l 535 -285 l 568 -306 l 593 -315 l 617 -322 l 639 -326 l 663 -329 l 686 -331 l 707 -329 l 739 -328 l 760 -325 l 781 -321 l 800 -315 l 808 -314 l 828 -308 l 836 -304 l 856 -297 l 871 -290 l 883 -283 l 893 -276 l 894 -269 l 893 -256 l 890 -244 l 886 -224 l 876 -201 l 861 -171 l 853 -156 l 849 -149 l 843 -144 l 836 -143 l 819 -147 l 788 -153 l 768 -153 l 746 -150 l 721 -142 l 701 -126 l 692 -108 l 690 -86 l 697 -64 l 710 -44 l 725 -26 l 733 -19 l 751 -3 l 781 22 l 799 38 l 849 76 l 860 86 l 878 101 l 894 119 l 908 138 l 926 165 l 936 185 l 949 214 l 956 233 l 967 263 l 972 283 l 978 315 l 982 338 l 988 371 l 990 392 l 992 424 l 993 444 l 990 489 l 986 551 l 992 638 z "},"Ů":{"ha":1117,"x_min":0,"x_max":0,"o":"m 718 1272 l 714 1296 l 703 1329 l 697 1340 l 686 1358 l 681 1365 l 667 1381 l 651 1393 l 638 1403 l 601 1421 l 579 1429 l 556 1435 l 544 1438 l 524 1440 l 499 1439 l 486 1439 l 464 1436 l 456 1433 l 436 1429 l 417 1422 l 396 1413 l 378 1400 l 369 1394 l 354 1379 l 338 1358 l 324 1336 l 313 1315 l 310 1307 l 304 1288 l 300 1267 l 300 1235 l 303 1211 l 306 1201 l 314 1181 l 324 1158 l 336 1140 l 342 1131 l 358 1113 l 379 1096 l 397 1083 l 415 1075 l 426 1072 l 450 1065 l 474 1061 l 497 1060 l 518 1060 l 539 1061 l 560 1064 l 582 1071 l 603 1078 l 619 1085 l 628 1090 l 644 1100 l 660 1111 l 674 1124 l 688 1139 l 699 1157 l 708 1178 l 713 1199 l 715 1208 l 718 1228 z m 568 1240 l 564 1225 l 557 1213 l 547 1204 l 539 1199 l 522 1194 l 504 1193 l 490 1196 l 476 1201 l 464 1211 l 456 1225 l 450 1240 l 451 1260 l 458 1279 l 472 1294 l 488 1303 l 503 1306 l 519 1306 l 533 1303 l 546 1296 l 556 1288 l 564 1275 l 568 1258 z m 986 551 l 992 638 l 992 660 l 994 744 l 994 767 l 990 853 l 990 875 l 992 907 l 992 928 l 990 969 l 989 986 l 978 996 l 960 1000 l 939 1001 l 917 1001 l 861 997 l 839 997 l 768 1003 l 739 1003 l 721 999 l 708 988 l 703 968 l 703 933 l 707 875 l 708 853 l 711 767 l 711 744 l 708 660 l 708 638 l 704 551 l 704 529 l 710 444 l 708 422 l 703 381 l 699 358 l 692 336 l 682 315 l 667 286 l 653 269 l 631 250 l 613 239 l 586 226 l 565 221 l 529 214 l 507 214 l 471 217 l 450 222 l 419 233 l 401 244 l 379 268 l 365 285 l 351 317 l 343 338 l 335 368 l 331 390 l 328 425 l 326 447 l 328 532 l 328 554 l 332 639 l 332 661 l 333 746 l 333 768 l 329 853 l 329 875 l 332 929 l 332 950 l 331 969 l 326 988 l 315 999 l 297 1003 l 265 1004 l 244 1006 l 199 1004 l 176 1004 l 124 1008 l 78 1006 l 60 1001 l 50 989 l 46 967 l 44 943 l 44 919 l 47 875 l 47 746 l 43 661 l 43 639 l 46 554 l 46 532 l 42 447 l 43 425 l 46 378 l 49 354 l 53 331 l 58 300 l 64 279 l 69 260 l 78 239 l 88 217 l 99 196 l 111 176 l 133 140 l 146 124 l 164 100 l 179 85 l 215 54 l 236 40 l 257 28 l 288 14 l 310 4 l 321 0 l 343 -7 l 356 -8 l 378 -12 l 454 -21 l 475 -22 l 507 -25 l 571 -25 l 614 -22 l 635 -18 l 667 -12 l 688 -7 l 718 4 l 739 11 l 768 25 l 786 35 l 814 51 l 832 64 l 860 86 l 878 101 l 894 119 l 908 138 l 926 165 l 936 185 l 949 214 l 956 233 l 967 263 l 972 283 l 978 315 l 982 338 l 988 371 l 990 392 l 992 424 l 993 444 l 990 489 z "},"V":{"ha":1144,"x_min":0,"x_max":0,"o":"m 1079 992 l 1071 1000 l 1054 1004 l 1029 1007 l 965 1003 l 876 1003 l 842 1006 l 819 1004 l 810 1004 l 793 1001 l 783 996 l 772 978 l 764 954 l 750 903 l 743 882 l 708 808 l 701 788 l 678 711 l 671 689 l 632 606 l 625 583 l 603 493 l 596 471 l 563 385 l 554 369 l 542 364 l 532 369 l 525 385 l 490 496 l 460 582 l 451 604 l 424 692 l 415 714 l 388 788 l 379 810 l 346 882 l 339 904 l 325 950 l 319 969 l 314 983 l 306 994 l 294 997 l 276 999 l 188 1004 l 121 1003 l 58 1007 l 38 1007 l 29 1006 l 14 1001 l 4 993 l 0 981 l 3 963 l 7 950 l 15 929 l 40 889 l 49 868 l 74 790 l 82 768 l 115 696 l 125 674 l 153 599 l 161 578 l 197 501 l 206 481 l 239 407 l 247 385 l 272 308 l 281 286 l 311 213 l 319 192 l 356 115 l 364 94 l 394 21 l 403 4 l 413 -6 l 431 -8 l 454 -7 l 532 0 l 554 1 l 656 0 l 672 1 l 681 7 l 686 22 l 718 97 l 726 119 l 760 192 l 768 214 l 799 289 l 808 310 l 846 383 l 856 404 l 886 479 l 894 501 l 924 576 l 932 599 l 957 675 l 967 696 l 1003 769 l 1013 790 l 1038 868 l 1047 889 l 1067 926 l 1075 949 l 1079 961 l 1083 979 z "},"W":{"ha":1597,"x_min":0,"x_max":0,"o":"m 1546 994 l 1540 999 l 1525 999 l 1451 1004 l 1429 1004 l 1354 1000 l 1332 1000 l 1258 1006 l 1242 1003 l 1233 993 l 1228 976 l 1214 924 l 1207 903 l 1181 840 l 1172 819 l 1149 757 l 1142 735 l 1128 669 l 1121 647 l 1110 617 l 1103 596 l 1092 567 l 1086 546 l 1069 465 l 1063 450 l 1054 449 l 1046 460 l 1040 481 l 1036 503 l 1032 535 l 1026 554 l 993 622 l 986 642 l 969 715 l 964 735 l 942 807 l 936 826 l 915 899 l 908 918 l 893 957 l 885 976 l 881 988 l 872 1001 l 858 1007 l 838 1008 l 817 1008 l 786 1010 l 765 1008 l 696 1003 l 681 1000 l 674 993 l 668 978 l 647 918 l 640 899 l 618 826 l 613 807 l 589 735 l 583 714 l 563 646 l 557 625 l 539 551 l 532 532 l 508 461 l 500 450 l 492 451 l 486 464 l 469 551 l 465 574 l 438 658 l 431 679 l 394 763 l 388 783 l 360 872 l 353 893 l 321 985 l 318 999 l 313 1004 l 294 1006 l 219 1006 l 124 1007 l 101 1007 l 47 1011 l 26 1011 l 11 1007 l 3 997 l 4 981 l 36 901 l 46 881 l 81 808 l 90 786 l 115 708 l 124 688 l 193 513 l 200 492 l 224 413 l 231 390 l 260 315 l 268 294 l 303 217 l 310 196 l 329 117 l 336 96 l 375 21 l 381 4 l 393 -3 l 479 4 l 501 4 l 588 -3 l 603 4 l 610 19 l 636 89 l 644 108 l 668 179 l 675 199 l 697 272 l 704 292 l 738 358 l 744 378 l 769 449 l 775 461 l 779 461 l 786 449 l 811 379 l 819 360 l 847 289 l 854 269 l 879 199 l 885 179 l 910 107 l 917 88 l 951 19 l 958 8 l 972 6 l 1081 -1 l 1174 -4 l 1183 -3 l 1190 4 l 1196 18 l 1219 96 l 1226 118 l 1251 196 l 1258 217 l 1294 293 l 1301 314 l 1324 393 l 1332 415 l 1367 488 l 1375 510 l 1397 588 l 1404 608 l 1438 686 l 1446 707 l 1469 785 l 1478 806 l 1544 981 z "},"Ẃ":{"ha":1597,"x_min":0,"x_max":0,"o":"m 1008 1339 l 994 1343 l 956 1346 l 925 1343 l 904 1343 l 839 1342 l 818 1342 l 786 1343 l 764 1343 l 753 1342 l 736 1342 l 729 1338 l 721 1324 l 688 1250 l 676 1231 l 635 1147 l 635 1143 l 636 1139 l 640 1138 l 653 1136 l 756 1136 l 824 1132 l 835 1133 l 851 1136 l 865 1143 l 878 1157 l 935 1226 l 949 1243 l 1003 1315 l 1011 1329 z m 1546 994 l 1540 999 l 1525 999 l 1451 1004 l 1429 1004 l 1354 1000 l 1332 1000 l 1258 1006 l 1242 1003 l 1233 993 l 1228 976 l 1214 924 l 1207 903 l 1181 840 l 1172 819 l 1149 757 l 1142 735 l 1128 669 l 1121 647 l 1110 617 l 1103 596 l 1092 567 l 1086 546 l 1069 465 l 1063 450 l 1054 449 l 1046 460 l 1040 481 l 1036 503 l 1032 535 l 1026 554 l 993 622 l 986 642 l 969 715 l 964 735 l 942 807 l 936 826 l 915 899 l 908 918 l 893 957 l 885 976 l 881 988 l 872 1001 l 858 1007 l 838 1008 l 817 1008 l 786 1010 l 765 1008 l 696 1003 l 681 1000 l 674 993 l 668 978 l 647 918 l 640 899 l 618 826 l 613 807 l 589 735 l 583 714 l 563 646 l 557 625 l 539 551 l 532 532 l 508 461 l 500 450 l 492 451 l 486 464 l 469 551 l 465 574 l 438 658 l 431 679 l 394 763 l 388 783 l 360 872 l 353 893 l 321 985 l 318 999 l 313 1004 l 294 1006 l 219 1006 l 124 1007 l 101 1007 l 47 1011 l 26 1011 l 11 1007 l 3 997 l 4 981 l 36 901 l 46 881 l 81 808 l 90 786 l 115 708 l 124 688 l 193 513 l 200 492 l 224 413 l 231 390 l 260 315 l 268 294 l 303 217 l 310 196 l 329 117 l 336 96 l 375 21 l 381 4 l 393 -3 l 479 4 l 501 4 l 588 -3 l 603 4 l 610 19 l 636 89 l 644 108 l 668 179 l 675 199 l 697 272 l 704 292 l 738 358 l 744 378 l 769 449 l 775 461 l 779 461 l 786 449 l 811 379 l 819 360 l 847 289 l 854 269 l 879 199 l 885 179 l 910 107 l 917 88 l 951 19 l 958 8 l 972 6 l 1081 -1 l 1174 -4 l 1183 -3 l 1190 4 l 1196 18 l 1219 96 l 1226 118 l 1251 196 l 1258 217 l 1294 293 l 1301 314 l 1324 393 l 1332 415 l 1367 488 l 1375 510 l 1397 588 l 1404 608 l 1438 686 l 1446 707 l 1469 785 l 1478 806 l 1544 981 z "}}}
